<svg width="48" height="48" xmlns="http://www.w3.org/2000/svg" xmlns:xlink="http://www.w3.org/1999/xlink"><defs><path id="a" d="M.625.334h.361v.94H.625z"/><path id="c" d="M.25.674h.736v.941H.25z"/><path id="e" d="M.873.694h.113v.941H.873z"/><path id="g" d="M.525.36h.461v.94h-.46z"/><path id="i" d="M.095.814h.891v.94h-.89z"/></defs><g fill="none" fill-rule="evenodd"><path d="M27.324 7.713c-2.412 0-4.826.957-6.726 2.867-3.728 3.746-4.28 9.956-1.345 14.427 1.366 1.93 2.097 4.299 2.097 6.73 0 .58.21 1.135.583 1.545.374.41.88.64 1.409.64h7.964c.528 0 1.035-.23 1.408-.64.374-.41.584-.965.584-1.544 0-2.432.739-4.795 2.105-6.725 2.936-4.47 2.374-10.687-1.352-14.433-1.901-1.91-4.315-2.867-6.727-2.867" fill="#CAF1EF"/><path d="M26.016 30.436l.003.018-.01.01.007-.028zm-.921.248h-.009l.018-.023-.01.023zm4.915-3.53l-.002-.036.04.018-.038.018zm4.652-15.423l.024-.015-.003.029-.021-.014zM25.688 30.48c-.001-.008.003-.026.005-.039l.01-.004-.001.024-.014.019zm-.253.123l-.026.046.003-.037.025-.033c-.001.007.001.015-.002.024zm6.832-21.3c.003.015 0 .037-.001.055-.01-.003-.024-.004-.03-.012-.004-.009-.003-.025-.004-.037.012-.003.034-.011.035-.006zm-3.01-1.825l-.001.035-.054-.048c.033.008.046.008.056.013zm-6.707.684l.031.024-.037.007.006-.031zm13.463 3.679l.005-.05.018.03-.023.02zM23.284 7.674c.009-.003.023.006.036.01-.01.009-.017.022-.027.025-.009.002-.023-.006-.034-.008.007-.01.015-.023.025-.027zm9.765-1.817c-.016-.002-.033 0-.045-.008-.012-.008-.016-.025-.024-.04l.047.007.022.04zm-3.545 23.426l-.043-.014-.004-.009.027.008.02.015zM34.05 6.565c-.013-.004-.03-.003-.041-.014-.019-.018-.035-.042-.052-.064l.04.014.053.064zm4.91 16.52c.004.025.02.056.009.073-.011.015-.052.015-.08.022l-.008-.077.078-.017zm-4.58-13.583c.006.004-.012.04-.017.06-.023-.01-.047-.019-.068-.032-.005-.003.006-.024.01-.038.025.002.054-.001.075.01zm5.207 12.332c.003-.012.016-.023.024-.036.01.022.032.046.027.063-.008.036-.031.07-.072.159.013-.103.017-.147.021-.186zm-14.324 8.729c.01-.027.016-.053.03-.08.014-.022.035-.046.052-.067l-.03.082-.052.065zm13.743-6.638c-.028.004-.064.021-.08.013-.025-.015-.047-.05-.047-.072 0-.019.036-.032.07-.057l.057.116zm-12.853 6.498c-.01.035-.02.095-.03.1-.01.005-.018-.038-.027-.06.01-.034.02-.068.029-.106.01.027.02.047.028.066zm2.517-23.118l.004-.04.212.033-.006.04-.21-.033zm11.085 13.758c.003.028-.05.057-.076.084-.021-.022-.057-.045-.06-.068-.006-.037.01-.075.025-.15.057.067.106.1.11.134zm-13.51 9.363c.012-.037.089-.069.13-.099 0 0 .015.03.013.045-.016.117-.079.12-.134.124 0 0-.008-.012-.01-.02l.001-.05zm5.495-21.489l.04-.06.213.195-.055.09-.198-.225zm3.337 1.274c.058.074.18.109.114.261-.004.009-.03.021-.045.023-.108.014-.125-.015-.15-.31.058.017.074.017.081.026zm4.22 4.322c.002-.009.076-.03.093-.018.15.086.133.211.059.383-.169-.111-.185-.229-.152-.365zm-10.174 15.54c.01-.014.034-.002.054-.004.056.177.047.176-.085.1.011-.033.016-.073.031-.096zm-1.409.149c.017.006.032.046.044.076.004.009-.001.04-.009.047-.111.125-.226.18-.384.042.121-.148.228-.202.35-.165zm-.655.19c-.154-.008-.307-.007-.445.126-.008.008-.053-.037-.053-.053.002-.051.013-.138.03-.144.114-.043.23-.081.348-.098.066-.01.133.026.237.051-.062.064-.09.12-.117.118zM19.46 13.367c.034-.185.075-.294.105-.411.03-.107.052-.224.2-.252.005.262-.094.449-.305.663zm10.167 15.707c.009.025.05.06.064.091.014.026.007.049-.205-.019.037-.056-.1-.141.15-.149-.006.025-.02.048-.01.077zm-3.751 2.256c-.05.023-.104.049-.153.05a2.527 2.527 0 0 1-.565-.033l.773-.178-.003.092c-.017.024-.036.061-.052.069zm-5.413-20.228l.023-.026c.036-.033.082-.062.149.014.029.033.054.102.042.125a.724.724 0 0 1-.156.225c-.23.18-.328.467-.482.702-.024.038-.063.064-.096.095l-.064-.03c.175-.372.353-.754.584-1.105zM28.7 30.258c-.017-.003-.04-.043-.06-.069 0 0-.011-.033-.012-.045-.003-.032-.006-.063-.007-.09-.001-.012.004-.017.004-.017.078.013.161.03.241.034.028.002.035-.047.06-.047.008 0 .051.082.08.127.007.032.025.092.018.092-.054.007-.114.004-.172.004l.004.014c-.052 0-.103.004-.156-.003zm-9.444-16.126a.91.91 0 0 0-.143.401c-.02.299-.085.566-.223.822-.057.094-.068.207-.114.36-.036-.619.39-1.853.71-2.157-.044.236-.12.41-.23.574zm18.683 3.039c-.002.051-.011.103.002.152.156.72-.047 1.446-.12 2.148-.036.259-.105.514-.16.78-.161-.057-.112-.12-.104-.168a12 12 0 0 0 .165-1.026c.07-.432.106-.867.12-1.308.02-.503-.015-1.008-.056-1.516-.008-.06.017-.128.028-.193l-.005-.002c.18.356.146.752.13 1.133zm-8.51 12.656c-.005-.01.014 0 .045.002 0 .04-.002.057-.003.075.03.044.085.117.083.13-.021.108-.16.077-.26.078-.041-.081-.08-.142-.077-.147.04-.082.031-.188.257-.058l-.045-.08zm.255.105c.003.01-.028-.007-.054-.027a1.115 1.115 0 0 1-.089-.082c-.118-.136-.092-.145-.09-.172.002-.013.09.048.14.073l-.092-.15c.244.21.243.217.09.146.036.07.072.144.095.212zm9.956-12.206l.496-.095c-.01.053-.005.087-.022.098-.075.043-.156.078-.235.115l-.075.112c-.008.01-.029.015-.044.022-.003-.021-.022-.053-.01-.063.039-.026.088-.046.134-.068l-.244-.121zm.631-.586c-.156.018-.234-.074-.34-.096l-.077.077c-.001-.012-.01-.03-.003-.033.027-.016.057-.027.085-.04.21-.063.21-.065.335.092zM29.543 29.426c.074.06.044.06-.025.034l.004.001.02-.035zm-1.459.858l.142.003h.076a.307.307 0 0 1 .057-.044c.006-.004.015.015.022.023l-.081.015-.072.001-.145.001.001.001zm11.818-11.998l-.001-.002.001.002zM22.803 4.513c-.05-.008-.106-.035-.15-.022-.514.141-.926.514-1.47.582-.627.323-1.226.69-1.796 1.092-.169.11-.35.208-.542.28-.128.05-.277.05-.322.215-.006.02-.068.044-.08.033-.294-.246-.415.038-.572.163-.39.317-.692.717-1.093 1.024-.149.111-.253.285-.349.446-.104.185-.174.358-.432.398-.124.018-.233.145-.322.246-.127.144-.232.306-.343.46-.25.373-.475.765-.754 1.12-.237.34-.443.696-.54 1.103-.067.272-.162.51-.372.719a1.658 1.658 0 0 0-.325.523c-.135.336-.21.69-.315 1.035-.028.098-.046.212-.11.285-.231.263-.265.595-.33.913a16.085 16.085 0 0 0-.277 3.013c-.013.289.013.579.024.868.016.73.092 1.46.218 2.179.142.563.326 1.11.532 1.65.16.408.188.866.475 1.226.02.026.026.064.028.098.01.268.175.474.299.693.081.158.144.274.21.403.316.58.622 1.152 1.038 1.731.09.126.186.257.28.39l.136.176.084.092c.058.066.107.167.16.205.208.15.394.333.536.546.152.24.307.49.435.755.055.128.021.293.148.388.164.115.163.276.216.423.028.099.077.194.117.292l.038.075c.017.05.033.099.033.156.012.493.024.999.127 1.463.055.38.146.717.026 1.138a.48.48 0 0 0 .025.304c.024.06.095.09.144.132l.162-.23c.033.06.066.1.083.15.153.493.372.916.633 1.37.137.234.242.505.385.753.026.045.015.116.023.174.13.393.403.674.807.785.143.039.27.14.403.21.099.058.183.14.287.186.638.297 1.258.392 1.942.48.45.06.96-.06 1.368.16.044.025.12.01.18.008l2.024-.087.359-.023.229-.028.456-.048a4.9 4.9 0 0 1 .918-.01c.106.011.214-.027.322-.043.123-.024.46-.062.732-.086.281-.023.562-.034.854-.004.416.04.832.017 1.232-.017.264-.024.5-.115.74-.177.312-.075.593-.212.9-.226.296-.01.542-.094.8-.201.967-.398 1.759-1.269 2.09-2.262.1-.29.157-.567.389-.73.117-.08.158-.231.015-.44-.137-.197-.103-.353-.042-.53l.15.263c.278-.29.349-.694.068-1.164l.01-.108-.003-.008-.013.118c.114.038.25.087.254-.077.027-.438.084-.885.018-1.332-.027-.229-.055-.287.058-.373.246-.178.27-.398.21-.648-.037-.149-.096-.296.16-.336.036-.006.047-.038.056-.062.099-.26.22-.51.33-.762.066-.15.109-.311.169-.466.072-.187.148-.374.232-.556.036-.091.059-.217.143-.306a.595.595 0 0 0 .108-.15.922.922 0 0 0 .087-.272c.018-.11.07-.211.116-.31.072-.142.164-.052.25.03h-.006l-.041-.453c.087.018.176.047.258.045.062-.002.157-.033.166-.074.032-.173.107-.352-.09-.529l-.18-.006c-.009-.002-.02-.026-.03-.039.02-.007.045-.028.063-.02.05.015.099.043.148.065-.024-.269.12-.472.208-.698h-.003c.053.062.125.12.155.187.025.054-.007.118 0 .179.003.023.042.058.072.068.028.01.083.002.092-.015.063-.135.125-.27.172-.409l.003.005c0-.031-.013-.077.006-.09.265-.182.148-.548.386-.75.027-.022 0-.089-.004-.134-.021-.23-.087-.464-.102-.688-.008-.08.076-.154.118-.232l-.006.004c.042-.096.09-.19.125-.289.078-.197.09-.411.179-.6.149-.34.152-.643-.272-.892-.161-.094-.246-.22-.096-.379.076-.08.061-.218.074-.332.01-.083-.055-.118-.159-.153-.157-.051-.162-.109-.02-.163.303-.116.379-.408.735-.494.11-.027.076-.231-.039-.375l-.16.18a.85.85 0 0 1 .002-.453c.024-.083.073-.184.149-.23.071-.043.204-.022.294-.029.122-.477-.084-.922-.03-1.378.006-.042-.023-.087-.04-.13-.05-.116-.154-.148-.311-.098-.035.012-.063.044-.097.049-.07.012-.142.01-.213.016.001-.053-.005-.107.006-.16.013-.055.068-.138-.04-.137-.227.003-.194-.118-.13-.201.07-.094.152-.181.136-.288-.01-.083-.037-.154-.166-.06-.092.066-.143.016-.156-.04-.01-.05 0-.127.04-.162.115-.091.158-.167.046-.264a.495.495 0 0 1-.122-.186c-.038-.09-.029-.182.139-.2.146-.015.209-.081.186-.188a5.96 5.96 0 0 0-.201-.645c-.026-.066-.081-.141-.152-.166-.163-.056-.211-.135-.23-.292-.024-.154.023-.261.117-.387l-.002.003c.052-.297.05-.299-.26-.17-.013.007-.033-.002-.07-.005-.004-.114-.017-.233-.015-.355.003-.153.14-.013.205-.11-.044-.088-.06-.235-.158-.292-.21-.118-.247-.306-.323-.485l-.002.002c.063.014.126.03.255.062-.056-.15-.114-.242-.124-.344-.012-.115.015-.243.027-.384-.111-.044-.316.047-.412-.121l.363-.247c-.058-.626-.065-.636-.409-.854-.127.266-.047.471.098.65-.129.125-.167.025-.228-.002l-.059-.025c.01.002.024 0 .032.005.01.006.016.016.024.026-.029-.084-.04-.18-.094-.249a2.046 2.046 0 0 0-.319-.306c.092-.155.168-.074.245-.076l.306-.021c-.036-.056-.07-.11-.11-.163l-.05-.007.047.013c.042-.051.128-.123.117-.151-.028-.074-.096-.127-.156-.184-.083-.08-.168-.095-.267.029-.031.038-.094.08-.135.081-.159 0-.322.006-.463-.029-.079-.02-.12-.123-.177-.189l.216-.15c.026-.022.041-.058.07-.1-.027-.097-.051-.205-.09-.313-.14.08-.21.227-.375.102-.215-.162-.422-.324-.587-.529-.118-.155-.26-.3-.285-.54.123-.058.22-.107.32-.155l.005-.036c-.037-.139-.05-.306-.237-.318-.04-.003-.089.033-.134.054l.046.13c.007.013.02.023.032.034v-.003c-.18.153-.326.13-.456.003a12.783 12.783 0 0 0-1.51-1.33 11.98 11.98 0 0 0-2.41-1.415c-.213-.097-.445-.249-.712-.06-.053.037-.159-.014-.238-.033-.175-.042-.345-.107-.522-.133a1.06 1.06 0 0 0-.338.034c-.038.01-.09.071-.096.112-.006.038.033.108.066.12.237.095.466.213.705.287.39.12.676.469 1.112.469.06 0 .123.04.164.084.096.117.192.192.36.178.103-.008.212.052.302.113.329.207.637.443.938.678.141.116.355.188.415.35.084.251.327.185.46.316.038.038.084.113.065.157-.088.227.026.318.133.423.58.568 1.033 1.226 1.522 1.835.247.304.368.67.444 1.044l.002-.006-.298-.072c.022.069.023.1.038.12.099.132.306.182.275.42-.012.113.07.275.304.223l-.007-.035.002.035c-.068.27-.079.519.072.702.12.16.246.31.216.535-.003.024.027.046.048.063.214.164.223.167.173.32-.03.087-.014.129.07.16.13.05.166.15.079.28-.066.097-.054.161.025.22.044.032.101.072.102.118.008.185-.035.375.077.532-.1.167-.03.297.031.426.098.208.058.43-.024.657-.062-.103-.088-.212-.115-.32-.09-.387-.146-.788-.26-1.174-.11-.387-.341-.722-.376-1.145-.004-.066-.052-.12-.075-.182l-.15-.408a6.398 6.398 0 0 0-.333-.63c-.038-.062-.139-.083-.21-.122l.003.001c-.053-.209-.139-.4-.213-.6-.343.177-.34.179-.485-.108.243-.234.266-.278.196-.454-.049-.113-.123-.21-.188-.314l-.298-.444a8.787 8.787 0 0 0-.813-.996.786.786 0 0 0-.235-.17c-.058-.031-.134-.069-.216.085.135.18.27.384.012.708-.148-.037-.18-.162-.167-.338.023-.295-.14-.439-.372-.493-.054-.013-.12-.001-.168-.022-.158-.074-.317-.133-.395-.328a.511.511 0 0 0-.22-.235c-.049-.03-.065.038-.045.087.006.013.016.024.017.038 0 .009-.018.023-.039.048l-.554-.474c-.042-.038-.04-.143-.06-.218v.006c-.14.008-.275.046-.395-.056a3.01 3.01 0 0 0-.736-.464 9.636 9.636 0 0 0-2.075-.616c-.069-.011-.138-.033-.209-.023-.326.042-.637-.05-.958-.08-.07-.007-.14-.025-.21-.029-.052-.002-.116-.01-.098.14.235.076.473.14.703.236.336.13.66.28.967.446.11.06.218.097.345.006l-.003.002c.143.036.254.143.374.222.108.073.274.035.407.098.307.15.612.292.9.46.357.208.698.436 1.015.69.347.277.657.592.96.9.38.388.737.787 1.053 1.214.157.246.32.502.485.758.007.012-.02.049-.034.078-.165-.116-.331-.236-.486-.346-.026-.02-.041-.06-.043-.099-.01-.251-.192-.353-.353-.47a4.254 4.254 0 0 1-.372-.317 36.677 36.677 0 0 1-.274-.273l-.043.013.043-.01c.009-.174-.037-.31-.136-.406l-.351-.375a9.86 9.86 0 0 0-.963-.889c-.049-.041-.1-.088-.162-.093-.269-.02-.443-.225-.664-.35-.166-.092-.346-.157-.523-.222-.04-.013-.097.022-.222.057.174.139.282.243.391.342.442.123.819.405 1.144.725-.384-.227-.782-.413-1.14-.73l-.616-.262c-.068-.034-.179-.038-.148-.232.005-.032-.036-.083-.066-.098-.32-.178-.668-.312-1.041-.252-.113.017-.226.005-.32.013-.01-.09-.009-.181-.025-.186-.231-.07-.457.045-.681.122l.884.414c.126.064.246.138.37.187.351.156.706.28 1.012.505.371.266.723.51 1.099.707.089.049.17.117.25.182.283.243.538.507.791.758.376.367.73.741 1.041 1.146.35.458.65.942.916 1.432.278.508.519 1.029.698 1.568 0 .009.003.022.005.031.104.415.153.836.305 1.219a.457.457 0 0 1 .03.18c.02.673.146 1.298.152 1.943l.012.265c-.02.532-.09 1.055-.173 1.567-.089.473-.162.944-.312 1.394-.164.533-.422 1.026-.655 1.51-.15.288-.308.588-.468.851-.181.26-.282.45-.636.911a11.858 11.858 0 0 0-1.771 3.774c-.1.359-.232.71-.317 1.074l-.14.608c-.025.105-.04.21-.048.316-.026.313.063.682-.133.967-.064.105-.163.197-.363.135.005.04.025.102.008.12a.522.522 0 0 1-.355.195c-.207.02-.434-.002-.643.028-.176.03-.354.06-.535.093l-.07.013-.144.012-.3.025c-.202.014-.404.03-.602.043-.246.015-.492.02-.736.022l-.547.003-.01-.077c.029-.028.054-.072.078-.077.037-.006.072-.008.108-.01l.228-.01c.205-.015.407-.053.611-.062l1.15-.036.379-.012.283-.016.583-.058a.813.813 0 0 0 .52-.193c.025-.054.032-.123.06-.167.102-.16.173-.337.192-.519.014-.183-.007-.368-.013-.551a3.198 3.198 0 0 1-.004-.3c.006-.065-.003-.042.028-.234.025-.165.06-.328.095-.492.145-.65.358-1.29.662-1.886.064-.122.104-.255.148-.386.009-.03-.01-.072-.019-.122l-.195.112.205-.601c-.078.012-.126.008-.142.025a2.16 2.16 0 0 0-.457.77c-.06.173-.172.33-.278.489-.016.026-.133.017-.193-.006-.04-.015-.057-.085-.093-.125-.098-.112-.187-.112-.24.006-.042.09-.071.185-.1.278-.148.454-.202.93-.443 1.36-.052.095-.046.224-.058.338-.033.274.006.17.013.232a.266.266 0 0 1 .025.082c.002.074-.032.128-.023.2.02.128.013.301-.093.382-.1.086-.204.154-.366.114-.044.124-.152.05-.229.086-.054.015-.019.03-.148.048l-.493.051c-.328.035-.658.07-.986.09l-.586.032-.16.025a1.83 1.83 0 0 0-.322.077c-.144.047-.257.018-.404.047-.16.021-.363.029-.497-.058-.198-.118-.253-.334-.298-.54-.017-.062-.053-.117-.084-.18-.026-.053-.065-.105-.098-.163-.035-.079-.052-.057-.078-.26-.087-.56-.303-1.079-.471-1.613a11.811 11.811 0 0 0-.86-2.012 1.19 1.19 0 0 0-.182-.262 6.664 6.664 0 0 1-.739-.984c-.077-.124-.189-.247-.274-.348-.14-.172-.288-.364-.344-.445-.069-.095-.135-.194-.215-.284-.224-.247-.435-.564-.639-.865a8.175 8.175 0 0 1-.52-1.015c-.07-.158-.15-.315-.205-.481l-.219-.55-.073-.287c-.103-.333-.213-.674-.232-1.026l-.144-1.152c-.005-.296.1-.58-.008-.895-.018-.058.045-.116.078-.17a.437.437 0 0 0 .035-.427c-.03-.074-.003-.145.01-.216.007-.058.022-.117.022-.178-.001-.116-.037-.244-.01-.355.038-.175.18-.316.2-.49.016-.18.034-.362.098-.53.046-.118.104-.23.137-.355.116-.47.296-.921.543-1.339.118-.165.21-.35.31-.53.103-.208.198-.428.37-.576.175-.138.254-.355.411-.504.154-.164.169-.435.273-.65.006-.015-.018-.075-.034-.088-.04-.028-.096-.062-.122-.054-.042.015-.069.058-.099.091-.17.187-.32.391-.482.58-.014.02-.104-.016-.156-.047-.024-.015-.057-.1-.048-.126.082-.2.229-.35.226-.626 0-.069.097-.103.163-.134.087-.041.19-.06.28-.096.042-.016.108-.056.097-.092-.086-.274.08-.17.208-.112h.003l.027-.02.027-.024c-.178-.28-.252-.336-.394-.25-.113.072-.2.182-.298.274-.038.034-.05.132-.177.032.183-.21.373-.41.581-.589.078-.062.18-.063.319.078.154.157.157.135.208-.07a.22.22 0 0 1 .114-.13c.175-.09.391-.114.535-.238.259-.232.637-.243.843-.58.457-.105.763-.528 1.194-.732.048-.023.103-.12.097-.186-.012-.109-.101-.126-.167-.116-.222.03-.439.083-.658.135a2.26 2.26 0 0 0-.188.056c.158-.177.346-.284.536-.384.35-.172.69-.413 1.09-.47.203-.028.397-.106.597-.166l.553-.206c.078-.026.175-.015.2-.205l-.449-.135c-.038.025-.077.053-.11.076-.011.008-.027.005-.042.006.01-.017.016-.046.029-.051.04-.015.083-.02.124-.028.078-.047.155-.097.235-.139.067-.036.14-.054.206-.093.067-.037.17.041.22-.122-.094-.016-.166-.036-.24-.038l-.586.007c-.196.004-.384.014-.548-.219-.063-.085-.202-.108-.307-.115a5.04 5.04 0 0 0-.997.015 9.582 9.582 0 0 0-1.512.354c.23-.163.485-.26.748-.338.266-.082.446-.4.773-.337.023.005.07-.03.073-.054.029-.19.154-.193.294-.21.276-.034.555-.072.83-.121.103-.015.24-.015.235-.218-.047-.017-.093-.04-.141-.049-.374-.077-.744.007-1.108.078-.15.03-.303.081-.482-.026.339-.116.34-.11.516-.31-.21.047-.36.074-.506.118-.18.058-.357.105-.412.352-.023.106-.145.024-.216-.035l.004.002c-.198.064-.353.246-.59.196h.004z" fill="#CAF1EF"/><path d="M20.092 19.43c-.204-.087-.308-.194-.33-.333a11.885 11.885 0 0 1-.196-1.34c-.017-.463-.057-.943.035-1.406l.061-.693c.021-.215.071-.425.15-.622.01-.03.084-.053.138-.044.106.017.161.087.181.142a.287.287 0 0 1 .009.154c-.053.294-.059.6-.095.89-.009.305-.017.602-.027.882.005.394.016.78.08 1.164.03.38.122.754.061 1.136 0 .016-.03.033-.067.07M21.42 11.68c-.014.05-.02.106-.046.149-.138.25-.283.487-.391.748-.21.413-.359.853-.508 1.276l-.177.67c-.003.008-.003.02-.01.028-.078.097-.209.177-.16.334.004.012-.077.023-.12.012a.284.284 0 0 1-.122-.08.12.12 0 0 1-.021-.098c.029-.24.093-.468.156-.7.058-.235.135-.464.253-.672.17-.358.346-.714.549-1.062.02-.037.023-.092.057-.116.151-.094.228-.239.304-.395.033-.067.095-.11.143-.164l.094.07zM28.508 28.963c.018.01.083.066.053-.002-.04-.076-.025-.073-.033-.099-.007-.013 0-.017.002-.022l.042.023a2.139 2.139 0 0 1 .148.092c-.111-.05.048.08.064.143.003.012-.005.016-.017.016-.051-.003-.063.018-.037.12.003.011.008.027-.01.006-.101-.114-.077-.06-.07 0 .002.023-.013.012-.024.008l-.039-.077-.042-.095-.032-.083c-.003-.011.01-.004.01-.004l-.015-.026zM31.017 24.595c-.24.224-.426.477-.507.809-.07.29-.255.55-.381.828-.009.018-.068.027-.096.018-.028-.008-.07-.054-.064-.07.072-.232.147-.464.242-.688.05-.12.124-.23.169-.35.152-.416.34-.82.579-1.199.236-.375.468-.843.683-1.17.02-.029.083-.05.123-.04.095.023.102.097.09.157a.531.531 0 0 1-.063.161c-.056.094-.137.206-.198.32-.215.401-.403.813-.575 1.228l-.002-.004zM28.445 28.744c-.071-.2.071-.502.273-.725.047.079.09.117.092.157.006.21-.004.426-.024.618 0 .072-.008.039-.061.05-.063-.006.017.03.05.06.019.016.035.035-.068-.003l-.118-.054a4.144 4.144 0 0 1-.097-.047c-.002-.008 0-.011.013-.015.007-.01.037.02-.063-.042l.003.001zM31.741 21.8c.053.187-.03.258-.109.352-.067.06-.53.572-.932 1.123l.002.001-.097-.057v.002l.349-.57.312-.47c.062-.128.13-.253.202-.374.028-.052.109-.066.278-.004l-.005-.003zM32.647 19.66c-.046.042-.089.083-.167.14-.045-.048-.082-.07-.08-.087.009-.165.01-.33.05-.49.047-.218.09-.44.153-.664.004-.02.044-.037.071-.06.19.154.172.157.119.268-.036.072-.048.146-.063.22-.025.162-.079.32-.131.476-.023.064-.038.127.052.2l-.004-.002zM32.657 16.453c-.024-.014-.065-.023-.066-.043-.007-.203-.221-.328-.097-.574.025-.05-.037-.08-.054-.122-.046-.126-.113-.236.01-.468.164.08.33.13.23.306-.07.125-.057.214.003.29.137.156.033.392.028.585l-.054.026M32.283 20.79c-.058.006-.117.01-.182-.042-.02-.016-.03-.037-.03-.05.018-.16.005-.32.152-.449.065-.067.08-.152.121-.229.012-.024.033-.044.087-.059.103.118.148.234.079.33-.109.136-.248.25-.144.444.013.026-.058.037-.089.055l-.023-.025.029.025zM39.563 13.013c.195.006.266.109.26.215-.007.329.115.599.26.875a.159.159 0 0 1-.004.133c-.023.038-.078.069-.127.089-.02.007-.076-.009-.089-.03-.16-.248-.203-.527-.24-.817l-.06-.465M27.075 29.292c.248-.05.484-.071.714-.085l.34-.016.17-.007c.06-.004.12-.008.103-.011l.009.079v.064c-.002.018-.007.038-.007.038l-1.26.052c-.009 0-.016-.025-.069-.114M40.12 20.173c-.088-.161-.154-.26-.198-.365-.046-.113.043-.245.197-.26.18-.018.368-.008.552.002.03.002.06.066.09.1-.04.021-.087.065-.12.058-.188-.043-.275.021-.33.156-.038.092-.105.173-.192.309M29.988 9.415c-.055.013-.125.06-.16.031-.2-.176-.409-.355-.628-.53-.016-.014-.01-.09-.005-.14.002-.013.046-.05.061-.045.293.142.598.28.732.69v-.006zM28.486 29.254a5.543 5.543 0 0 0-.013-.079.365.365 0 0 0 .041-.121l.006.008c.01.02.02.047.032.072l.032.086c0 .026.004.06-.007.06-.03 0-.062-.015-.091-.026M30.65 23.365c-.079.381-.17.736-.51.977-.034.023-.093.019-.139.026-.014-.048-.049-.108-.034-.145.07-.158.143-.316.235-.461.104-.161.232-.304.35-.454l.098.059v-.002zM25.693 29.715a.544.544 0 0 1-.157.052c-.007 0 .01-.04.032-.073.068-.097.093-.116.104-.116a.84.84 0 0 0 .188-.067c.009-.004-.002.029-.004.048l-.016.04-.05.091c-.039.027-.08.047-.122.067l.025-.042zM32.885 17.669l-.08.04c-.061.03-.166.05-.17.014-.02-.146.001-.3 0-.45 0-.03.058-.068.137-.161a.52.52 0 0 1 .071.36c-.009.068.023.133.038.199l.004-.002zM33.86 5.71c.259.113.51.242.757.379.036.02.063.085.059.133-.003.04-.067.126-.078.122-.275-.078-.536-.168-.693-.43-.032-.055-.027-.138-.04-.207l-.005.002zM22.187 23.426c-.158-.183-.307-.357-.45-.526-.006-.004.029-.045.052-.062a.203.203 0 0 1 .088-.03c.051.01.113.011.13.042.057.108.085.214.23.455.009.015-.02.053-.05.121M21.774 9.694c.159.003.206-.148.314-.216.017-.01.068.001.072.01a.65.65 0 0 1 .043.131c.003.016-.005.03-.013.037-.157.154-.308.31-.455.47-.011.012-.056-.001-.077-.02-.022-.019-.056-.071-.051-.086.03-.097.07-.189.108-.283h.003l.055-.044zM25.047 29.097c.14.01.247.005.213.06a.585.585 0 0 1-.223.093c-.09-.015-.05-.088.01-.153M31.742 21.719c-.037-.04-.115-.098-.107-.116.043-.1.049-.218.19-.283.141.16.131.2-.022.41l-.06-.011zM33.454 18.969c-.229-.191-.098-.317-.007-.454.003-.006.032-.012.043-.01.032.004.088.013.09.02.011.139-.028.274-.126.444M26.103 29.617c-.005-.021-.01-.044-.013-.073 0 0 .017-.083.02-.091.043-.124.051-.119.057-.025l-.004.046a.742.742 0 0 1-.016.084c-.014.027-.027.039-.044.059M33.303 15.541c-.065-.166-.11-.278-.153-.392-.005-.01.03-.045.055-.057.026-.011.077-.02.089-.013.126.089.148.224.009.462M32.112 22.318c.057-.085.11-.175.168-.285.006-.012.074.007.116.019.009.001.046.044.046.057.003.157-.108.229-.333.205l.003.004zM33.493 18.355c-.14-.116-.188-.19-.05-.28a.207.207 0 0 1 .092-.023c.027 0 .066.012.073.024.046.08.025.161-.115.279" fill="#CAF1EF"/><path d="M33.919 5.61l-.059.099.005-.002-.1.034c-.165.052-.31.05-.394-.111-.054-.099.143-.205.418-.195.033.002.066.018.099.027l-.001-.006.034.16-.002-.007zM40.224 14.855c-.027.051-.047.123-.072.128-.063.01-.152.008-.184-.024a.39.39 0 0 1-.091-.19c-.009-.032.032-.092.07-.111.031-.017.107-.004.136.02.06.049.098.115.141.177M29.702 24.976c.096.031.187.085.135.183-.071.129-.17.241-.257.361-.157-.044-.12-.141-.089-.206.06-.12.142-.228.216-.34l-.005.002zM25.348 29.658c.174-.143.186-.137.191-.116a.44.44 0 0 1-.065.116c-.03.046-.12.121-.13.098-.008-.02 0-.057.004-.098" fill="#CAF1EF"/><g transform="translate(39.882 18.122)"><mask id="b" fill="#fff"><use xlink:href="#a"/></mask><path d="M.89.334c.04.112.059.154.07.198.015.07.062.158-.062.19C.788.751.596.637.628.554.657.484.767.434.89.334" fill="#CAF1EF" mask="url(#b)"/></g><path d="M30.34 9.551c-.168.077-.286.052-.352-.136v.006c.086-.145.168-.189.232-.086.043.07.078.147.116.22l.004-.004zM25.895 29.588c.084-.118.107-.137.097-.006-.032.016-.066.034-.098.047-.007.001 0-.027.001-.04M31.97 21.139c-.042-.093-.11-.189.11-.169.01.001.039.013.046.02.12.122-.034.132-.156.149M30.974 6.638c.128.044.255.091.377.15.024.012.015.088.022.135-.04.007-.092.038-.119.02-.103-.066-.198-.15-.3-.223l.02-.082zM39.717 22.555c.089-.006.177-.02.267-.017.047.002.132.036.135.057.01.054.004.128-.034.161-.035.03-.132.036-.183.015-.103-.043-.18-.117-.179-.22l-.006.004zM32.578 18.28c.056-.042.102-.077.159-.118a.225.225 0 0 1 .094-.004c.028.015.066.04.049.053-.045.04-.115.072-.174.107l-.128-.039M20.686 20.822c-.005.025-.01.053-.02.08-.001.008-.028.018-.044.024a.154.154 0 0 1-.052.005c-.104-.032-.098-.098-.056-.168.006-.01.026-.019.041-.024.016-.005.047-.008.051-.004.03.031.054.057.08.087M39.563 12.686c-.004.037.005.082-.013.094-.04.023-.1.05-.138.043a.158.158 0 0 1-.106-.081c-.019-.036-.005-.086-.005-.13.048 0 .104-.01.147.002.045.013.08.048.115.072M25.17 29.265c.083-.013.097.003.05.057-.134.043-.134.037-.05-.057M16.594 29.232c-.04-.04-.09-.072-.123-.112-.007-.007.027-.04.052-.05.026-.012.084-.02.09-.013.035.04.06.085.086.13l-.105.045z" fill="#CAF1EF"/><g transform="translate(39.882 15.298)"><mask id="d" fill="#fff"><use xlink:href="#c"/></mask><path d="M.427 1.095A.403.403 0 0 1 .25.745C.247.726.282.7.301.676.34.693.407.71.411.736c.017.099.012.2.016.358" fill="#CAF1EF" mask="url(#d)"/></g><path d="M32.108 14.502c-.038-.09-.008-.22-.016-.329.16.024.191.132.02.329h-.004zM24.1 26.254c.065.169.125.338.18.51-.192-.123-.224-.306-.29-.478l.11-.032zM25.07 28.947c.017.038.035.044.04.059 0 0-.049.019-.076.025a.722.722 0 0 1-.084.01c-.002-.02.011-.03.015-.073l.105-.02zM40.108 20.698c-.054-.001-.124.014-.154-.009-.03-.022-.04-.09-.022-.12.03-.047.096-.117.136-.111.11.018.132.097.1.176-.01.025-.042.044-.065.066l.005-.002zM32.516 21.486l.183-.118c.171.071.101.106.085.14-.016.035-.067.053-.102.078l-.169-.103.003.003zM25.31 29.62c-.029.014-.078.045-.083.036-.006-.007.02-.043.058-.084.045-.047.114-.09.12-.073.003.007-.01.03-.016.047l-.08.073zM32.445 21.795c.042.05.094.098.081.103-.029.014-.089.006-.135.008-.028-.027-.086-.072-.08-.078.024-.017.075-.019.134-.033M32.633 16.744c-.002-.007-.011-.015-.003-.02l.107-.088c.026.013.053.03.074.042.006.004.005.016-.004.022l-.11.064-.064-.02zM33.491 16.99c.038.01.076.012.086.022.031.037.055.077-.039.12-.012.006-.053.01-.053.01-.027-.024-.066-.049-.07-.077-.003-.019.047-.047.076-.074M33.617 17.58c.006.041.016.075.012.109-.001.008-.055.019-.083.028-.022-.034-.044-.065-.059-.098l.13-.038M32.97 20.86c-.1-.09-.129-.159.09-.214l-.09.214M33.492 15.62c-.018.031-.03.067-.058.102a.195.195 0 0 1-.086.038c-.023.003-.048-.008-.05-.021a.11.11 0 0 1 .017-.08c.008-.013.051-.039.078-.045.027-.008.052.002.1.006M33.076 20.358l.06.08c-.04-.002-.082 0-.123-.008-.017-.004-.054-.039-.045-.044.017-.012.057-.015.108-.028M25.254 29.504c-.03.015-.056.022-.067.02-.005 0 .024-.026.044-.044l.046-.034c.016.002.03.004.04.008l-.063.05M26.206 29.426c.008-.025.013-.054.017-.057.015-.007.002-.002.046-.002-.051.11-.036.11-.063.06M32.062 7.327l-.258-.116c-.02-.01-.026-.047-.038-.074.065-.104.134-.07.194-.049.085.031.105.132.096.242l.006-.003zM35.943 10.274l-.291-.332c.3.05.305.052.285.333l.006-.001zM28.46 29.27c-.004.019-.006.043-.012.042 0 0-.008-.074-.014-.113.004-.015.006-.031.008-.043l.017.114M33.36 19.645c-.15-.046-.115-.085-.114-.121.001-.01.043-.015.069-.02 0 0 .032.012.033.019l.012.122M31.182 10.138c-.004.05 0 .088-.012.102-.018.024-.051.044-.07.04-.013-.001-.012-.038-.017-.06l.099-.082M27.26 5.535c-.03-.068-.061-.123-.08-.182-.005-.016.026-.05.042-.077.035.049.073.096.1.15.006.01-.027.051-.061.109" fill="#CAF1EF"/><path fill="#CAF1EF" d="M32.009 7.435l.053-.108-.006.003.377.213-.035.065-.39-.18zM35.365 6.709l.12.001c-.007.032-.007.085-.023.092-.038.018-.081.014-.123.02.007-.032.013-.063.026-.113M32.733 7.52l-.037-.092c.04-.019.081-.045.122-.053.013-.002.02.047.03.074l-.115.071zM32.132 14.542c.15.014.152.017.091.187l-.09-.189-.001.002zM23.733 25.765c-.029-.036-.063-.063-.078-.1-.007-.013.033-.045.052-.07.032.028.07.051.093.084.007.008-.035.046-.067.086M24.482 27.4c.04-.01.069-.02.069-.02.03.057.054.107.079.158-.026.006-.072.023-.075.017-.028-.05-.05-.1-.073-.154M27 4.166l.09.13c-.034.026-.065.058-.1.07-.015.005-.062-.044-.059-.059.01-.041.036-.078.07-.14M33.505 16.46c.052.005.097.004.097.012-.005.032-.023.065-.037.097-.022-.003-.064-.001-.066-.01-.005-.03.006-.062.006-.1M25.165 29.447c-.008-.004-.018-.004-.017-.012l.067-.044c.006 0 .02-.003.015.004l-.065.052M32.915 21.239l-.118.01c-.017-.024-.044-.05-.046-.068-.002-.013.036-.014.058-.02l.106.078M33.216 19.84l.07-.017c.02.015.059.039.051.04-.024.012-.064.015-.099.02l-.022-.043zM22.536 23.801c.063.008.128.014.187.03.01.001-.001.047-.007.073 0 0-.036.01-.044.004a14.44 14.44 0 0 0-.134-.112l-.002.005zM23.498 25.061a3.162 3.162 0 0 1-.008.103c-.041-.026-.09-.048-.122-.083-.01-.01.018-.052.027-.079.037.02.075.042.103.06M33.45 16.815l.062-.047c.024.006.069.01.067.017-.004.013-.038.031-.06.047l-.069-.017zM20.316 20.322c-.011-.016-.027-.03-.026-.048 0-.006.048-.016.077-.024.01.014.028.03.027.046-.001.006-.05.016-.078.026"/><g transform="translate(39.882 17.18)"><mask id="f" fill="#fff"><use xlink:href="#e"/></mask><path d="M.936.694c.02.019.05.039.051.058.001.015-.04.03-.062.046C.906.778.875.759.873.739c0-.014.042-.03.063-.045" fill="#CAF1EF" mask="url(#f)"/></g><path d="M36.082 7.193c-.025.044-.043.088-.073.121-.011.012-.054-.007-.08-.011l.05-.137.103.027M33.888 5.462c.016-.004.034-.016.048-.012l.12.048-.137.111.001.007-.033-.16v.006zM39.978 12.347c-.001.032 0 .064-.005.098-.002.012-.02.026-.032.039-.013-.02-.04-.046-.034-.06.016-.028.05-.05.076-.075l-.005-.002zM25.541 29.66l-.043.041c.01-.013.025-.037.025-.037l.044-.043-.026.039zM30.14 6.13c.037.016.077.026.109.05.014.01.009.053.014.081-.025-.002-.06.009-.069-.005-.023-.037-.034-.086-.049-.13l-.005.004zM35.264 9.41l.037-.019.013.067-.035.016-.015-.064M33.735 8.388l.016-.039c.01.001.028-.002.032.006.003.008-.01.025-.015.038l-.033-.005zM20.94 21.662a.15.15 0 0 1 .03.03l-.03.021c-.01-.01-.022-.02-.028-.032l.029-.02M20.66 21.156l-.044-.03.042-.024c.016.01.032.02.044.032l-.042.022M33.205 14.891c.003-.009.003-.018.011-.024.008-.007.025-.008.04-.011-.003.008-.002.018-.01.024-.01.006-.027.008-.041.011M33.53 16.186l.01.02-.07.01c.005-.009.007-.017.018-.023.01-.005.029-.005.043-.007M38.326 26.139l.015.093c.001.012-.008.026-.014.04-.011-.019-.033-.04-.03-.053.005-.03.022-.054.036-.08h-.007zM32.577 21.711l-.025-.025.04.012zM32.74 16.937l-.031.02-.057-.014.076-.025z" fill="#CAF1EF"/><path d="M30.145 6.127c-.025-.01-.055-.013-.075-.029-.012-.008-.01-.04-.014-.062.013.006.028.009.035.02.02.022.034.049.05.074l.004-.003zM24.764 28.174l-.045-.003.009-.075.044.003-.008.075M35.937 10.275c.019.02.037.041.044.067.004.013-.02.038-.03.059-.006-.012-.018-.023-.018-.036l.01-.091h-.006zM36.471 7.81c.032 0 .069-.008.096.004.023.01.035.04.051.062-.026.008-.056.026-.078.02-.03-.007-.05-.032-.075-.05l.006-.036zM32.981 12.78l-.012.026-.016-.007zM37.071 8.404l.013-.038c.024 0 .047.004.071.007l-.014.039a.438.438 0 0 1-.07-.008M20.854 21.45l.021.015-.037.01zM39.618 12.18c.018-.002.04-.008.05-.002.009.007.002.027.001.043-.017 0-.04.008-.049.001-.008-.007-.002-.027-.002-.043M33.107 14.393l.012.014-.033.012zM33.471 15.958l.037-.01c.007.004.004.013.005.019a2.661 2.661 0 0 0-.038.011c-.007-.004-.003-.013-.004-.02" fill="#CAF1EF"/><g transform="translate(39.882 20.946)"><mask id="h" fill="#fff"><use xlink:href="#g"/></mask><path d="M.525.364C.541.364.563.356.572.361.58.368.579.386.582.4.567.4.546.408.537.402.526.396.528.377.526.364" fill="#CAF1EF" mask="url(#h)"/></g><path d="M21.313 22.158c.098-.008.186-.013.046.09l.006.001-.048-.095-.004.004zM31.746 21.803l-.003-.085.061.012c.046.06.013.077-.063.07l.005.003zM32.887 21.026l-.037-.012.022-.008zM33.452 19.12l.014.017-.037-.004zM21.598 22.474l-.052.02.047-.016zM21.616 22.524l-.021.052c-.002-.007-.009-.012-.005-.02.006-.01.018-.02.028-.032h-.002zM21.317 22.154l-.05-.012c.01.001.022 0 .028.002.008.003.012.01.018.014l.004-.004zM33.194 14.68l-.02-.01.033-.014zM18.924 35.74l-.074-.025c.013-.002.026-.007.037-.003.014.006.024.02.036.029h.001zM32.134 14.54l-.025-.038h.003l.012.019.008.021zM31.019 24.6l-.002-.005.002.004z" fill="#CAF1EF"/><path fill="#CAF1EF" d="M21.593 22.478l.022.046h.003l-.02-.05zM22.538 23.796l-.002.006.002-.006zM30.7 23.276l-.05.089v.002l.052-.09zM21.36 22.248l-.11.057.011-.015.104-.041z"/><path fill="#CAF1EF" d="M21.25 22.305l-.023-.007.035-.008zM30.336 9.555l.004-.004-.004.004zM32.651 19.663l-.004-.002.004.002zM32.11 22.314l.002.004-.003-.004zM32.514 21.483l.002.003-.002-.003zM32.881 17.67l.004-.001-.004.002zM39.319 24.445l-.003-.005.003.005zM23.39 4.316l-.005-.002.004.002z"/><g transform="translate(39.882 11.534)"><mask id="j" fill="#fff"><use xlink:href="#i"/></mask><path d="M.1.815L.096.814l.006.001z" fill="#CAF1EF" mask="url(#j)"/></g><path d="M15.774 37.38l-.098.058c-.04.02-.07.018-.097-.023-.01-.015-.035-.016-.054-.024-.022.058-.056.061-.103.022-.035-.029-.064-.048-.039-.109.02-.052-.06-.053-.089-.085-.013-.015-.027-.052-.021-.056.02-.016.05-.038.071-.032.056.014.108.04.176.069-.08-.174-.08-.174-.08-.3.107.02.207.115.318.031-.004-.056-.052-.04-.084-.048-.11-.027-.165-.106-.2-.203-.022-.06.023-.11.083-.094.07.019.138.073.218.004-.02-.011-.036-.02-.052-.033-.057-.047-.066-.096-.012-.127.09-.051.185-.103.284-.13.08-.024.165-.017.202-.114.006-.014.042-.03.06-.024.126.038.229-.056.351-.059.088-.002.174-.04.268-.011.03.01.07-.013.107-.019.036-.006.074-.022.11-.015.22.041.436.024.651-.024.014-.004.031-.01.045-.006.181.046.361-.01.543-.008.294.004.59-.024.884-.044.07-.005.136-.016.198.02.088.05.175.045.26.007a.5.5 0 0 1 .286-.021c.148.021.3.025.449.034a.177.177 0 0 0 .087-.016c.07-.035.142-.026.218-.025l.83-.018.45-.02c.314-.005.63-.022.945-.001.21.013.417-.025.627-.013.202.01.405-.015.607 0 .18.012.358.027.536-.016.041-.01.09.001.135.001l.403-.01.658-.003c.633-.033 1.197.141 1.633.531.073.065.124.153.188.223.168.186.262.42.383.634.038.064.059.158.07.24.043.266.011.66.017.844 0 .153.01.308.026.461.006.06.014.129-.01.178-.052.104-.037.202-.01.304.02.067-.007.13-.01.195-.002.055.042.112.048.17a.527.527 0 0 1-.016.19 1.099 1.099 0 0 0-.03.372c.026.397-.062.789-.154 1.17a7.955 7.955 0 0 1-.267.928 7.619 7.619 0 0 1-1.003 1.85l-.17.24c-.053.072-.1.147-.157.215a7.56 7.56 0 0 1-1.345 1.225c-.15.111-.299.228-.461.324-.106.067-.219.12-.334.17-.08.036-.172.06-.237.114-.186.143-.406.221-.622.304-.142.052-.278.12-.423.166-.23.073-.46.144-.698.187-.226.054-.46.065-.687.098l-.772.062c-.169.017-.337.004-.506-.004-.4-.022-.799-.071-1.192-.154a8.427 8.427 0 0 1-.924-.265 7.156 7.156 0 0 1-1.031-.437c-.467-.243-.9-.571-1.307-.899-.697-.544-1.2-1.27-1.655-2a5.08 5.08 0 0 1-.327-.69 5.39 5.39 0 0 1-.202-.541.53.53 0 0 1-.034-.2.345.345 0 0 0-.072-.241.385.385 0 0 1-.082-.341c.018-.075-.009-.17-.027-.253a8.117 8.117 0 0 1-.14-1.41c-.002-.122.015-.216.023-.325l.01-.117.01-.201.03-.914c.008-.173 0-.248.025-.55.016-.281.201-.697.386-.886.258-.322.68-.475.973-.42.1.012.203.023.303.045.14.035.165.064.116.158a.67.67 0 0 0-.073.427c.013.077-.066.091-.083.152.055.072.116.14.097.255-.002.02.04.063.053.102.02.066.012.121-.011.135-.015.01-.035.009-.049.023a.086.086 0 0 0-.031.06c0 .046.013.096.017.092l-.007-.016c.009.008-.027-.03.016.015l.002.005c.01.033.013.063.026.074.05.037-.102-.062-.102-.062-.052-.036-.124-.04.062.002l.11.02v.003c.001.006.003.015.009.027.055.214.037.526.065.784.002.023.01.047.003.068-.057.157-.011.312.003.47.004.034.01.08.013.116.008.08.01.16-.024.24-.013.03.005.073.01.11.005.054.023.087.026.132a5.817 5.817 0 0 0 .306 1.44l.018.053c.078.301.206.587.364.854.115.203.236.403.37.592.235.335.502.643.802.912.01.009.016.02.028.025.292.192.542.425.846.59.134.063.266.135.404.186l.203.097.212.07c.131.05.274.074.408.118l.215.057c.065.015.132.03.2.038.2.038.402.061.605.082.234.015.468.02.702.005.1-.01.197-.024.293-.048.12-.036.235-.071.365-.051a.21.21 0 0 0 .108-.021c.14-.075.293-.093.44-.143.145-.045.284-.112.426-.167l.315-.15c.235-.12.47-.238.68-.396.23-.162.427-.368.624-.568.097-.11.203-.213.298-.328.026-.032.065-.054.095-.084.037-.04.079-.079.108-.125.02-.03.026-.071.049-.1.206-.256.311-.57.485-.846.04-.068.064-.146.095-.219l.084-.223.039-.121.075-.186c.027-.06.034-.133.074-.185.083-.108.083-.227.043-.352a.245.245 0 0 1 .006-.145c.038-.086.033-.178.047-.267.029-.169.046-.33.088-.509.02-.123-.007-.24-.01-.358 0-.085-.062-.179.03-.254.008-.007.01-.03.004-.042-.077-.147-.05-.3-.025-.455.002-.013 0-.032-.008-.042-.089-.098-.051-.22-.016-.307.042-.008.058-.036-.004-.025-.056.011-.063.026-.001-.026.045-.04.033-.055-.006-.022-.043.038-.042.044-.026.004l.003-.016c-.015.016-.028-.012-.031.022.003.007.008.014.011.017l-.11.005c-.074 0-.147-.006-.223-.018a1.19 1.19 0 0 0-.336-.018c-.093.014-.176.043-.279.025-.084-.015-.176.005-.264-.028-.028-.01-.076 0-.103.018-.09.063-.175.064-.273.01a.305.305 0 0 0-.218-.027c-.325.064-.654.043-.983.042-.044-.001-.088-.017-.133-.025-.029-.004-.076-.02-.084-.007-.072.094-.17.03-.252.044-.095.017-.195.002-.292-.002l-.271-.016c-.174-.013-.35-.052-.523.01-.037.015-.089.005-.13-.009-.095-.03-.189-.054-.284-.004-.006.002-.014.008-.02.006-.203-.062-.394.052-.598.027-.177-.021-.359.005-.538.003-.097 0-.194-.012-.291-.026a31.186 31.186 0 0 0-.331-.062c-.028-.005-.065 0-.083.016-.084.079-.174.082-.273.035-.08-.037-.15-.033-.238.002a.614.614 0 0 1-.401.022c-.073-.02-.15-.024-.225-.04-.056-.013-.106-.01-.152.021-.077.054-.156.042-.239.007-.092-.04-.187-.073-.284-.018-.25-.017-.5-.009-.747-.064-.033-.007-.065-.039-.089-.066-.03-.039-.058-.07-.113-.046-.042.02-.046.053-.042.094 0 .014-.023.04-.038.042-.017.003-.04-.013-.055-.026-.009-.008-.009-.027-.01-.042-.004-.023.002-.058-.01-.066-.087-.059-.11-.136-.082-.232-.079-.067-.03-.116.019-.168.008-.009.006-.028.012-.058l-.394-.051c-.094-.01-.108-.018-.088-.103l.026-.088c.008-.026.018-.053.021-.08 0-.009-.019-.018-.029-.029-.007.01-.022.021-.02.028.008.029.02.055.03.082M20.899.201c.086-.023-.075-.047-.029-.142.008-.013.048-.026.065-.02.135.045 1.195-.041 1.327-.036.096.005.192-.02.29.021.032.012.078-.004.119-.005.04-.002.084-.013.12-.002.233.064.464.097.706.085.016 0 .035-.004.05.001.185.083.386.075.58.118.317.082.616.13.955.22.213.065.424.118.595.226.244.143.505.24.773.321.298.078.559.222.841.375.41.241.824.486 1.22.752.075.054.165.107.24.144.21.094.39.237.582.383a16.13 16.13 0 0 1 1.997 1.751c.356.326.64.717.959 1.08.326.387.59.826.884 1.24.26.435.503.882.727 1.334.265.626.576 1.217.759 1.87.217.613.36 1.256.49 1.89.066.58.166 1.141.222 1.714.018.135.014.288.023.433.044.433.003.868 0 1.303-.018.627-.113 1.252-.21 1.871-.185.97-.432 1.932-.811 2.847l-.21.455c-.142.408-.41.757-.557 1.164a2.598 2.598 0 0 1-.2.386l-.841 1.23c-.266.352-.494.69-.695 1.058-.082.137-.166.306-.252.41-.189.218-.293.467-.389.724-.057.175-.16.316-.228.476-.058.14-.079.296-.128.444-.047.15-.113.306-.178.448a3.876 3.876 0 0 0-.26.801c-.184.874-.342 1.752-.393 2.646l-.013.553a3.89 3.89 0 0 1-2.34 3.569c-.292.128-.598.218-.912.272a4.684 4.684 0 0 1-.862.054l-2.642-.011-.734.005c-.22.006-.45.01-.667.015l-4.547-.025-1.401.01c-.338-.007-.542.004-1.046-.042-.316-.037-.637-.134-.919-.218-.796-.236-1.478-.796-1.935-1.487a3.96 3.96 0 0 1-.605-1.503 3.902 3.902 0 0 1-.057-.646l-.01-.414c-.012-.274-.022-.548-.051-.82a11.593 11.593 0 0 0-.231-1.566 10.571 10.571 0 0 0-.52-1.69c-.151-.358-.299-.71-.468-1.058-.2-.412-.429-.809-.673-1.195-.249-.401-.52-.713-.828-1.193a15.423 15.423 0 0 1-1.287-2.29c-.405-.933-.761-1.89-.962-2.888a14.749 14.749 0 0 1-.29-4.258c.125-2.377.964-4.671 2.18-6.699.38-.588.79-1.155 1.258-1.676.326-.42.726-.772 1.1-1.145.13-.132.28-.262.426-.351a3.58 3.58 0 0 0 .54-.445c.227-.237.47-.426.783-.568.173-.085.407-.226.606-.353A14.987 14.987 0 0 1 16.475.6c.317-.1.644-.162.967-.237l.574-.1a15.399 15.399 0 0 1 1.927-.19c.22-.006.485-.114.667.004.058.038.122.067.183.1.085.045.113.064.082.158-.046.136-.022.485-.062.626.005.078-.002.065-.012.154-.002.114-.014.094-.024.222-.01.019-.016.017.002.058-.018.058-.04.164-.11.177-.042.008-.088.003-.13.014a.406.406 0 0 0-.141.049c-.069.043-.132.092-.216.094a.108.108 0 0 0-.04.013c-.229.134-.227.134-.423.152-.056.006-.114.009-.168.025-.243.093-.502.093-.746.168-.02.006-.043.018-.062.014-.155-.03-.293.034-.433.081-.01.016-.454.132-.758.164-.082.01-.194.054-.29.088l-.407.146A12.828 12.828 0 0 0 12.672 4.9l-.138.12c-.394.307-.724.694-1.087 1.042-.315.39-.658.761-.929 1.184a13.03 13.03 0 0 0-1.13 1.967 12.04 12.04 0 0 0-1.075 3.83l-.02.12c-.055 1.147-.064 2.3.127 3.433.121.477.188.965.36 1.426l.215.705.289.676c.162.441.427.835.634 1.255.114.216.254.409.38.614.127.19.226.36.38.565.462.607.903 1.296 1.27 1.99a15.16 15.16 0 0 1 1.043 2.524c.115.365.222.736.318 1.104.128.465.221.934.246 1.415.007.136.018.293.042.427.057.294.072.595.091.895.01.303.001.643.02.744a1.585 1.585 0 0 0 1.39 1.37c.08.008.112.01.23.013l.358.002 1.435.004 3.07-.032h1.605l.462.018.592.008.396-.02c.59.008 1.18-.004 1.768-.014l.884-.01h.22l.123-.004c.083-.006.165-.014.247-.03.16-.033.312-.109.446-.199.138-.088.26-.196.363-.32.054-.069.098-.144.142-.22.07-.115.127-.241.168-.373.039-.145.043-.252.069-.435.065-.494.05-.932.042-1.396a2.684 2.684 0 0 1 .05-.57l.2-1.065c.145-.66.36-1.302.615-1.914.15-.366.269-.719.425-1.07.109-.25.186-.549.384-.719a.44.44 0 0 0 .062-.116c.159-.455.433-.87.73-1.265a.459.459 0 0 0 .069-.116c.106-.328.355-.57.56-.813.232-.284.45-.576.6-.936.11-.327.275-.664.504-.941.148-.212.247-.456.3-.702a4.94 4.94 0 0 1 .266-.782c.024-.053.053-.11.067-.164a8.18 8.18 0 0 0 .297-1.29c.072-.409.08-.796.166-1.194.064-.295.062-.612.064-.91 0-.252-.025-.477-.032-.754.002-.229-.032-.475-.01-.717a.79.79 0 0 0-.058-.272 1.552 1.552 0 0 1-.117-.73c.018-.186-.042-.379-.102-.585a18 18 0 0 0-.908-2.496c-.045-.11-.08-.225-.135-.33-.034-.072-.082-.189-.106-.205-.177-.127-.247-.387-.368-.578-.15-.206-.293-.432-.437-.654a4.875 4.875 0 0 0-.422-.593c-.284-.377-.557-.768-.95-1.047a1.516 1.516 0 0 1-.24-.255 1.956 1.956 0 0 0-.568-.525c-.016-.01-.038-.02-.05-.031-.385-.4-.875-.624-1.321-.945a9.243 9.243 0 0 0-1.264-.714l-.7-.347c-.27-.123-.534-.26-.814-.364-.09-.033-.113-.037-.133-.026-.095.05-.173.03-.247-.036-.058-.056-.122-.069-.206-.056a.562.562 0 0 1-.356-.064c-.06-.035-.127-.053-.188-.083-.046-.023-.09-.03-.14-.008-.078.038-.144.017-.21-.03-.076-.054-.155-.1-.25-.061-.22-.051-.445-.064-.66-.143-.029-.009-.055-.042-.073-.071-.025-.04-.988-.073-1.04-.052-.04.018-.046.05-.046.091 0 .015-.023.04-.037.041-.015.002-.036-.015-.049-.03-.006-.009-.004-.028-.005-.043-.002-.023.005-.057-.004-.066-.074-.063-.093-.142-.061-.237-.07-.071-.021-.117.027-.165.008-.009.008-.028.015-.059-.124-.027.093-.085-.033-.098L20.9.2z" fill="#333"/></g></svg>
