<svg width="48" height="48" xmlns="http://www.w3.org/2000/svg" xmlns:xlink="http://www.w3.org/1999/xlink"><defs><path id="a" d="M.025.699h17.19v6.623H.024z"/><path id="c" d="M.382.138H1.89v.676H.382z"/><path id="e" d="M.476.65h.7v.814h-.7z"/><path id="g" d="M.692.434h.485v.814H.692z"/><path id="i" d="M.287.117h.062V.93H.287z"/><path id="k" d="M.723.702h.454v.814H.723z"/><path id="m" d="M.09.563h.26v.814H.09z"/><path id="o" d="M0 .096h41.457v40.578H0z"/></defs><g fill="none" fill-rule="evenodd"><path d="M8.418 23.216c0-8.839 7.29-16.004 16.28-16.004 8.991 0 16.28 7.165 16.28 16.004 0 8.838-7.289 16.004-16.28 16.004-8.99 0-16.28-7.166-16.28-16.004" fill="#F1EBB2"/><path d="M8.314 28.656l-.012-.037.053.003-.041.034zm6.808 3.39l-.004.039-.043.008.047-.046zm24.308 7.642l.04.086-.06-.037.02-.05zM8.137 26.357l-.004-.034.04.01-.036.024zm1.646 6.988l-.07.022.035-.054.035.032zm34.893-1.443l-.087-.061c.02-.012.037-.03.06-.03.016 0 .04.027.061.041l-.034.05zm-32.76-1.617l.011.06-.034-.022.023-.038zm-2.584-1.94c.007.014 0 .033 0 .049-.017-.004-.042-.005-.046-.014-.008-.013 0-.032.002-.048.015.004.04.005.044.014zm-1.083 1.5l.112.006-.11.114-.059-.01.057-.11zm.253.676l-.081.044c-.014-.03-.03-.06-.04-.092l.054-.03.067.078zm.825 2.358c.008.015.007.037.01.056-.03-.005-.08 0-.09-.019-.025-.044-.033-.102-.047-.154l.043-.023.084.14zm-1.61-6.517l.057-.01.033.221-.057.011-.033-.222zm16.629 17.683l.003.077-.452.008v-.107l.449.022zm-12.55-12.096l-.03.02a2.017 2.017 0 0 1-.185-.275l.036-.011c.054.094.11.182.179.266zm-3.27-.711c.106.014.198.004.208.03.037.114.05.238.074.359l-.075.035c-.061-.127-.124-.252-.206-.424zm2.16-1.972l.05-.021.184.381-.049.024-.185-.384zm.391 1.224l.038-.02.255.418-.038.021-.255-.42zM33.27 42.308a9.273 9.273 0 0 1 1.253-.517l-1.292.742c-.009.004-.039-.03-.083-.064.043-.06.07-.136.122-.16zM7.783 27.38c.012-.046.113-.118.19-.141.174-.053.215.02.237.091.021.069.092.157.036.205-.094.08-.342.093-.284.249.043.113-.01.257-.019.388-.294-.212-.235-.51-.16-.792zm21.695 16.478c-.166.079-.33.177-.502.24-.348.121-.7.246-1.06.34-.27.072-.548.133-.825.142-.37.01-.745-.077-1.203-.135l.465-.201-.195-.263c2.149-.167 4.29-.56 6.274-1.374.054.136.073.166.072.19.001.026-.008.057-.024.07a.452.452 0 0 1-.118.07c-.473.178-.94.373-1.423.525l-1.464.403.003-.007zm-9.213.37l.016-.12c.122.027.247.044.37.066-.056-.161-.114-.321-.169-.476.714-.102 1.174.009 1.697.43.173.138.3.159.488-.072.11-.13.347-.096.511-.052.235.066.457.248.699.308.244.058.5.043.913.047-.449.35-.8.236-1.12.282-.346.044-.698-.016-1.045-.036a6.516 6.516 0 0 1-.972-.133c-.343-.079-.673-.202-1.004-.308l-.384.063zm-8.7-14.844c.249.049.264.196.18.395l.003.045.005-.046-.187-.394zm-3.633-.428c.271.072.243.225.137.41l.04.12c-.02-.004-.053-.004-.053-.014.001-.034.015-.071.025-.108l-.15-.408zm34.162 7.845l.028-.215c.003-.02.025-.035.038-.053.01.03.034.068.026.087-.026.063-.063.12-.097.181h.005zm-32.09-15.704l.036.038.079.126c-.018-.012-.049-.022-.052-.032-.012-.032-.013-.064-.018-.095l-.045-.037zm31.885 16.268h-.005.005zm-30.56-15.19l.395.112h-.002c.125-.2-.017-.409-.113-.623-.095-.191-.2-.395-.003-.594.22.212.277.377.332.542.028.083.036.168.105.246a.52.52 0 0 0 .275.111c.14 0 .33-.022.382-.063.075-.059.083-.143.052-.218a2.076 2.076 0 0 1-.146-.992c.055-.319.156-.63.244-.941.048-.217.154-.418.29-.6.164-.2.33-.394.509-.575.198-.173.392-.343.567-.516.227-.248.53-.445.811-.641.273-.2.546-.387.821-.567.298-.217.611-.385.737-.731.033-.11.11-.175.383-.023.185.102.253.052.214-.093-.052-.183.003-.282.215-.187.511.23.682.085.858-.068.071-.066.157-.096.311-.052.186.05.34.045.434-.026.088-.066.121-.202.293-.156.059.017.021-.16.008-.264-.016-.112-.098-.3.043-.225l-.002-.005c.197.37.282.476.379.47.146-.009.274-.042.405-.066.304-.082.679.013.935-.115.24-.131.557-.046.777-.229.226-.195.585.041.841-.026.218-.066.463.002.69.017.184.013.356-.043.54-.02.147.024.295.11.435.106.307-.033.613.013.919.026.311-.014.602.081.904.103.168.007.34-.008.508.015.104.012.206.045.305.08.066.025.116.1.189.098.365.029.743.079 1.047.289.093.052.207.062.317.083.15.017.324.006.428.113.164.168.404.209.629.289.22.08.462.148.667.268.276.243.755.292 1.003.592.118.131.278.228.43.334.149.11.255.258.316.434.018.056.09.077.152.105.235.094.379.26.524.423.135.17.312.323.444.5.179.212.23.485.522.655.037.024.03.076 0 .127-.077.14.035.196.152.261.101.055.144.14.195.219.076.105.12.221.155.34l.215.585c.03.078.041.16.06.241.066.23.147.461.229.695.105.274.091.567.18.851.108.316.12.642.123.967-.003.145-.005.277.225.433.16.115.112.209-.036.31-.297.201-.426.422-.442.676-.067.33.135.735-.027 1.062-.211.317-.172.73-.351 1.063-.098.177-.195.34-.17.579a.532.532 0 0 1-.255.545c-.226.143-.325.35-.408.577-.103.208-.203.413-.303.619-.128.307-.47.434-.515.823-.015.104-.134.129-.201.191-.127.12-.348.15-.4.333-.065.2-.209.322-.348.446-.145.116-.304.212-.381.416a.35.35 0 0 1-.242.209c-.282.095-.556.164-.684.494-.036.083-.18.012-.147.214.033.205-.063.2-.192.129-.209-.128-.3-.02-.408.054-.24.15-.437.42-.726.473-.237.047-.373.37-.662.27-.123.297-.379.215-.592.239-.031.004-.043.092-.064.14l-.011.066.015-.058c-.288-.213-.49-.178-.65.16a.98.98 0 0 0 .106.046c-.008.01-.016.032-.024.026-.026-.018-.054-.053-.08-.082-.145-.05-.294-.149-.425-.141-.33.006-.646.074-.972.124-.232.05-.462.114-.693.399-.195.254-.432.398-.669.278-.084-.043-.179-.002-.27.02-.206.043-.42.152-.63.15a.962.962 0 0 1-.416-.111c-.072-.034-.139-.12-.036-.4.051-.14.029-.253-.022-.28-.134-.074-.268-.113-.485.128.077.065.13.097.174.151.017.02.028.09.02.143-.004.046-.042.137-.058.141a.776.776 0 0 1-.281.047c-.127-.022-.244-.083-.373-.104-.286-.048-.582-.075-.871-.13l-.86-.215c-.05-.01-.067-.101-.112-.125-.293-.18-.54-.412-.999-.24-.088.033-.175.046-.141-.115.039-.187-.006-.25-.07-.3-.3-.21-.517-.529-.902-.608-.209-.067-.485-.08-.491-.423-.001-.048-.063-.043-.096-.063-.298-.164-.542-.396-.829-.582-.163-.108-.308-.238-.462-.36a1.088 1.088 0 0 0-.549-.286c-.098-.02-.1-.152-.11-.255-.012-.129-.055-.22-.22-.216-.253 0-.348-.15-.455-.285-.074-.093-.122-.218-.274-.24-.23-.036-.245-.218-.361-.33-.078-.068-.047-.189.155-.362.18-.154.147-.224.062-.267l-.242-.121c-.084.028-.171.063-.248.081-.026.006-.024-.031-.034-.05.026-.006.058-.018.08-.019l.197-.005c.104-.185.059-.28-.159-.29a1.408 1.408 0 0 1-.356-.04c-.162-.056-.1-.182.206-.447-.058-.105-.456-.022-.337-.234l.284-.033c.029-.048.084-.104.083-.139-.002-.093.023-.206-.249-.15-.3.06-.34-.04-.343-.152-.012-.192.022-.397-.032-.569-.054-.176-.119-.348-.161-.527l-.111-.541a7.399 7.399 0 0 0-.142-.531c-.041-.18-.072-.36-.126-.537-.013-.05.036-.135-.228-.117-.083.26.015.497-.21.77-.74-.061-.724-.42-.914-.704-.024.322-.063.651-.052.973l.078.968c.01.35.151.658-.016 1.066.335.182.335.475.384.839-.397-.203-.433-.394-.373-.84l-.182-.514c-.156-.505-.243-1.029-.38-1.537-.012-.096.033-.217-.3-.242-.047.116-.118.214-.115.3.038.32-.062.679.14.97-.183.528.186.92.256 1.39.01.064.022.126.023.193a.153.153 0 0 1-.033.107.379.379 0 0 1-.144.096c-.051.015-.136.013-.148-.007a.715.715 0 0 1-.118-.263c-.163-.844-.353-1.649-.636-2.45a1.909 1.909 0 0 0-.429-.805c-.155-.173-.276-.348-.303-.548l-.066-1.357c-.005-.073-.049-.146-.073-.22-.158.163-.176.328-.213.493-.042.186-.1.375-.153.566-.048.173-.112.349-.14.524-.027.16.055.314.013.472-.04.166-.164.337-.256.51-.023.044-.067.088-.102.132-.07-.026-.2-.044-.205-.082-.03-.27-.034-.54-.045-.811.007-.416.042-.83.055-1.242.001-.023-.068-.047-.106-.07-.048.022-.13.041-.14.068-.099.269-.189.542-.273.822-.175.506-.185 1.015-.348 1.543-.08.317-.139.632-.079.938.074.478.2.952.158 1.459-.022.65.074 1.292.186 1.937.159.626.36 1.25.554 1.887.231.592.501 1.18.782 1.763.327.58.638 1.186 1.007 1.756.39.55.759 1.137 1.209 1.657.521.599 1.062 1.202 1.682 1.718.132.118.265.223.235.485-.005.048.085.116.12.096.38-.21.47.105.66.225.453.304.879.656 1.337.968.542.34 1.114.636 1.681.948.573.297 1.18.529 1.775.794.143.058.26.19.396.27l-.006-.012c.34.103.68.21 1.025.3.253.065.251.293.183.584l-1.383-.361c-.449-.145-.887-.313-1.327-.474-.085-.032-.183-.062-.234-.14-.065-.097-.086-.241-.125-.366l.002.008a.555.555 0 0 0-.501.154c-.041.04-.102.108-.103.15 0 .081.012.198.057.223.51.23 1.035.432 1.558.642.592.263 1.226.407 1.845.605.621.203 1.26.323 1.899.448.371.07.74.211 1.117.218.406-.007.8.008 1.201.089.327.063.664.061.996.094.164.006.33.03.495.065.206.044.212.126.028.467l.005-.008c.09.038.18.106.27.109.406.012.812.004 1.22-.006.046-.002.091-.027.137-.044.111-.043.112-.233-.005-.37-.054-.065-.128-.098-.192-.144-.101.048-.202.104-.31.137-.023.008-.064-.064-.097-.1.025-.038.052-.113.077-.11.112.015.223.052.335.082.398-.28.778-.504 1.279-.388.324.066.656-.094.98-.166.185-.035.357-.138.541-.17.396-.065.81-.071 1.205-.161.612-.12 1.23-.286 1.755-.614.488-.305.975-.45 1.557-.435l.156.34c.08-.05.178-.078.23-.156.05-.078.1-.216.065-.309-.128-.354.05-.432.22-.515.694-.312 1.316-.747 1.984-1.105.397-.206.812-.386 1.21-.602v-.004c.333-.49.649-.743.766-.613l-.07.238c.105-.003.176-.018.252-.006.638.11 1.032-.175 1.374-.6.235-.3.485-.583.74-.862.24-.293.478-.583.717-.872.242-.303.509-.585.748-.89.232-.31.46-.621.673-.945.158-.242.31-.487.457-.734l.386-.776c.242-.524.53-1.015.755-1.543.366-.8.755-1.59.994-2.437.13-.419.255-.838.357-1.26.078-.432.142-.865.188-1.298.027-.262.065-.522.107-.779l.084-.782c.058-.52.143-1.036.176-1.555.015-.728.044-1.454.034-2.177-.05-.724-.1-1.447-.19-2.163-.204-1.088-.436-2.165-.83-3.195l-.287-.806-.358-.778c-.255-.512-.464-1.039-.77-1.52-.17-.29-.308-.599-.484-.886-.273-.482-.617-.918-.947-1.357-.33-.442-.662-.875-1.044-1.27-.164-.185-.327-.365-.49-.55-.393-.465-.862-.864-1.305-1.28-.435-.424-.92-.793-1.402-1.156-.768-.623-1.623-1.132-2.47-1.62-.835-.391-1.663-.765-2.532-1.035-.95-.366-1.886-.858-2.953-.812-.066.008-.126-.02-.188-.03-.925-.148-1.836-.29-2.758-.323-.739-.076-1.478-.052-2.21-.023-.732-.006-1.456.114-2.18.167-.735.045-1.46.209-2.192.297-.723.141-1.445.31-2.156.507-.292.1-.582.203-.886.265l-.813.166-.795.232c-.532.16-1.078.306-1.59.533-.097.04-.209.07-.274.153-.09.116-.224.26-.187.42.067.288.298.194.453.303.019.013.035.046.075.1-.17.1-.317.232-.506.292-1.033.38-2.088.815-3.097 1.372-.516.25-.885.663-.96 1.28-.034.292-.303.405-.374.67-.039.127-.307.137-.475.201-.664.27-1.12.766-1.244 1.453.452-.325.713-.839 1.346-.974-.002.12-.026.226-.103.279-.333.232-.58.53-.6.962-.005.086-.05.156-.092.223-.213.338-.436.672-.635 1.019-.033.057-.01.18.062.243.069.062.223.093.331.11.107.018.206-.034.335.14-.15.447-.308.918-.466 1.383-.063.173-.147.34-.212.515-.064.153-.194.29-.2.457-.007.16.107.348.17.517l-.178.017c-.626.072-.777.269-.472.689.19.266.263.505.29.762.035.291.145.573.368.831.242.262.589.497 1.067.698-.25.41.206.826.553 1.201a.73.73 0 0 0 .375.156c.212.013.166-.096.18-.167.023-.08-.092-.202.295-.203.15.213.624.371.721.602l.002.001z" fill="#F1EBB2"/><g transform="translate(23.345 39.768)"><mask id="b" fill="#fff"><use xlink:href="#a"/></mask><path d="M17.214.699c-.15.714-.636 1.03-1.107 1.323-.19.127-.418.207-.58.36-.233.22-.47.43-.723.62a4.49 4.49 0 0 1-.85.448c-.446.174-.825.5-1.206.804-.624.453-1.326.779-2.03 1.099l-2.2.864c-.75.24-1.509.476-2.274.688-.203.041-.416.08-.623.052-.512-.067-.98.056-1.463.176-.504.136-1.023.175-1.538.188-.402.004-.804-.01-1.203-.032-.398-.04-.797-.103-1.191-.157-.045-.007-.084-.062-.2-.156l.768-.148c.786-.105 1.554-.183 2.348-.065.152.02.31.05.455.02a23.595 23.595 0 0 1 2.13-.448c.712-.115 1.414-.309 2.112-.493.764-.19 1.5-.479 2.235-.755.474-.176.887-.48 1.33-.712.53-.29 1.109-.49 1.598-.846.718-.497 1.552-.838 2.133-1.512a.484.484 0 0 1 .183-.128c.653-.238 1.195-.651 1.632-1.172.025-.029.1-.007.264-.018" fill="#F1EBB2" mask="url(#b)"/></g><path d="M5.978 26.113c.015.205.037.338.034.474-.03.67.064 1.332.103 2.017.062.678.213 1.344.332 2.03.093.43.238.847.365 1.274.401 1.297.976 2.557 1.669 3.771.108.186.169.396.166.702-.79-.193-1.148-.716-1.23-1.384-.037-.26-.124-.47-.31-.649-.158-.15-.245-.36-.332-.56-.098-.222-.125-.48-.245-.684-.206-.36-.272-.773-.31-1.191-.016-.21-.197-.373-.29-.565-.073-.153-.15-.307-.168-.48-.074-.59-.115-1.179-.168-1.75-.01-.823-.056-1.617.013-2.409.017-.184.048-.372.371-.596M11.4 39.896c-.443-.352-.753-.708-1.099-1.024-.198-.184-.452-.314-.642-.507-.387-.403-.639-.923-.828-1.455-.012-.031.047-.141.069-.147.077-.021.193-.05.225-.016.225.24.45.48.647.745.4.524.849 1.012 1.278 1.531.127.156.25.32.364.49.037.058-.004.182-.013.383M12.334 22.406c.098-.025.192-.07.283-.063.103.008.29.067.289.092-.01.241.171.472.395.684.026.024-.024.077-.086.093a.615.615 0 0 1-.249-.024c-.143-.081-.3-.167-.37-.263-.116-.16-.17-.33-.262-.52M15.49 30.756c-.328-.07-.544-.258-.825-.396-.028-.015.028-.1.046-.152.099-.041.242-.125.288-.117.147.024.29.054.37.128.12.108.176.266.272.394l-.151.143zM12.024 40.694c-.037-.22-.2-.377-.097-.705.558.133.743.632 1.045 1.028-.326.015-.687.079-.757-.343-.004-.027-.13.013-.2.023l.01-.003z" fill="#F1EBB2"/><g transform="translate(20.034 46.277)"><mask id="d" fill="#fff"><use xlink:href="#c"/></mask><path d="M.382.193C.917.078 1.4.156 1.89.304c-.058.326-.237.29-.378.299C1.089.628.772.28.382.193" fill="#F1EBB2" mask="url(#d)"/></g><path d="M14.056 7.371c-.258.422-.584.4-1.043.402.195-.468.477-.61 1.043-.402M35.545 42.485c.057-.005.175-.026.299-.022.033.001.098.072.122.123.023.05.036.144.012.164-.088.081-.181.168-.294.196a.491.491 0 0 1-.356-.052c-.099-.06.003-.275.217-.41M43.084 37.578c.056.37-.036.578-.218.726-.051.043-.162.08-.22.05-.164-.081-.121-.198-.067-.279.123-.175.163-.417.505-.497M41.991 39.218c-.088.093-.149.173-.226.23-.031.024-.1 0-.152-.003-.017-.075-.07-.176-.045-.217.088-.145.192-.279.31-.395.04-.038.148-.01.225-.014.012.094.05.2.027.278-.019.065-.107.096-.139.12M45.509 33.483c-.034-.383.235-.617.312-.929.254.065.229.179.197.264-.1.263-.213.526-.51.665M44.307 35.914c-.128-.36.006-.513.168-.655.029-.025.103-.01.158-.013.025.065.09.156.065.192-.1.15-.226.283-.391.476M45.278 34.084c-.025.284-.09.546-.327.8-.05-.455-.047-.447.327-.8M13.709 41.708c-.196-.047-.333-.065-.449-.12-.034-.015-.036-.154-.004-.2.044-.063.146-.132.202-.13.19.005.227.167.25.45M36.66 42.118c.019-.087.03-.192.066-.277.014-.03.09-.012.137-.017.02.083.066.181.05.246-.014.065-.09.097-.142.135-.007.005-.046-.034-.111-.087M43.693 36.67c.003-.155-.022-.237.01-.283.054-.083.156-.126.283-.012.032.027.038.12.013.142-.065.053-.155.082-.306.154M30.766 44.59c.078.077.163.12.187.186.05.153-.03.23-.135.21-.052-.01-.134-.113-.144-.178-.011-.062.051-.13.092-.218M23.464 34.815l-.052-.196c.03-.041.062-.099.092-.116.014-.008.03.055.046.085l-.086.227M31.791 44.689l.301-.32c.007-.006.05.024.06.045a.13.13 0 0 1 .007.087c-.07.19-.226.178-.375.18l.007.008zM18.518 43.03c-.013.06-.017.123-.039.18-.058.145-.149.18-.229.113-.026-.02-.043-.129-.034-.138a.67.67 0 0 1 .176-.135c.04-.018.087-.007.132-.008l-.006-.012zM11.329 22.174c-.027.056.067.145-.176.145-.021 0-.064-.016-.071-.027-.074-.101.096-.106.245-.12l.002.002zM11.722 22.287c.086.022.192.037.251.065.045.022.032.064.044.097-.075-.014-.18-.022-.219-.046-.052-.031-.052-.076-.074-.116h-.002zM12.724 7.951c-.035.061-.048.129-.092.15-.033.015-.107-.028-.163-.045.032-.046.057-.103.1-.133.025-.017.083.012.155.028M43.486 36.946c-.015.075-.018.157-.052.222-.015.027-.093.016-.142.02-.006-.047-.036-.12-.014-.138.056-.044.138-.064.211-.095l-.003-.009zM18.16 44.897c.037-.015.075-.034.11-.038.009-.002.025.055.019.066-.026.038-.06.067-.092.1l-.038-.128z" fill="#F1EBB2"/><g transform="translate(46.517 28.379)"><mask id="f" fill="#fff"><use xlink:href="#e"/></mask><path d="M.476.829L.527.65c.001-.004.046.004.07.007a2.17 2.17 0 0 1-.033.18L.476.828" fill="#F1EBB2" mask="url(#f)"/></g><path d="M31.784 44.68c-.064.07-.126.145-.195.204-.008.007-.068-.072-.097-.12-.007-.012.012-.069.025-.07.09-.007.182-.004.274-.005l-.007-.008zM40.908 40.014l.067.009-.02.096c-.022-.015-.053-.027-.062-.045-.008-.018.008-.04.015-.06" fill="#F1EBB2"/><g transform="translate(46.517 27.565)"><mask id="h" fill="#fff"><use xlink:href="#g"/></mask><path d="M.795.474L.75.516C.73.503.696.49.692.476.688.465.717.45.732.435l.063.04z" fill="#F1EBB2" mask="url(#h)"/></g><path d="M29.614 45.068l.01-.09.098.055c-.014.022-.025.058-.044.066-.016.006-.043-.02-.064-.03M4.667 31.884c.023.007.055.009.07.022.014.014.01.04.014.062-.038-.006-.079-.009-.112-.022-.007-.002.017-.041.028-.062" fill="#F1EBB2"/><g transform="translate(47.345 25.124)"><mask id="j" fill="#fff"><use xlink:href="#i"/></mask><path fill="#F1EBB2" mask="url(#j)" d="M.301.117L.35.152.287.165z"/></g><path d="M23.159 34.487v.075c-.01.008-.025.025-.03.016-.005-.01-.002-.046-.002-.072l.032-.019zM28.626 45.428c.03-.037.06-.079.094-.109.008-.007.036.023.056.035l-.157.067.007.007zM24.52 45.488l.049-.023-.03.088z" fill="#F1EBB2"/><g transform="translate(46.517 19.43)"><mask id="l" fill="#fff"><use xlink:href="#k"/></mask><path d="M.775.797C.757.78.724.768.723.752c0-.015.033-.033.051-.05.018.015.052.029.052.044 0 .016-.033.034-.051.05" fill="#F1EBB2" mask="url(#l)"/></g><g transform="translate(47.345 21.87)"><mask id="n" fill="#fff"><use xlink:href="#m"/></mask><path d="M.096.643C.095.607.085.584.096.57.103.559.144.564.17.564l-.074.08" fill="#F1EBB2" mask="url(#n)"/></g><path fill="#F1EBB2" d="M37.874 40.997l.19-.039.017.12-.208-.077zM14.477 29.854l.06-.043-.013.04zM36.291 42.168c.004.027.02.062.012.077-.009.014-.042.006-.063.007-.004-.027-.02-.063-.012-.078.008-.014.04-.006.063-.006M12.016 40.697l.009-.003-.01.003zM19.988 45.245l-.006.008.006-.008zM20.135 45.287l-.004-.01.004.01zM25.256 45.729l-.154.008.004.005.145-.005zM20.131 45.277c-.048-.007-.095-.02-.143-.032l-.006.008c.05.011.101.027.153.034l-.004-.01zM25.103 45.737l.004.004-.004-.004zM28.619 45.421l.007.007-.007-.007zM43.489 36.955l-.003-.009.003.009zM41.254 39.762h.003-.003zM16.66 42.582l-.003-.009.002.009zM26.891 44.142c.034-.005.052-.013.068-.005.007.003.005.04.008.062l-.076-.057M29.478 43.858l-.002.008.002-.008zM21.54 43.939l.046.05c-.03.028-.058.061-.09.079-.01.006-.03-.03-.044-.046l.087-.083z"/><g transform="translate(1 .718)"><mask id="p" fill="#fff"><use xlink:href="#o"/></mask><path d="M31.553 37.617l-.005.018.043-.03-.038.012zm8.654-10.66c.02-.063.03-.122.044-.183-.025.036-.059.07-.07.106-.02.054-.024.108-.036.175.028-.043.055-.075.062-.098zm-40.03-5.01c-.01.04-.02.075-.025.123 0 .01.013.065.028.099.003-.03.01-.06.015-.091l-.018-.13zm41.095-.085c-.009.38-.088.638-.08.89l-.108.61c-.063.385-.083.779-.196 1.155-.138.534-.275 1.061-.42 1.613l.118-.012-.559 1.518c-.024.063-.065.118-.099.175l.003-.003a3.284 3.284 0 0 1-.23.427l.005-.008c-.103.148-.12.231-.102.292l-.004.025c-.163.392-.304.774-.571 1.136-.16.214-.357.532-.575.968l.534-.73c-.279.482-.515.89-.75 1.293-.094.16-.172.236-.238.264.05-.089.104-.18.144-.264.02-.041.012-.066.015-.099-.037.06-.093.134-.11.175-.027.073-.03.123-.043.183a.543.543 0 0 1-.042.104c-.14.274-.144.283-.371.47-.171.143-.19.239-.23.35l.002-.007c-.257.265-.49.528-.711.87a1.892 1.892 0 0 1-.254.286c-.19.18-.259.292-.297.413a.472.472 0 0 1-.183.193.925.925 0 0 0-.141.11c-.286.448-.78.783-1.163 1.176-.26.245-.544.504-.856.708-.308.12-.623.396-.942.619-.344.256-.661.466-.899.681-.237.223-.544.366-.837.53-.025.014-.078.02-.072.006.043-.104-.117.01-.17.066-.199.215-.454.36-.848.48l.178-.101c-.02.008-.046.016-.058.024l-.115.076-.15.07.006-.002-.926.361c-.2.069-.335.122-.434.21a.885.885 0 0 1-.231.115c-.3.07-.544.184-.801.303-.086.041-.235.101-.289.108-.305.047-.571.08-.865.237-.078.039-.299.076-.454.114-.18.043-.388.08-.535.133a2.343 2.343 0 0 1-1.205.145c-.094-.013-.284.01-.33.054-.104.097-.343.135-.626.177-.533.079-1.077.079-1.615.11-.372.007-.742.035-1.111-.012l-.102-.026-.09.006-.019.004h-.784c-.482-.008-.96-.014-1.386-.177a2.232 2.232 0 0 0-.816-.115 2.035 2.035 0 0 1-.365-.022c-.482-.045-.945-.185-1.412-.324-.212-.07-.465-.122-.7-.182-.292-.06-.567-.177-.848-.274-1.155-.379-2.25-.901-3.32-1.462-.658-.42-1.369-.767-1.977-1.255a331.1 331.1 0 0 0-1.105-.848c-.35-.316-.691-.62-1.04-.933-.648-.52-1.148-1.192-1.717-1.792-.346-.408-.647-.857-.804-1.235-.216-.227-.467-.359-.588-.722l.065.077-.03-.046c-.013-.014-.025-.022-.036-.033-.09-.126-.187-.249-.268-.38-.342-.567-.703-1.124-.963-1.734-.026-.055-.057-.16-.047-.163.073-.025-.02-.205-.111-.365-.12-.207-.21-.408-.309-.627-.17-.457-.33-.885-.493-1.327-.253-.377-.36-.892-.487-1.367-.108-.385-.2-.737-.184-1.052a1.793 1.793 0 0 0-.15-.794c-.087-.209-.126-.453-.164-.711l-.09-.606-.03-.612-.053-1.222a2.405 2.405 0 0 1 .058-.748c.037-.15.037-.285.016-.427a1.299 1.299 0 0 1-.008-.218l.034-.904c.032-.3.083-.599.13-.895.076-.427.134-.86.268-1.274.17-.453.318-.958.355-1.462.013-.205.077-.485.16-.726.096-.309.234-.302.308-.554.068-.232.024-.391.19-.71.043-.085.086-.188.123-.283.06-.131.126-.282.19-.425l-.004.004c.12-.163.199-.347.267-.54.123-.328.24-.65.476-.942.09-.106.225-.319.284-.448.193-.412.496-.804.708-1.203.041-.068.13-.166.195-.232.166-.171.281-.351.418-.55.177-.255.353-.521.545-.75.209-.217.423-.403.643-.523a.795.795 0 0 0 .103-.078c.117-.098.258-.236.281-.321.072-.257.32-.546.687-.823.16-.128.322-.273.481-.415.235-.208.465-.439.684-.517.043-.013.165-.1.249-.158.196-.136.395-.27.582-.412.265-.2.545-.39.76-.623.104-.099.373-.245.567-.369.242-.056.519-.242.788-.404a2.38 2.38 0 0 1 .693-.322c.274-.076.592-.237.73-.351.176-.147.351-.208.56-.308.376-.172.66-.184.943-.234l.023.012-.029-.008c.103-.1.293-.185.54-.274.43-.17.875-.298 1.327-.402.224-.056.447-.11.674-.165l.338-.08.169-.037.083-.017.023-.001a.812.812 0 0 0 .225-.034.86.86 0 0 1 .329-.02c.012.003.02.014.036.021l-.125.108c.115-.018.187-.031.26-.043.035-.008.057-.032.048-.074-.013-.054.027-.076.07-.073.06.006.121.019.176.042a.35.35 0 0 0 .177.036c.335-.027.665-.065.997-.016a.328.328 0 0 0 .101-.004c.161-.028.313.01.462.06l.498.168c.019.006.04.007.06.01l.379.03c.049.004.098.01.136.055-.027.01-.04.016-.05.018l-.161.013-.014-.012.015.01c.019.022.065.024.048.073-.019.005-.037.014-.057.016-.052.005-.106.011-.158.01-.086-.005-.025.116-.106.115l.085.075-.002-.002c.05.013.1.034.15.039.153.01.3.02.45.028.028.003.056.015.088.023-.077.119-.186.142-.295.158l-.35.042a.225.225 0 0 1-.18-.046.251.251 0 0 1-.18.098c-.09.01-.18.023-.266.044l-.504.132c-.091.02-.19.018-.283.045-.219.05-.428.138-.648.187-.323.073-.639.175-.957.257-.421.115-.841.232-1.258.347-.557.131-1.09.337-1.622.547-1.352.483-2.609 1.19-3.81 1.955a1.77 1.77 0 0 0-.292.209c-.375.308-.757.586-1.167.837-.36.227-.657.536-.98.836-.612.535-1.1 1.196-1.657 1.786l-1.04 1.377a19.976 19.976 0 0 0-2.392 4.884c-.161.696-.392 1.377-.513 2.08-.092.708-.274 1.407-.267 2.126-.021.643-.093 1.286-.032 1.93.034.643.034 1.29.161 1.922l.154.991c.053.33.162.649.238.973.198.937.563 1.824.895 2.72.062.129.143.277.176.385.112.364.245.705.488 1.015.029.033.055.129.095.19l.292.491c.515.925 1.152 1.775 1.817 2.601l.928 1.01c.446.458.937.872 1.402 1.313a67.94 67.94 0 0 0 1.537 1.163c.588.341 1.15.732 1.76 1.037l.922.445.461.224.481.176 1.15.43c.39.126.79.214 1.185.325.784.25 1.606.32 2.416.465 2.028.213 4.088.128 6.093-.258 1.433-.334 2.862-.74 4.186-1.39.84-.354 1.603-.85 2.383-1.312.497-.336.972-.704 1.46-1.052.465-.378.9-.79 1.348-1.186a20.37 20.37 0 0 0 3.379-4.47c.27-.582.57-1.152.82-1.74.208-.607.463-1.197.633-1.814.116-.466.232-.934.35-1.402.098-.472.142-.954.22-1.429.101-.521.108-1.054.136-1.584l.039-.795c.004-.264-.026-.528-.04-.792-.033-.94-.176-1.862-.324-2.787a18.836 18.836 0 0 0-3.166-7.317c-.86-1.26-1.951-2.356-3.09-3.377-1.246-1.094-2.657-1.991-4.145-2.738L28 2.734c-.145-.075-.3-.127-.452-.183l-.12-.052-.468-.201c-.274-.11-.539-.248-.823-.33l-.662-.211a3.59 3.59 0 0 1-.601-.275c-.037-.02-.065-.057-.1-.09.06-.067.15-.082.166-.174.022-.126.113-.185.23-.21.058-.014.114-.037.173-.044.297-.036.593-.106.906-.102.31-.005.616-.02.919.057l.616.135.31.069c.377.102.75.287 1.125.437.278.117.56.236.842.357l.815.421c.552.267 1.069.597 1.574.95.136.094.3.223.47.254-.31-.21-.584-.391-.871-.568-.37-.234-.486-.329-.884-.621.67.331 1.256.789 1.876 1.185.569.467 1.166.898 1.68 1.416l.893.857c.28.302.544.617.79.933.056.072.144.16.214.223.226.188.372.43.539.668.098.144.216.292.327.438.369.452.656.96.971 1.45.206.309.379.636.542.968.784 1.382 1.304 2.89 1.743 4.405.05.23.11.466.058.584-.012.026.005.166.022.255.051.259.114.51.203.732.16.5.25 1.095.335 1.688.023.136.002.349-.018.409-.1.25-.075.571-.02.947.016.11.024.236.044.457l-.014-.725c0-.035.014-.087.023-.088.011-.001.028.039.035.077.013.067.023.146.026.222.051.566.005 1.133-.02 1.7-.019.567-.046 1.134-.152 1.695-.008.054-.034.107-.056.175a14.473 14.473 0 0 1-.016-.268c.063-.389.1-.387.082-.894z" fill="#333" mask="url(#p)"/></g><path d="M31.059 2.438l-.36-.164c-.456-.188-.904-.397-1.369-.564l-.165-.053-.048-.013-.092-.025-.187-.05c-.012-.004-.028.001-.04.004-.006 0-.015.006-.015.01 0 .013-.002.033.004.035l.196.063.13.035.165.051c.081.029.165.047.244.084l.808.33.724.28.005-.023zM32.022 2.952c-.046-.02-.097-.044-.182-.08-.032-.012-.064-.012-.064 0 0 .013.031.05.06.067.11.063.224.13.333.181.05.024.123.037.134.025.006-.008-.07-.067-.122-.103-.035-.025-.09-.051-.159-.09M32.804 3.432c-.018-.008-.045-.023-.052-.023-.004 0 .004.016.016.026.013.009.035.018.053.026l-.017-.029zM28.762 35.92l.006.015.014-.034-.02.02zm2.588-9.677c.002-.047-.004-.09-.007-.136-.014.029-.037.057-.04.084-.003.042.008.082.014.13.015-.035.033-.06.033-.078zm-18.856-3.538c-.01.028-.023.052-.03.086-.001.009.015.048.025.071l.02-.063-.015-.094zm19.082-.197c-.006.273-.025.462-.003.643-.014.146-.035.294-.043.44l-.034.841c-.014.392-.074.784-.115 1.19l.11-.022-.132 1.15c-.008.046-.035.09-.055.135l.002-.002-.096.336.003-.008c-.048.12-.035.184 0 .224l.005.018c-.024.305-.03.596-.16.896-.071.179-.121.443-.155.791l.206-.615-.184 1.052c-.024.132-.067.199-.115.232.01-.071.024-.145.029-.212.002-.033-.017-.05-.025-.073-.012.048-.034.112-.033.144.003.056.02.092.032.136l.008.083c.007.226.008.232-.102.416-.088.137-.063.21-.05.294v-.004c-.104.245-.226.473-.231.772a1.001 1.001 0 0 1-.065.267c-.067.174-.066.272-.037.366.013.044-.017.125-.063.18a.45.45 0 0 0-.068.113c-.052.375-.217.764-.321 1.145-.068.249-.202.495-.303.743-.17.178-.249.472-.365.727-.136.28-.251.533-.29.77-.04.239-.18.443-.297.656-.01.019-.048.04-.051.029-.026-.089-.086.043-.096.1-.034.213-.11.421-.323.642l.066-.137c-.01.013-.024.028-.028.038a3.62 3.62 0 0 1-.034.096l-.064.104.004-.003c-.144.199-.29.396-.466.577-.106.118-.16.213-.18.316a.49.49 0 0 1-.09.172c-.17.16-.255.344-.392.517a.87.87 0 0 1-.16.175c-.212.128-.354.27-.477.503-.026.065-.17.17-.273.248-.115.092-.256.187-.343.276-.137.145-.27.262-.402.353a1.53 1.53 0 0 1-.443.15c-.079.013-.218.086-.238.139-.05.114-.21.233-.44.321l-.663.231-.334.11-.355.043c-.331.023-.66.082-.984.03l-.088-.03-.08.002-.017.004c-.23-.01-.46-.018-.693-.044a3.637 3.637 0 0 1-1.134-.419 1.72 1.72 0 0 0-.601-.325c-.076-.02-.19-.07-.28-.121-.35-.197-.634-.445-.923-.712a5.366 5.366 0 0 1-.406-.392l-.473-.5a13.85 13.85 0 0 1-1.535-2.234c-.292-.498-.515-1.019-.766-1.529-.242-.627-.486-1.248-.707-1.884-.191-.561-.388-1.128-.52-1.704-.096-.371-.19-.745-.158-1.048-.105-.204-.218-.36-.202-.636l.03.067c-.004-.013-.006-.028-.01-.038-.005-.013-.013-.02-.02-.03-.032-.106-.074-.21-.096-.32-.095-.463-.197-.926-.256-1.395-.006-.042 0-.122.009-.123.077-.006.05-.149.017-.277a3.883 3.883 0 0 1-.084-.492c-.048-.332-.101-.669-.135-1.005-.125-.3-.132-.676-.182-1.024-.045-.283-.064-.54.017-.767.058-.167.034-.378-.053-.577-.065-.154-.078-.329-.09-.516-.048-.582-.03-1.167-.045-1.75-.003-.19-.004-.378.035-.537a.606.606 0 0 0-.01-.306.683.683 0 0 1-.014-.156c.002-.43-.005-.864.012-1.293.009-.312.026-.623.098-.93.075-.338.117-.715.05-1.076a3.104 3.104 0 0 1-.024-.533c.008-.231.142-.245.146-.435.001-.172-.083-.277-.011-.527.018-.066.035-.145.042-.218l.022-.332-.001.004c.053-.136.054-.28.055-.426 0-.253.023-.495.122-.747.036-.093.07-.269.068-.372-.002-.329.112-.666.14-.988a.805.805 0 0 1 .06-.209c.065-.158.081-.311.106-.481.06-.442.13-.906.382-1.19a.392.392 0 0 0 .048-.083c.046-.1.095-.233.07-.298-.073-.196-.006-.46.103-.767.054-.138.105-.285.154-.43.072-.213.131-.44.26-.561.026-.024.062-.126.088-.194l.184-.48c.086-.222.194-.443.215-.674.01-.108.106-.305.163-.462.129-.128.22-.353.322-.558.086-.177.176-.346.286-.477.137-.158.233-.398.263-.527.033-.166.121-.274.208-.42.156-.261.31-.396.466-.543h.021l-.023.005c-.005-.116.076-.248.192-.405.207-.275.402-.557.62-.827.225-.242.512-.542.704-.721.06-.05.113-.11.17-.165a.974.974 0 0 1 .289-.197c.01-.005.025 0 .041-.002l-.056.162c.093-.08.15-.127.212-.178.027-.025.035-.06.006-.09-.038-.04-.014-.083.028-.102.056-.029.119-.05.178-.058a.362.362 0 0 0 .177-.062c.31-.177.645-.319.973-.43l.1-.043c.157-.075.328-.085.493-.08.187.008.362.002.54.033.02.004.041.004.063.004l.395.005c.05.001.101.003.144.047-.027.01-.04.018-.05.02l-.162.023-.015-.01.016.009c.021.02.068.02.055.07-.018.006-.035.016-.054.02-.052.007-.104.016-.156.016-.087.003-.01.118-.088.122v.001l.093.069-.002-.002c.049.01.1.027.147.03.146 0 .281.002.424.003.027 0 .053.01.082.016-.071.124-.165.154-.263.176l-.31.059a.21.21 0 0 1-.17-.038.304.304 0 0 1-.138.13c-.076.032-.15.067-.22.108l-.389.243c-.066.058-.142.1-.212.15-.166.118-.308.253-.469.37-.22.213-.418.442-.624.653-.006.03-.367.442-.602.71-.238.316-.459.654-.692.978-.517.88-1.001 1.79-1.369 2.77l-.087.247a11.66 11.66 0 0 1-.389.979c-.133.284-.229.583-.317.897l-.422 1.76c-.09.432-.178.842-.265 1.262-.143.666-.228 1.347-.345 2.02-.08.68-.163 1.361-.221 2.044-.039.541-.075 1.078-.113 1.618-.025.54-.032 1.081-.041 1.622.005.974.003 1.952.064 2.923.037.505.063 1.01.111 1.512.09.715.128 1.438.252 2.147.017.106.045.228.041.316-.012.289 0 .562.13.836.014.03.015.103.026.155l.08.422.232 1.163.295 1.145c.078.33.19.65.296.97.274.904.599 1.788.992 2.635.212.446.419.896.68 1.305.126.209.243.426.376.627l.422.582c.688.902 1.507 1.702 2.456 2.084l.442.157c.148.048.303.039.454.065.302.076.605-.005.91-.022.156.001.3-.091.45-.129.146-.06.304-.075.444-.163.275-.182.587-.282.84-.525.798-.567 1.444-1.41 2.022-2.275l.504-.836.436-.885c.368-.789.712-1.598.975-2.44.446-1.309.741-2.674 1-4.041.154-.946.3-1.893.382-2.852.09-.718.092-1.444.144-2.167.038-.795.053-1.598.046-2.393l-.079-2.115c-.085-2.01-.373-4.005-.749-5.97a27.493 27.493 0 0 0-.852-3.288 19.972 19.972 0 0 0-1.37-3.352c-.109-.207-.21-.419-.338-.612l-.182-.297-.06-.111a3.658 3.658 0 0 0-.255-.42c-.161-.232-.301-.489-.488-.697l-.422-.512a3.114 3.114 0 0 1-.382-.491c-.021-.034-.028-.078-.043-.124.082-.033.167-.006.224-.081.078-.103.184-.116.302-.086.058.016.12.021.175.042.293.097.585.192.844.372.264.168.54.323.752.558.144.157.303.305.444.463l.203.245c.161.237.355.48.496.737.462.763.906 1.539 1.218 2.371.042.112.084.257.191.336-.1-.25-.19-.47-.292-.691-.128-.29-.174-.388-.258-.74.49.964.842 1.967 1.134 2.972.144.57.356 1.137.423 1.712.009.064.037.15.062.212.082.192.12.389.154.595.015.125.047.256.072.384.079.41.174.817.239 1.228l.116.786c.176 1.121.29 2.249.375 3.376.017.17.025.343-.046.423-.017.017-.026.117-.025.182.003.191.02.376.066.542.112.37.137.798.145 1.226.003.099-.013.25-.04.292-.107.176-.09.407-.05.678.01.08.01.17.016.329l.024-.52c0-.025.015-.062.026-.063.01 0 .026.028.032.056.01.049.018.106.018.16-.02.812-.006 1.624-.057 2.436-.003.039-.023.077-.038.127l-.043-.19c.034-.282.037-.282.003-.646zM28.579 5.37l-.138-.255a9.432 9.432 0 0 0-.586-.918l-.103-.147-.059-.078-.118-.153a.097.097 0 0 0-.034-.022c-.006-.003-.015-.003-.018 0-.008.009-.02.026-.018.03l.118.172.082.108.188.266c.125.176.25.354.357.536l.31.477.019-.017z" fill="#333"/><path d="M28.945 6.075c-.02-.032-.05-.083-.078-.121-.015-.02-.039-.031-.046-.024-.008.01-.01.046 0 .07.037.083.075.17.119.246.021.036.064.071.08.067.01-.004-.007-.073-.02-.117-.009-.03-.031-.07-.055-.121M29.206 6.688c-.008-.011-.02-.032-.024-.033-.005-.002-.008.013-.004.023s.015.024.024.035l.004-.025zM18.074 14.078l.004-.013-.013.002.009.01zm-3.506-.176c-.017.002-.033.01-.05.016.009.012.018.033.027.034.015 0 .03-.013.048-.023-.012-.012-.02-.027-.025-.027zm13.845-.182c-.012-.01-.02-.021-.034-.028l-.023.024.025.02.032-.016zm-15.176.095c.096.017.163.03.231.005.052.01.103.028.154.033l.3.014c.146.018.278.032.422.048l.001-.105.407.047c.016.003.03.025.046.037v-.002l.116.056-.002-.001c.04.031.064.012.081-.027l.007-.007c.11-.014.216-.044.318.046.06.054.156.05.283.026l-.216-.096h.376c.048 0 .07.03.082.072-.027.002-.053 0-.077.008-.013.004-.02.024-.028.036.017.004.04.015.052.007.02-.012.034-.034.05-.053.01-.007.02-.017.03-.022.083-.046.084-.047.149.027.048.056.074.014.107-.016l-.002.002c.087.043.17.109.277.047.025-.013.069-.008.096.002.063.024.098.001.133-.05.015-.023.044-.017.064.01.012.013.033.035.042.032.135-.057.276-.013.414-.024.09-.008.182.02.273.032.07.095.177.066.272.086.105.02.2.01.284-.053.082-.063.162-.023.243-.008.007 0 .016.024.013.032-.027.066.023.053.042.032.074-.075.148-.111.242-.038l-.05.01c.004.003.01.008.014.006.01-.005.023-.011.034-.018l.04.004v-.001c.079.027.155.056.238.084.05.02.086.009.12-.035.012-.016.05-.033.064-.026.072.042.14.022.21 0 .022-.007.062-.013.074 0 .07.071.134.08.214.011.023-.02.075.002.114.003.044.003.094.02.132.007.12-.048.212-.026.29.079.02.028.067.035.08 0 .032-.08.089-.08.157-.078.13.006.26 0 .385 0 .087.003.175.022.262.033l.024.021.022-.01.004-.006c.061-.014.121-.034.183-.04.113-.014.223-.032.332.047a.14.14 0 0 0 .196-.015.148.148 0 0 1 .085-.04c.115-.012.229-.044.348-.017.055.013.117-.003.174-.007l.214-.017.89-.057.58-.04c.23-.011.462.004.694-.03.205-.028.414-.033.62-.046.136-.01.271-.016.384.081.073-.053.126-.145.227-.08l-.023.018c.004 0 .01 0 .013-.003l.01-.014c.039-.014.076-.036.114-.039l.501-.035c.016-.001.045.014.046.023.006.075.057.067.103.049.058-.022.114-.022.176-.024.12-.001.24-.024.358-.036.1-.1.236-.082.36-.105.1-.019.19-.03.28.052.066.06.14.041.204-.038.048-.06.11-.068.177-.075l.622-.061c.068-.007.135-.013.197.022.042.024.075.013.108-.02a.105.105 0 0 1 .052-.024c.152-.026.303-.061.457-.074a.968.968 0 0 1 .337.013c.128.035.265.033.378-.073.047-.043.118-.062.18-.084.08-.03.106.098.17.071.06-.026.08-.123.177-.093a.19.19 0 0 0 .08.006c.038-.006.076-.02.115-.03l-.002-.002c.055.027.105.013.153-.017.082-.053.165-.08.266-.037a.17.17 0 0 0 .135-.011c.107-.07.238-.025.346-.087.019-.01.054-.002.079.005.062.021.114-.003.173-.022.152-.05.31-.108.45.033.01.009.023.014.036.018.04.014.092.018.107-.025.042-.127.137-.145.254-.137.054.005.108-.003.161-.01.079-.01.158-.037.224.037.013.014.051.011.077.01.06-.002.122 0 .182-.011.082-.017.17-.012.237-.089.033-.036.11-.032.167-.047.07.066.151.037.229.025a.332.332 0 0 1 .199.016c.076.039.164.018.202-.033.047-.063.096-.05.154-.06.104-.015.179.036.258.083l.007.019-.008-.017c.025-.063.074-.087.14-.095.232-.032.462-.079.697-.079.073 0 .148-.01.218-.03a.786.786 0 0 1 .317-.013c.01 0 .02.011.033.02l-.122.106.252-.04c.034-.006.056-.032.047-.072-.011-.055.027-.077.069-.072.057.006.117.02.17.043.055.026.109.044.172.039.323-.03.647-.042.972-.02a.307.307 0 0 0 .098-.014c.153-.041.303-.017.454.02l.502.122c.02.004.04.003.06.003l.378-.005c.049 0 .099.001.143.042-.025.013-.037.02-.048.023l-.159.027-.014-.009.015.008c.022.02.069.017.057.068-.017.006-.034.018-.053.021-.052.01-.105.02-.157.024-.087.005-.013.12-.093.125l.092.067-.001-.002c.051.008.104.024.155.024l.46-.015c.03 0 .06.009.093.014-.061.124-.169.158-.278.185l-.352.075a.236.236 0 0 1-.19-.028.254.254 0 0 1-.174.116c-.09.019-.183.04-.27.07l-.509.18c-.094.03-.194.042-.29.063-.228.05-.446.136-.675.185-.339.072-.672.173-1.008.255l-.148.035c-.28.061-.54.12-.78.173l-1.178.226a.597.597 0 0 0-.097.026.836.836 0 0 1-.4.037.832.832 0 0 0-.36.035 8.985 8.985 0 0 1-.671.153c-.16.031-.32.05-.482.071l-1.53.217-1.21.152c-.362.054-.728.085-1.092.127l-.566.067-.812.076c-.04.003-.086.016-.12.001-.114-.045-.219-.063-.318.03-.012.011-.04.004-.06.005l-.162.007-.896.062-.385.038-1.083.058-1.15.069c-.46.021-.927.027-1.395.03-.589-.002-1.174.002-1.746-.035-.418-.014-.83-.046-1.242-.079l-.763-.049-1.001-.096-1.575-.127-1.078-.103c-.265-.024-.555-.048-.816-.07-.298-.033-.594-.089-.893-.106a7.335 7.335 0 0 1-.79-.096c-.744-.133-1.498-.207-2.235-.371l-1.26-.255-1.346-.322c-.13-.034-.261-.065-.393-.099l-.643-.165c-.307-.076-.6-.151-.896-.225l-.702-.178a3.76 3.76 0 0 1-.636-.245c-.039-.02-.069-.055-.107-.087.063-.068.155-.085.17-.178.02-.125.11-.188.228-.22.058-.016.114-.042.172-.052.295-.053.581-.14.884-.158.299-.017.593-.072.894-.047l.914.053.304.026c.307.031.618.038.921.11.04.008.09.033.14-.027a1.915 1.915 0 0 0-.258-.037c-.111-.006-.146-.027-.255-.119.37.05.732.121 1.087.222.2.056.413.07.601.166.022.01.054.01.079.003a.34.34 0 0 1 .215.032c.04.017.09.02.135.03l.435.08c.086.018.193.04.276.06l1.192.205c.058.01.12.015.135.093.004.019.037.038.06.044a.29.29 0 0 0 .197-.007c.145-.064.298-.055.448-.039.036.005.087.031.096.06.047.115.131.117.232.093.03-.008.061-.004.12-.006l-.182-.044c-.008-.002-.02-.02-.018-.03.002-.01.014-.023.024-.027a.132.132 0 0 1 .059-.008l.86.104c.014.002.025.02.04.033a3.591 3.591 0 0 0-.072.048c-.098-.029-.098-.028-.232-.006zM7.141 12.626c-.032-.006-.063-.017-.096-.02l-.41-.043-.324-.034c-.012 0-.024.007-.038.01-.005.003-.011.009-.01.014 0 .011.002.032.007.032l.194.032.157.016.1.008c.067.004.133.007.22.014.055-.002.132-.004.198-.004l.002-.025z" fill="#333"/><path d="M7.411 12.667c-.013.002-.034.001-.051.008a.04.04 0 0 0-.02.03c0 .01.008.028.017.03.03.01.063.018.093.016.014 0 .036-.02.04-.035.002-.01-.02-.029-.033-.039-.01-.006-.027-.006-.046-.01M7.633 12.734l-.016.005.005.014.016-.003-.005-.016zM25.323 29.472l-.005.012.014-.002-.009-.01zm3.535.233c.016-.002.033-.01.05-.016-.01-.011-.018-.032-.028-.032-.015-.001-.03.012-.049.02.012.014.02.029.027.028zM15.009 29.3c.012.01.022.021.035.028l.022-.024-.025-.019-.032.015zm15.186.49c-.096-.016-.164-.029-.232-.002-.052-.012-.104-.028-.155-.032l-.301-.017-.425-.047c0 .034 0 .068-.002.104l-.408-.045c-.017-.004-.031-.025-.047-.037l.001.002-.117-.056.003.002c-.041-.032-.066-.013-.083.027l-.007.006c-.111.013-.218.041-.32-.05-.061-.055-.157-.053-.284-.03l.216.1a145.6 145.6 0 0 1-.38-.006c-.047-.001-.07-.03-.08-.073.026-.002.053 0 .077-.007.013-.004.02-.023.03-.036-.019-.003-.041-.014-.054-.007-.02.012-.035.035-.051.052-.01.008-.02.018-.03.023-.084.044-.086.046-.15-.028-.048-.056-.075-.015-.107.014l.001-.001c-.087-.045-.168-.11-.28-.05-.023.013-.068.008-.095-.003-.063-.026-.099-.004-.134.045-.018.023-.047.018-.067-.01-.01-.014-.032-.037-.04-.033-.138.053-.28.004-.42.01-.09.007-.183-.023-.275-.036-.068-.097-.177-.071-.272-.092a.357.357 0 0 0-.289.045c-.086.059-.165.016-.248-.003-.006-.002-.016-.025-.012-.032.03-.065-.021-.054-.042-.035-.077.07-.154.105-.246.027l.052-.009c-.005-.002-.012-.007-.015-.006a.869.869 0 0 1-.036.017l-.041-.005.002.001a14.322 14.322 0 0 0-.238-.093c-.05-.022-.088-.012-.123.03-.013.015-.054.032-.066.024-.072-.044-.14-.026-.212-.007-.024.007-.064.01-.076-.004-.068-.075-.133-.089-.22-.026-.023.017-.075-.007-.115-.012-.045-.005-.096-.027-.135-.015-.126.038-.218.013-.29-.097-.018-.03-.065-.04-.082-.004-.036.08-.095.076-.165.07l-.394-.032c-.09-.011-.18-.04-.269-.059l-.023-.023-.021.008-.005.005c-.064.01-.128.024-.191.027-.116.004-.231.013-.333-.075-.053-.045-.128-.062-.198-.005a.148.148 0 0 1-.09.028c-.115 0-.227.027-.342-.011-.051-.018-.112-.007-.17-.007h-.21a12.244 12.244 0 0 0-.867-.012l-.567.003c-.226-.008-.455-.026-.684-.002-.203.023-.408.017-.614.02-.133.004-.265.004-.375-.096-.073.052-.128.142-.227.075l.024-.016c-.005.001-.01 0-.013.003l-.011.012c-.038.013-.075.035-.114.038l-.496.023c-.016 0-.045-.015-.045-.024-.006-.075-.055-.068-.1-.052-.059.02-.115.02-.175.018-.12-.002-.238.02-.357.032-.101.1-.236.079-.358.102-.1.019-.19.03-.278-.055-.064-.06-.139-.044-.202.035-.05.06-.111.068-.177.074l-.619.057c-.067.008-.133.013-.195-.022-.041-.023-.074-.012-.108.02a.09.09 0 0 1-.052.024c-.151.028-.301.063-.453.075a.922.922 0 0 1-.336-.014c-.127-.032-.263-.03-.376.078-.045.043-.116.064-.178.087-.079.029-.107-.097-.17-.07-.058.026-.078.124-.174.096a.178.178 0 0 0-.08-.007c-.04.007-.077.022-.114.032l.001.001c-.055-.026-.103-.01-.151.02-.082.052-.164.08-.265.038a.168.168 0 0 0-.134.014c-.105.072-.238.029-.343.092-.018.011-.053.004-.078-.002-.063-.02-.114.004-.172.025-.151.052-.307.112-.45-.025a.105.105 0 0 0-.035-.018c-.041-.013-.093-.016-.106.026-.04.127-.133.147-.25.142-.054-.003-.108.007-.16.015-.079.012-.157.041-.225-.031-.012-.015-.05-.01-.077-.01-.06.004-.121.004-.18.017-.082.019-.169.016-.235.094-.03.036-.108.036-.165.052-.07-.065-.15-.035-.229-.02a.326.326 0 0 1-.197-.012c-.078-.036-.165-.011-.201.04-.045.065-.094.054-.152.064-.103.018-.179-.03-.26-.074l-.007-.019.009.017c-.023.062-.072.088-.138.099-.23.037-.457.093-.693.1a.806.806 0 0 0-.214.038.81.81 0 0 1-.315.025c-.01-.001-.02-.012-.034-.02l.118-.11-.25.048c-.034.01-.055.034-.045.075.014.054-.023.077-.065.074a.556.556 0 0 1-.171-.037.332.332 0 0 0-.172-.032 6.334 6.334 0 0 1-.97.06.336.336 0 0 0-.097.016c-.151.048-.302.03-.453 0l-.508-.099c-.019-.003-.04-.001-.06 0l-.377.022c-.048.003-.097.004-.145-.034.026-.014.036-.023.048-.026l.157-.035.016.009-.017-.007c-.022-.02-.07-.014-.06-.065.016-.009.033-.02.052-.024.051-.013.103-.025.155-.031.086-.009.008-.12.087-.13v-.001l-.095-.062v.002c-.051-.005-.103-.018-.156-.015-.168.012-.3.024-.459.037-.03.002-.06-.005-.094-.008.054-.129.161-.169.269-.2l.35-.092a.24.24 0 0 1 .192.018.25.25 0 0 1 .168-.123c.09-.023.18-.05.267-.082l.5-.203c.094-.034.194-.05.29-.076.226-.06.44-.153.668-.21.337-.088.667-.198 1.002-.293l.147-.041c.257-.07.516-.137.777-.198l1.175-.26a.66.66 0 0 0 .097-.028.851.851 0 0 1 .402-.048.845.845 0 0 0 .36-.044c.219-.068.446-.117.67-.166.16-.035.322-.055.482-.08l1.538-.237c.403-.068.812-.097 1.217-.16.365-.055.732-.091 1.101-.126l.572-.063.82-.067c.041-.002.089-.013.123.001.113.049.219.07.321-.022.012-.01.041-.001.062-.002l.164-.004.907-.039.393-.02c.366-.008.73-.017 1.1-.01.393.007.778-.015 1.174.007.472.027.95.047 1.41.098l1.707.162 1.218.142.75.079.992.117 1.56.148c.357.034.708.07 1.072.104l.81.07c.297.03.593.08.89.095.266.014.526.044.787.086.743.118 1.493.181 2.233.323l1.26.218 1.353.279.395.083.648.139.902.188.707.146c.223.049.436.125.645.214.04.016.07.05.11.08-.058.071-.149.093-.158.186-.014.127-.1.195-.217.233-.056.018-.11.047-.169.06-.292.068-.573.168-.877.198-.297.03-.59.097-.893.085l-.918-.017-.305-.016c-.309-.021-.62-.016-.927-.076-.041-.008-.092-.032-.14.03.093.015.176.027.26.029.113.002.148.02.26.11a7.375 7.375 0 0 1-1.097-.188c-.203-.05-.417-.057-.609-.148-.021-.01-.054-.008-.08-.001a.344.344 0 0 1-.214-.028c-.043-.017-.091-.019-.137-.027l-.44-.068-.278-.053c-.402-.061-.8-.124-1.2-.184-.059-.01-.121-.012-.138-.091-.004-.018-.037-.036-.06-.042a.29.29 0 0 0-.198.011c-.145.067-.298.058-.45.042-.035-.004-.086-.03-.098-.058-.047-.115-.131-.116-.233-.09-.03.007-.061.004-.12.008l.183.04c.009.002.02.02.019.03-.001.01-.014.024-.024.028a.145.145 0 0 1-.059.008l-.866-.095c-.013-.002-.025-.02-.041-.034l.073-.046c.1.027.1.026.233.004zM36.341 30.844c.033.006.065.014.098.017l.414.03.325.02c.012 0 .026-.007.037-.012.005-.002.012-.009.012-.014-.002-.011-.005-.031-.01-.031l-.196-.025-.157-.009-.101-.005a15.936 15.936 0 0 1-.221-.006l-.198.011-.003.024z" fill="#333"/><path d="M36.07 30.814c.013-.004.033-.004.051-.01.01-.005.018-.02.018-.03 0-.01-.009-.03-.018-.032a.337.337 0 0 0-.093-.013c-.015.002-.036.023-.039.037-.001.011.021.029.035.038.01.006.026.006.046.01M35.845 30.753l.015-.005-.005-.013-.016.003.006.015z" fill="#333"/></g></svg>
