<svg width="48" height="48" xmlns="http://www.w3.org/2000/svg" xmlns:xlink="http://www.w3.org/1999/xlink"><defs><path id="a" d="M.262.489h.872v.386H.262z"/><path id="c" d="M.192.25H.63v.875H.192z"/><path id="e" d="M.565.086H.63v.875H.565z"/><path id="g" d="M.393.462H.63v.875H.393z"/><path id="i" d="M0 .851h23.1V37.57H0z"/><path id="k" d="M.687.092H23.96v39.283H.687z"/></defs><g fill="none" fill-rule="evenodd"><path d="M27.488 42.915L12.385 27.773c-3.629-3.639-3.629-9.559 0-13.198a9.238 9.238 0 0 1 6.581-2.733c2.487 0 4.825.97 6.582 2.733l1.94 1.944" fill="#FFE5E5"/><path d="M25.99 14.1l.013.014-.03.015.016-.029zm-4.216.286l-.005-.022.02-.019-.015.04zm-13.923-.212l-.041-.045.041.014v.03zm18.758.933l.012.014-.023.01.011-.024zM24.258 12.1l.031-.033-.008.04-.023-.007zM6.32 19.062l.063.023c-.01.009-.015.021-.03.023-.01.002-.029-.009-.045-.014l.012-.032zm17.411-4.69l-.016-.03.02.003-.004.027zm1.771.196c-.006-.003-.006-.014-.009-.023.01-.004.023-.01.028-.007.007.003.007.015.01.024-.01.003-.024.01-.029.006zm.268-1.088l-.063.032.035-.09.035-.014-.007.072zm-.27-.277l.035-.047c.013.012.027.023.037.037l-.022.032-.05-.022zm-.912-.99c-.007-.006-.01-.018-.017-.027.017-.006.043-.024.052-.018.023.017.038.044.056.068l-.018.024-.073-.047zm2.231 2.733l-.025.026-.079-.08.026-.026.078.08zM14.86 9.416l-.018-.044.224-.096.024.066-.23.073zm8.62 4.038l.012-.02.148.092-.017.017a1.851 1.851 0 0 0-.144-.088zm1.862-.615c-.06.026-.107.059-.117.048-.044-.046-.076-.108-.116-.16l.033-.042.2.154zm-.758 1.683l-.023.027-.17-.144.021-.028.172.145zm-.452-.51l-.015.024-.21-.151.016-.022.21.15zm-13.475-2.121c-.175.165-.351.327-.552.467.168-.205.34-.408.522-.601.004-.005.029.011.06.026-.01.039-.008.087-.03.108zm15.884 2.627c.004.023-.031.091-.066.13-.077.085-.116.066-.144.04-.027-.023-.085-.04-.068-.082.033-.068.158-.16.093-.21-.048-.038-.052-.12-.076-.183.203-.003.236.149.261.305zm-14.256-4.1c.068-.073.132-.155.207-.22.15-.133.298-.271.46-.39a1.72 1.72 0 0 1 .396-.216c.188-.068.395-.09.64-.14l-.19.21c.05.037.09.068.158.121a12.192 12.192 0 0 0-2.926 1.816c-.06-.074-.077-.088-.082-.103-.007-.016-.009-.036-.004-.044a.186.186 0 0 1 .045-.06c.412-.348.838-.686 1.296-.98v.005zm4.577-1.92l.017.076-.199.034.186.256c-.337.194-.587.229-.936.08-.116-.046-.181-.023-.227.148-.027.099-.156.12-.248.122-.135 0-.283-.062-.42-.052-.134.013-.26.071-.467.153.147-.303.35-.301.5-.393.163-.099.356-.12.537-.172.168-.05.337-.102.512-.123a3.82 3.82 0 0 1 .567-.014l.178-.114zm7.235 6.23c-.143.05-.18-.02-.174-.147l-.012-.021.007.024.179.144zm2.036-.898c-.161.048-.178-.04-.16-.165l-.046-.05c.01-.003.03-.013.031-.008.006.018.007.04.01.062l.165.16zM6.918 16.103l.025.118c0 .012-.01.022-.015.034-.011-.015-.032-.032-.03-.044.003-.038.016-.073.024-.11l-.004.002zm20.327 25.303l.033-.005.09.004c-.013.005-.03.016-.036.015-.019-.005-.035-.015-.052-.024l-.035.01zM6.932 15.77h.003-.003zm21.36 25.39l.217-.141v.002c-.047-.151-.204-.18-.359-.211-.14-.028-.284-.05-.315-.229a.731.731 0 0 1 .414.044c.055.02.105.048.175.046.04 0 .137-.049.169-.088.057-.07.117-.174.114-.217-.005-.062-.05-.103-.106-.12-.486-.147-.782-.495-1.095-.826-.106-.112-.218-.22-.293-.362l-.476-.975c-.233-.44-.415-.925-.67-1.347-.144-.241-.257-.503-.525-.622-.08-.035-.129-.095-.033-.273.065-.122.023-.179-.08-.169-.124.016-.2-.027-.154-.168.111-.35-.028-.494-.165-.637a.324.324 0 0 1-.094-.237.47.47 0 0 0-.118-.329c-.07-.069-.177-.096-.184-.232-.002-.045-.117-.02-.193-.003-.079.017-.193.09-.179-.02l-.003.002c.215-.167.268-.234.233-.31-.052-.112-.12-.212-.18-.316-.146-.25-.255-.536-.447-.74-.18-.191-.3-.438-.524-.59-.225-.151-.288-.469-.477-.664-.156-.165-.271-.37-.412-.549l-.358-.414c-.092-.114-.153-.258-.252-.363l-1.326-1.342c-.122-.122-.276-.21-.408-.323a2.07 2.07 0 0 1-.228-.234c-.048-.055-.068-.139-.13-.178-.322-.203-.59-.463-.843-.738-.074-.08-.169-.139-.258-.203-.118-.088-.267-.146-.355-.261-.28-.367-.743-.54-1.078-.848-.269-.245-.626-.4-.882-.655-.238-.238-.564-.385-.745-.68a.194.194 0 0 0-.12-.076c-.225-.066-.396-.208-.567-.343-.112-.08-.155-.212-.329-.255-.023-.006-.021-.035-.007-.065.04-.085-.028-.094-.1-.11-.064-.01-.092-.047-.126-.082a.553.553 0 0 1-.115-.145l-.16-.26c-.021-.036-.03-.077-.058-.11l-.188-.311c-.085-.12-.127-.257-.192-.388-.078-.142-.163-.29-.181-.451-.013-.072-.023-.136-.18-.183-.12-.036-.112-.087-.036-.154.16-.136.221-.26.197-.384-.045-.17-.189-.346-.148-.526.035-.183 0-.375.026-.563.013-.1.039-.193-.007-.306-.05-.11-.038-.22.04-.3a.497.497 0 0 0 .135-.328 4.76 4.76 0 0 1 .027-.35c.036-.157.175-.266.113-.473-.018-.058.043-.081.075-.116.055-.069.158-.111.145-.213-.032-.235.201-.305.196-.532a.143.143 0 0 1 .08-.14c.132-.076.25-.149.246-.342 0-.05.094-.026.028-.134-.065-.112-.013-.119.074-.091.134.046.145-.035.187-.087.083-.12.135-.281.264-.354.101-.066.096-.265.266-.241-.004-.182.138-.174.234-.221.014-.007-.002-.062-.004-.094l-.01-.04.007.036c.193.09.286.047.284-.174l-.062-.013c.002-.007 0-.021.006-.019l.058.037c.08.007.173.041.233.016.151-.062.3-.122.432-.22a.548.548 0 0 0 .232-.351c.039-.176.112-.322.25-.291.047.011.081-.032.119-.062.087-.063.17-.148.263-.2a.362.362 0 0 1 .217-.02c.04.006.09.046.098.235.006.096.04.16.07.166.075.017.147.023.2-.164-.05-.027-.082-.037-.114-.064a.208.208 0 0 1-.04-.084c-.007-.03-.008-.09 0-.096a.348.348 0 0 1 .122-.078c.062-.017.129-.012.193-.026a6.9 6.9 0 0 1 .882-.181c.026-.004.051.046.077.053.173.04.336.096.518-.108.036-.04.074-.068.089.037.017.12.049.15.089.158.183.033.344.165.538.119.114-.029.247-.095.313.096.009.027.037.007.057.01l.5.094c.201.024.358.153.61.063.051-.02.076.053.1.107.027.067.062.11.142.06.13-.08.205-.033.285.004.054.028.098.083.179.05.123-.05.16.05.242.068.054.01.06.081-.012.234-.064.134-.035.16.018.156l.145-.01c.038-.04.077-.084.114-.117.012-.01.017.01.025.016-.011.012-.026.027-.037.034l-.1.062c-.022.13.017.168.13.108.067-.035.14-.078.197-.093.096-.022.089.06-.022.29.05.035.246-.132.222.013l-.143.104c-.007.034-.024.079-.018.096.017.05.023.117.155.007.146-.122.184-.083.213-.032.05.085.069.202.134.27.292.314.666.764 1.062 1.072.028.023.037.09.166-.02-.062-.175-.217-.267-.203-.496.42-.222.545-.04.748.037-.212-.355-.44-.687-.673-1.016-.124-.178-.263-.327-.255-.57-.21.005-.292-.118-.376-.303.238-.005.318.058.37.307l.209.209.657.696c.04.043.06.119.24.007-.015-.073-.011-.146-.042-.185-.117-.152-.163-.373-.354-.453-.061-.321-.339-.43-.472-.637-.019-.03-.037-.057-.052-.091a.08.08 0 0 1-.006-.062.269.269 0 0 1 .058-.092c.024-.024.07-.05.082-.044.047.024.09.053.118.095.243.378.587.739.959 1.026.127.1.282.18.473.205.132.017.244.05.322.127l.52.524c.028.029.075.038.112.057.012-.136-.038-.21-.08-.293-.047-.093-.086-.193-.127-.291-.039-.09-.068-.186-.116-.266-.042-.073-.122-.113-.15-.197-.03-.088-.02-.21-.024-.32-.001-.027.009-.063.013-.095.044-.017.113-.06.126-.045.09.101.169.214.252.323l.384.501c.008.009.048-.013.072-.02.015-.029.047-.074.042-.088-.05-.147-.096-.288-.141-.424-.091-.25-.204-.483-.269-.753a1.077 1.077 0 0 0-.193-.415c-.139-.182-.303-.345-.381-.578-.21-.616-.705-1.194-1.175-1.712-.232-.26-.498-.485-.765-.713a10.505 10.505 0 0 0-1.82-1.252 9.05 9.05 0 0 0-1.193-.518c-.089-.03-.178-.055-.216-.214-.007-.028-.065-.043-.079-.022-.147.22-.26.077-.376.051-.286-.07-.568-.162-.86-.219a12.648 12.648 0 0 0-2.052-.2c-.083-.002-.167-.046-.25-.068l.003.005a6.171 6.171 0 0 0-.567.037c-.139.016-.186-.122-.213-.313.51-.063 1.01-.108 1.508-.108.05-.001.104-.005.144.029.053.044.093.125.136.191l-.002-.004c.087-.02.165-.07.216-.207.012-.034.027-.091.02-.115-.016-.049-.047-.115-.074-.116-.297-.028-.597-.026-.898-.027-.69 0-1.386.063-2.078.172-.2.034-.413.027-.603.102-.206.079-.41.137-.628.17-.178.029-.348.092-.521.144a1.304 1.304 0 0 1-.27.043c-.115.009-.137-.04-.119-.276v.005c-.054-.008-.117-.032-.163-.02-.212.063-.414.149-.62.23-.024.009-.04.032-.06.052-.047.047-.005.162.086.224.042.028.087.034.13.05.04-.049.08-.101.126-.141.01-.01.048.027.072.042-.004.028 0 .08-.014.081-.06.011-.125.01-.19.013-.135.252-.286.432-.57.448-.18.014-.313.17-.462.27-.085.056-.152.142-.242.188-.19.101-.41.159-.59.281-.282.179-.58.352-.78.623-.187.25-.4.417-.727.475l-.16-.178c-.033.04-.079.07-.09.12-.009.053-.002.14.036.19.15.19.073.259 0 .33-.274.299-.544.593-.826.898l-.536.5h.001c-.079.321-.199.505-.293.444-.005-.042-.008-.083-.013-.144-.059.015-.095.032-.14.034-.382.018-.558.22-.654.507-.131.4-.334.758-.472 1.146-.146.4-.36.77-.457 1.184-.082.305-.147.616-.21.923-.05.312-.089.622-.15.927-.186.94-.254 1.905-.112 2.849.12.565.107 1.138.224 1.696.13.786.319 1.56.594 2.303.213.567.479 1.107.791 1.62.307.543.7 1.033 1.08 1.512.121.138.223.29.346.426.388.46.864.831 1.299 1.223.082.063.158.123.237.187l1.19.932c.324.254.638.52.971.764.31.23.644.434.958.66.357.257.588.646 1.071.77.03.006.045.032.067.05.323.242.654.49.967.727.51.404 1.03.796 1.507 1.232.485.444.924.932 1.38 1.403.096.1.193.196.268.313.258.409.526.833.787 1.25.026.038.046.086.093.1.066.017.15.05.236-.002.16-.097.1-.191.155-.294.008-.012.025-.027.053-.06.062.064.142.111.183.192l.656 1.407c.105.232.27.397.592.392.154-.003.181.134.317.156.067.01.027.162.033.251.025.364.212.572.525.66-.06-.266-.299-.377-.258-.728.064 0 .115.01.13.053a.453.453 0 0 0 .398.325c.042.006.068.033.094.06.128.13.249.264.382.388.022.02.092.014.139-.02a.64.64 0 0 0 .136-.174c.034-.056.028-.114.15-.173l.577.403c.073.054.135.12.195.185.055.06.08.153.158.183.075.031.2 0 .3-.003l-.046.097c-.16.345-.117.448.167.38a.753.753 0 0 1 .442.015c.285.098.673.031 1.215-.33.088.258.457.154.768.121a.467.467 0 0 0 .222-.12c.093-.098.026-.12 0-.154-.028-.041-.134-.027.017-.216.168-.001.433-.169.582-.113z" fill="#FFE5E5"/><path d="M7.04 13.87c-.075-.426.145-.658.343-.886.078-.096.188-.17.247-.278.162-.31.344-.606.635-.814.209-.157.348-.391.485-.62.221-.363.527-.64.838-.916.631-.562 1.279-1.123 1.995-1.6a.889.889 0 0 1 .308-.142c.276-.052.492-.201.717-.351a3.59 3.59 0 0 1 .746-.396c.413-.15.84-.25 1.268-.334.023-.005.055.02.135.054l-.357.243c-.369.236-.76.382-1.187.473-.081.016-.17.028-.236.074-.647.465-1.353.798-1.985 1.26-.343.249-.69.496-1.005.778-.199.185-.367.4-.549.599-.227.23-.466.452-.664.713-.29.372-.663.681-.844 1.139a.224.224 0 0 1-.074.096c-.31.22-.535.516-.67.866-.008.019-.055.017-.146.042M27.753 14.374c-.059-.075-.102-.118-.134-.17-.329-.543-.561-1.032-1.044-1.678a7.863 7.863 0 0 0-.454-.558 11.667 11.667 0 0 0-1.644-1.53.625.625 0 0 1-.228-.333c.45-.126.75.046.92.398.07.134.161.218.296.258.115.032.204.118.293.197.095.092.16.225.264.3.183.13.308.32.415.528.054.103.183.135.27.21.068.06.139.122.19.2.16.261.345.59.438.81l.456.993c.036.077.065.16-.038.375M22.138 8.888c.289.106.534.197.765.28.137.052.295.049.428.113.277.127.52.323.72.575.012.016.003.094-.006.104-.037.034-.091.083-.114.073a6.41 6.41 0 0 1-.484-.227 22.055 22.055 0 0 0-.957-.51 1.463 1.463 0 0 1-.283-.18c-.03-.024-.033-.108-.07-.228M28.82 40.78c.03-.059.045-.126.086-.166.045-.047.154-.108.168-.095.124.124.324.15.543.157.026 0 .034.05.015.085a.347.347 0 0 1-.125.1c-.108.024-.224.055-.305.042-.135-.023-.245-.077-.381-.124M21.813 15.209c.174-.057.326-.04.487-.043.017-.001.004.063.004.097-.044.05-.102.139-.126.148-.079.032-.154.055-.208.043-.08-.02-.139-.08-.208-.122l.051-.123zM21.663 8.597c.063.117.177.162.191.38-.308.07-.504-.149-.733-.314.159-.085.328-.225.45-.003.007.014.062-.043.096-.068l-.004.005zM16.307 7.163a1.374 1.374 0 0 1-.78.243c-.042-.21.056-.225.125-.26.207-.1.439.037.655.017M20.2 38.335c.242.042.22.23.214.462-.258-.013-.315-.138-.213-.462" fill="#FFE5E5"/><path d="M9.398 12.096c-.03.01-.09.036-.16.05-.018.003-.07-.031-.094-.057-.024-.026-.052-.078-.044-.092.03-.059.062-.12.118-.15a.275.275 0 0 1 .201-.022c.065.02.07.17-.02.27M6.18 15.79c-.1-.195-.082-.319-.012-.425.02-.03.076-.065.117-.055.11.025.111.096.096.147-.03.115-.007.252-.2.333M6.476 14.745c.032-.063.047-.117.083-.156.014-.016.06-.01.091-.015.026.04.076.088.068.115a.98.98 0 0 1-.096.258c-.014.027-.082.025-.125.035-.027-.05-.072-.106-.075-.152-.003-.04.04-.067.054-.085M5.528 18.313c.08.2-.038.359-.02.536-.164-.003-.172-.068-.17-.117.005-.155.029-.31.19-.42M5.796 16.853c.142.18.087.277.014.373-.014.017-.062.017-.093.026-.029-.033-.083-.074-.075-.096.035-.093.089-.18.154-.303M5.569 17.964c-.035-.157-.056-.31.034-.477.121.243.123.24-.034.477M20.615 8.449c.107-.026.179-.052.248-.052.02 0 .049.082.042.118-.01.05-.047.115-.075.129-.095.047-.146-.037-.215-.195M8.865 12.446c.01.052.027.114.025.166 0 .02-.045.02-.072.028-.03-.045-.076-.097-.082-.136-.006-.039.027-.067.048-.096.003-.003.033.015.081.038M6.007 16.363c.03.087.062.129.054.16-.015.05-.065.088-.163.04-.025-.012-.048-.062-.038-.077.026-.037.074-.065.147-.123M11.445 10.18c-.057-.033-.112-.047-.14-.082-.06-.083-.039-.142.02-.147.03-.003.097.046.117.083.02.035.003.086.003.146M17.301 14.86l.066.105c-.006.032-.007.073-.017.092-.005.008-.027-.03-.04-.044-.003-.045-.004-.09-.009-.154M10.887 10.278c-.029.078-.058.158-.087.232-.002.005-.03-.007-.041-.02a.093.093 0 0 1-.025-.048c-.006-.122.08-.139.158-.16l-.005-.004zM17.973 8.838c-.006-.04-.018-.078-.019-.117 0-.101.037-.137.09-.119.018.005.048.067.046.074a.476.476 0 0 1-.059.123c-.015.022-.042.024-.063.034l.005.005zM28.291 41.16c.016.036.097.031-.004.146-.01.01-.035.023-.043.022-.078-.007-.01-.09.046-.168h.001zM28.509 41.02c.046-.032.096-.077.135-.092.03-.011.045.014.067.024-.04.029-.086.075-.114.083-.038.01-.06-.01-.088-.017v.002zM20.505 38.915c.033.007.07.001.08.02.009.016-.018.06-.029.092-.025-.009-.055-.012-.071-.028-.009-.01.01-.045.02-.084M6.07 16.185c-.008-.043-.023-.09-.017-.128.003-.017.051-.02.078-.03.014.027.047.063.038.076-.024.03-.068.052-.103.078l.003.004zM17.762 7.628c-.015.017-.03.036-.047.047 0 0-.023-.03-.023-.038.006-.027.016-.053.025-.079l.045.07zM5.346 20.778l-.007.1-.044.006-.005-.1.056-.006" fill="#FFE5E5"/><path d="M10.892 10.282c.018-.051.036-.1.06-.145.002-.005.053.033.078.056.007.007.01.044.003.046l-.146.04.005.003zM6.94 14.17l-.04.004-.01-.057c.015.005.036.009.045.017.009.01.004.024.005.036M5.33 21.439l.019-.03c.015.006.037.008.042.014.005.007-.01.02-.016.029l-.046-.013zM11.936 9.717l.016.055-.066-.018c.003-.016 0-.04.01-.046.006-.007.025.005.04.009M27.274 11.335c-.015.004-.032.012-.042.009-.01-.003-.013-.02-.02-.028.022-.008.043-.02.063-.023l-.001.042M5.51 22.97l-.035-.014.038-.013zM17.51 14.99l-.017-.046c.004-.006.007-.02.011-.015.005.006.011.028.017.043l-.01.019zM12.362 9.336c-.007.028-.012.057-.022.082-.002.006-.025-.007-.036-.012l.064-.067-.006-.003zM14.452 8.577l-.018.023-.006-.058zM6.29 25.62c.014.007.035.01.037.018.001.008-.018.022-.028.034-.013-.005-.034-.009-.035-.017-.002-.01.016-.022.027-.035M5.958 24.406c.005.02.013.03.007.04-.002.006-.029.01-.044.013l.037-.053M8.444 13.24l-.097.047-.038-.065.134.018zM22.482 15.382l-.023.041V15.4zM9.058 12.37c-.009-.015-.024-.033-.023-.042.001-.01.02-.009.032-.012.01.014.026.035.024.043 0 .01-.02.008-.033.012M21.667 8.592l-.004.005.004-.005zM16.783 7.821v-.005.005zM16.701 7.83l.004.005-.004-.005zM14.023 8.565l.077-.03-.003-.003-.074.028zM16.705 7.835l.078-.014.001-.004-.083.013zM14.1 8.534l-.003-.003.003.003zM12.368 9.339l-.005-.003.005.003zM6.066 16.18l.003.005-.003-.004zM6.797 14.357h-.002.002zM18.978 8.67l.002.004-.002-.004zM13.549 9.824c-.017.008-.024.016-.033.014l-.02-.035c.015.004.03.01.053.02M12.284 10.417v-.005.005zM16.287 8.927l-.034-.02c.009-.024.016-.05.027-.067.004-.006.022.011.032.018l-.025.07zM25.946 16.52l1.94-1.945a9.235 9.235 0 0 1 6.582-2.733c2.485 0 4.823.97 6.581 2.733 3.63 3.64 3.63 9.56 0 13.198L25.946 42.915" fill="#FFE5E5"/><path d="M28.36 41.413l-.015.014-.014-.03.028.016zm.707-4.438l.025.002.006.026-.03-.028zm13.343-5.14l.033.048-.036-.025.003-.023zM27.355 42.034l-.013.012-.01-.025.023.013zm3.05-1.925l.023.038-.036-.02.012-.018zm14.69-11.73l-.049-.047c.013-.003.024-.011.038-.008.01.002.022.02.034.032l-.023.023zm-16.79 10.73l.034-.014-.008.023-.027-.009zm-.412 1.817c.005-.006.015-.006.025-.009.002.009.01.023.006.027-.004.006-.017.006-.025.009-.002-.01-.01-.024-.006-.027zm1.06.322l-.03-.064.087.043.011.034c-.02-.004-.045-.01-.068-.013zm.27-.225l.043.039c-.012.01-.022.023-.036.032 0 0-.019-.018-.03-.026l.023-.045zm1.022-.645c.007-.005.019-.005.027-.008.004.018.017.045.01.051-.02.017-.047.024-.07.033l-.022-.022.055-.054zm-2.73 1.867l-.025-.025.08-.079.026.026-.081.078zm9.962-6.475l.036.033-.115.142-.05-.049.129-.126zm-8.185 3.242l.017.017-.13.127-.011-.021.124-.123zm.286 1.92c-.02-.06-.05-.111-.037-.119.046-.033.106-.052.16-.078l.036.04c-.048.045-.095.093-.16.156zm-1.582-.944l-.023-.024.17-.169.024.026-.17.167zm.588-.418l-.02-.02.195-.193.019.021-.194.192zm11.502-6.387c.125-.13.255-.255.413-.353l-.364.474c-.002.003-.026-.012-.056-.027.002-.034-.008-.077.007-.094zm-12.143 8.78c-.024.006-.092-.03-.13-.065-.085-.077-.065-.116-.04-.144.024-.028.04-.086.081-.068.07.033.16.159.21.093.037-.048.12-.052.182-.076.004.203-.147.235-.303.26zm11.132-7.488c-.032.068-.06.14-.095.206-.073.13-.142.263-.225.385a.9.9 0 0 1-.22.24c-.12.084-.262.144-.426.232l.051-.216c-.052-.021-.098-.042-.173-.074.615-.614 1.223-1.22 1.83-1.83.068.068.085.082.092.095.009.013.015.03.013.04a.135.135 0 0 1-.026.05l-.82.875-.001-.003zm-2.447 2.707l-.058-.053.105-.103-.272-.13c.094-.29.252-.41.567-.413.105 0 .137-.04.076-.193-.035-.09.042-.15.106-.181.094-.044.236-.031.326-.077.091-.046.146-.136.262-.25.036.288-.1.342-.162.457-.066.125-.182.202-.278.299-.09.09-.171.19-.273.267-.109.083-.237.146-.357.218l-.042.159zm-8.771 2.283c-.027-.153.055-.191.187-.176l.024-.01-.026.005-.185.18zm.767 2.1c-.05-.157.034-.17.154-.141l.046-.043c.002.012.013.03.008.032-.017.004-.039.003-.058.004l-.15.149zm14.813-10.85v-.101c.001-.01.013-.011.019-.018.006.015.02.039.017.047-.008.027-.026.048-.04.07l.004.002zM27.45 16.276l.005.034-.003.089c-.006-.012-.018-.03-.016-.035.005-.02.016-.035.024-.052l-.01-.036zm9.198 11.493zm6.72 3.19l-.001-.001h.002zM27.698 17.325l.14.22-.001-.002c.15-.047.179-.204.21-.36.028-.14.05-.284.228-.314a.743.743 0 0 1-.044.414c-.02.056-.049.105-.047.175.002.04.05.138.09.17.068.057.172.117.215.114.063-.005.104-.05.12-.106.147-.487.493-.785.824-1.098.11-.106.228-.228.33-.26.253-.1.53-.152.783-.213.35-.085.727-.083 1.05-.122.186-.025.374-.006.488-.168.034-.05.082-.063.188.1.073.113.115.109.122.022.008-.11.05-.152.133-.042.205.273.308.243.417.212.046-.009.092.002.155.063.076.075.147.113.203.103.051-.013.09-.08.161-.003.024.025.039-.076.05-.145.011-.071.006-.204.058-.125v-.003c.026.27.046.353.091.374.067.028.132.046.196.07.153.051.303.167.443.17.134.002.26.096.395.045.137-.041.254.146.378.17.107.018.202.102.298.147.077.042.161.05.235.097.058.034.105.105.165.13.261.099.515.213.76.347.069.034.156.039.231.07a.309.309 0 0 1 .121.084c.025.025.026.08.061.084.186.035.329.141.446.274.035.039.09.056.14.079.06.037.151.046.182.11.113.19.383.242.54.409.107.138.318.222.414.38.058.157.27.253.248.45-.004.03.03.047.058.067.213.142.258.352.379.544.09.116.043.26.185.373.02.016.007.04-.016.061-.068.06-.006.099.058.143.058.036.06.085.073.128.018.06.025.122.036.183.014.103.052.206.047.31 0 .041-.01.082-.005.123.013.12.05.244.058.366.006.144-.004.286.016.436.01.162-.001.325-.026.485-.008.073-.03.134.089.24.09.08.054.12-.042.15-.2.057-.278.154-.327.27-.06.156.046.396-.078.533-.14.133-.142.347-.257.499-.064.076-.128.147-.125.275.002.122-.04.227-.159.257-.137.04-.207.13-.258.244-.03.058-.04.098-.09.169l-.162.222c-.152.207-.39.33-.467.608-.022.075-.108.096-.164.144-.102.09-.25.141-.298.279-.106.299-.42.399-.518.705a.314.314 0 0 1-.163.185c-.204.102-.375.234-.434.482-.016.063-.125.05-.079.175.05.128-.018.144-.12.128-.156-.028-.2.073-.26.152-.135.175-.233.387-.403.522-.143.114-.152.357-.368.397-.01.212-.181.268-.308.369-.018.015.001.07.003.107l.014.042-.009-.04c-.24-.008-.37.096-.352.35l.079-.02c-.002.009 0 .024-.006.024-.024 0-.05-.006-.076-.01-.1.037-.222.05-.296.116a3.268 3.268 0 0 0-.52.523c-.104.143-.204.292-.203.536.001.208-.033.403-.204.473-.06.025-.085.092-.118.148-.074.13-.132.273-.217.392a.707.707 0 0 1-.232.191c-.048.027-.123.033-.225-.128-.052-.083-.122-.112-.158-.093-.1.051-.184.118-.149.326.071-.022.112-.038.16-.045.02-.002.062.016.087.04.022.02.055.073.051.084a.6.6 0 0 1-.092.171c-.058.069-.136.12-.194.189l-.778.947c-.023.028-.084.016-.112.038-.19.14-.394.268-.397.583 0 .062-.013.116-.108.066-.11-.059-.165-.042-.206-.004-.188.17-.441.273-.565.512-.072.139-.112.319-.342.3-.033 0-.037.04-.055.06-.156.18-.32.35-.463.54-.165.22-.401.37-.46.69-.012.065-.101.075-.172.089-.087.015-.153.049-.144.155.014.171-.076.248-.158.333-.056.06-.136.106-.139.205-.003.15-.129.176-.182.274-.032.06-.113.062-.251-.037-.122-.086-.164-.052-.184.01l-.048.177c.031.046.067.094.089.14.007.014-.018.02-.027.029-.01-.015-.021-.032-.026-.045l-.03-.122c-.137-.03-.197.017-.172.154.015.08.037.165.035.233-.005.113-.093.104-.32-.021-.058.063.074.287-.086.266l-.077-.166c-.037-.005-.084-.023-.107-.014-.06.026-.143.04-.05.19.1.163.046.21-.02.25-.113.065-.248.108-.341.193-.383.35-.781.684-1.105 1.094-.023.027-.088.037.019.166.175-.062.266-.217.495-.202.222.419.04.545-.036.749.354-.213.685-.442 1.014-.675.172-.122.327-.264.595-.274.014-.23.164-.322.373-.412-.032.262-.11.335-.376.405l-.237.229-.694.658c-.041.04-.118.06-.007.242.073-.017.145-.013.185-.043.152-.117.37-.164.452-.355.317-.06.428-.339.661-.488.032-.019.062-.04.097-.056a.086.086 0 0 1 .066-.004.258.258 0 0 1 .09.06c.022.027.044.075.038.087a.375.375 0 0 1-.106.122 4.05 4.05 0 0 0-1.04.967.967.967 0 0 0-.205.475c-.018.133-.05.244-.128.323l-.522.521c-.028.029-.038.075-.057.113.136.011.21-.039.292-.08.094-.047.193-.086.291-.13.089-.037.185-.067.265-.114.073-.042.112-.122.196-.151.088-.03.21-.02.32-.023.027-.002.063.008.094.012.017.044.06.113.046.126-.102.091-.214.17-.322.254-.169.128-.336.258-.5.384-.01.008.012.048.02.072.03.016.072.046.087.043l.423-.142c.25-.091.482-.204.752-.27.162-.039.296-.103.413-.194.182-.138.343-.302.576-.381.604-.204 1.079-.552 1.593-.857.249-.147.478-.316.717-.474.494-.33.996-.662 1.48-.984.282-.191.549-.402.82-.607.06-.044.11-.092.253-.027.026.012.06-.02.048-.041-.12-.23.04-.222.11-.284.17-.15.37-.272.546-.416l1.227-1.01c.05-.04.127-.049.192-.072l-.007-.002.32-.289c.074-.073.19.012.325.149-.268.265-.531.522-.795.781-.025.026-.05.056-.096.053-.059-.006-.137-.043-.208-.065l.003.002c-.031.06-.035.138.038.261.018.03.05.078.072.091.042.025.105.055.12.043l.491-.43 1.134-.981c.11-.094.249-.161.336-.277.095-.123.199-.234.336-.315.11-.066.193-.167.293-.246a.68.68 0 0 1 .172-.093c.08-.03.117.006.217.208l-.001-.005c.041-.003.097.006.124-.014.12-.093.233-.193.344-.292.013-.012.015-.035.021-.053.013-.046-.066-.14-.16-.178-.043-.017-.079-.015-.118-.023-.009.048-.014.099-.032.14-.003.01-.046-.016-.071-.024-.009-.024-.034-.067-.026-.07.04-.02.09-.03.134-.043-.009-.236.038-.41.25-.458.134-.03.18-.176.26-.273.047-.057.07-.136.127-.18.121-.095.272-.16.387-.263.174-.16.373-.301.476-.524a.552.552 0 0 1 .512-.351c.058.06.113.116.168.17.02-.03.054-.047.053-.091a.3.3 0 0 0-.063-.166c-.16-.182-.103-.23-.053-.284.203-.208.4-.423.618-.615.13-.114.294-.19.443-.283.06-.244.167-.361.247-.284l.013.122c.05.005.082 0 .12.013.32.092.476 0 .574-.187.137-.258.32-.475.5-.694.185-.227.4-.425.583-.654.352-.468.739-1.004 1.071-1.517.273-.398.55-.789.757-1.224.224-.423.414-.863.528-1.331l.512-1.64c.197-.774.354-1.553.405-2.344.04-.6.018-1.203-.049-1.795l-.136-.92-.22-.899c-.04-.178-.066-.36-.13-.532l-.306-.843c-.12-.275-.251-.543-.379-.81-.058-.123-.112-.239-.17-.359-.322-.582-.656-1.148-1.057-1.666-.297-.444-.674-.827-1.026-1.216a16.398 16.398 0 0 0-1.136-.921c-.432-.327-.795-.767-1.375-.878-.036-.006-.06-.032-.09-.048-.43-.246-.888-.438-1.334-.633-.73-.305-1.488-.511-2.237-.696-.76-.187-1.527-.355-2.307-.42-.163-.016-.325-.023-.487-.053-.57-.12-1.156-.207-1.757-.238-.056-.002-.117-.014-.166.016-.068.041-.164.096-.177.199-.024.186.11.19.164.293.007.013.008.037.017.078-.102.017-.202.058-.306.046a12.237 12.237 0 0 0-1.829-.068c-.305.012-.584.119-.742.444-.075.154-.237.139-.322.27-.042.066-.186-.013-.287-.029-.409-.065-.728.102-.94.424.311-.03.536-.255.897-.135-.026.065-.06.113-.11.12-.218.029-.4.13-.5.351-.02.043-.059.067-.095.09a5.647 5.647 0 0 0-.535.357c-.028.022-.04.095-.016.148a.617.617 0 0 0 .154.16c.054.04.116.04.15.174a13.45 13.45 0 0 0-.53.575c-.067.075-.143.137-.22.2-.072.054-.169.086-.209.168-.037.079-.014.21-.015.314l-.1-.044c-.352-.157-.45-.118-.383.17a.76.76 0 0 1-.016.442c-.097.285-.031.675.328 1.218-.254.088-.151.457-.12.77a.487.487 0 0 0 .121.223c.097.093.118.026.154 0 .04-.029.026-.135.215.018.001.167.167.433.112.582h.001zM43.094 32.356c.043.346-.14.448-.293.574-.063.051-.153.078-.197.147-.124.197-.26.377-.471.489-.155.084-.243.246-.325.405-.13.252-.327.44-.516.635-.385.397-.727.838-1.089 1.258a.38.38 0 0 1-.175.133c-.189.056-.285.2-.383.347-.102.152-.213.3-.35.417-.215.185-.454.342-.686.509-.012.01-.047-.006-.117-.014.04-.109.07-.197.108-.278.126-.271.328-.466.592-.597.052-.027.109-.047.137-.095.262-.468.677-.788 1.03-1.169.192-.205.404-.394.593-.603.121-.134.208-.304.325-.442.143-.167.314-.305.45-.477.197-.251.472-.428.615-.732a.104.104 0 0 1 .06-.056c.257-.086.428-.26.564-.471.008-.013.048.006.128.02M28.087 43.18c.074-.057.117-.102.17-.133.53-.311 1.066-.624 1.594-.935l.5-.305 1.51-.947c.076-.048.167-.079.328-.054.031.41-.15.573-.476.595-.128.007-.209.058-.254.159-.037.086-.118.135-.195.184-.085.056-.204.074-.275.142-.124.12-.288.188-.474.236-.094.023-.119.132-.183.196-.05.049-.101.1-.168.133-.23.098-.483.209-.714.31l-.99.458c-.077.035-.16.064-.373-.039M33.753 39.834c-.173.144-.323.258-.46.386-.079.074-.122.185-.205.254a1.423 1.423 0 0 1-.647.282c-.016.002-.081-.038-.087-.05-.023-.043-.054-.105-.04-.12a2.19 2.19 0 0 1 .302-.272c.224-.159.458-.307.692-.456a.861.861 0 0 1 .238-.1c.029-.01.098.034.207.076" fill="#FFE5E5"/><path d="M28.076 17.857c.057.028.125.043.165.085.046.046.108.154.095.168-.124.125-.15.326-.156.545-.001.025-.05.033-.086.014a.354.354 0 0 1-.1-.125c-.024-.108-.054-.224-.04-.305.022-.137.075-.247.122-.382M28.196 36.808c-.039.226-.145.398-.22.595-.008.02-.069-.006-.106-.011-.035-.058-.102-.14-.1-.17.008-.1.02-.2.068-.264.069-.094.17-.16.257-.236l.1.086zM34.15 39.685c-.115-.027-.191.022-.372-.091.053-.249.301-.256.522-.296.005.153.048.338-.168.289-.014-.004.012.066.02.102l-.002-.004zM37.775 38.026c.037-.215.164-.339.327-.428.145.155.095.195.074.243-.064.14-.289.096-.4.185M32.464 10.094c-.212.178-.373.069-.602-.054.19-.22.363-.212.602.054M41.148 33.168c.025-.002.074-.015.132-.013.016 0 .065.039.088.066.023.025.053.075.049.086-.02.041-.04.087-.084.102a.235.235 0 0 1-.17-.02c-.059-.025-.082-.152-.015-.22M44.002 31.284c.055.188.025.269-.048.313-.02.013-.072.013-.105-.012-.09-.068-.08-.12-.062-.15.041-.07.044-.182.215-.15M43.62 31.91c-.033.032-.054.063-.086.08-.011.007-.05-.017-.077-.026-.017-.039-.058-.097-.049-.114a.401.401 0 0 1 .11-.149c.016-.014.073.017.112.027.016.05.047.108.045.144 0 .029-.042.03-.055.038M45.494 29.388c.004-.221.181-.313.247-.478.149.073.127.133.1.177-.075.134-.16.266-.347.301M44.644 30.602c-.056-.225.032-.291.137-.347.02-.012.063.009.095.014.01.041.044.102.028.119-.068.07-.151.128-.26.214M45.317 29.694c-.03.16-.07.31-.232.416 0-.264-.003-.261.232-.416M34.672 39.118c-.026.08-.036.14-.065.181-.009.012-.083-.02-.108-.048-.034-.035-.07-.099-.068-.125.003-.088.09-.067.241-.008M41.568 32.976c-.012-.046-.032-.102-.037-.147 0-.017.039-.007.059-.009.03.045.074.098.084.133.008.034-.018.05-.034.07l-.072-.047M44.259 30.966c.007-.093-.006-.145.014-.168.035-.042.094-.056.164.03.017.02.018.076.002.085-.039.024-.091.03-.18.053M39.83 34.65c.057.03.105.04.137.07.075.073.074.123.028.128-.022.001-.09-.04-.118-.072-.028-.03-.028-.074-.047-.125M32.776 32.104l-.122-.047c-.006-.035-.023-.076-.018-.1.003-.013.043.006.066.01l.074.137M40.253 34.572l.01-.195s.027.008.04.02c.012.01.028.03.032.042.037.105-.028.115-.087.13l.005.003zM35.737 37.406c.03.025.062.05.088.078.068.076.07.121.027.132-.014.004-.072-.026-.075-.033a.575.575 0 0 1-.049-.12c-.005-.024.01-.037.016-.056l-.007-.001zM27.697 17.325c-.037.016-.031.097-.146-.004-.01-.01-.024-.035-.023-.042.007-.08.092-.01.168.045l.001.001zM27.836 17.543c.032.046.076.097.091.136.011.03-.013.046-.023.067-.03-.04-.076-.087-.084-.115-.01-.037.01-.06.018-.087l-.002-.001zM31.68 10.062c-.028.027-.048.063-.074.064-.02 0-.048-.044-.073-.07.026-.017.05-.045.077-.05.015-.004.039.029.07.056M44.166 31.06c-.003.033 0 .072-.013.096-.006.01-.046-.01-.071-.018-.006-.024-.026-.066-.016-.07.026-.01.067-.003.102-.003l-.002-.005zM36.655 38.214c-.003-.018-.007-.04-.006-.054 0 0 .033.011.037.018.017.023.027.047.04.07l-.071-.034zM46.694 27.218l.046-.091.042.013a3.285 3.285 0 0 0-.033.096l-.055-.018" fill="#FFE5E5"/><path d="M40.248 34.569c-.002.043 0 .086-.007.123 0 0-.052-.03-.08-.05-.007-.006-.02-.037-.015-.04.033-.013.07-.02.107-.03l-.005-.003zM43.19 32.163l.036.012.005.047c-.013-.01-.03-.02-.038-.03-.007-.011-.001-.02-.002-.03M46.983 26.62l-.031.016c-.011-.01-.03-.021-.032-.03-.001-.007.017-.011.028-.017l.035.03zM39.588 35.063l-.031-.049.056.014c.004.014.014.033.01.04-.003.006-.023-.004-.035-.005" fill="#FFE5E5"/><g transform="translate(30.673 42.4)"><mask id="b" fill="#fff"><use xlink:href="#a"/></mask><path d="M.273.539C.269.525.259.509.263.5c0-.009.015-.009.023-.012.007.02.019.042.023.06L.273.54" fill="#FFE5E5" mask="url(#b)"/></g><g transform="translate(47.255 24.9)"><mask id="d" fill="#fff"><use xlink:href="#c"/></mask><path fill="#FFE5E5" mask="url(#d)" d="M.208.25l.024.024-.04-.002z"/></g><path d="M32.475 32.155l.04.029c-.002.008.002.025-.006.023-.007 0-.023-.017-.037-.026l.003-.026zM39.393 35.415c-.004-.024-.012-.05-.013-.072 0-.005.022.005.032.007l-.024.063.005.002zM38.183 36.372l.002-.024.033.047z" fill="#FFE5E5"/><g transform="translate(47.255 22.274)"><mask id="f" fill="#fff"><use xlink:href="#e"/></mask><path d="M.592.137C.582.127.563.115.565.107.567.096.59.091.603.086c.01.01.028.021.027.03C.629.125.606.13.592.137" fill="#FFE5E5" mask="url(#f)"/></g><g transform="translate(47.255 23.15)"><mask id="h" fill="#fff"><use xlink:href="#g"/></mask><path d="M.393.504C.395.484.392.47.4.464.406.46.431.467.447.47L.393.504" fill="#FFE5E5" mask="url(#h)"/></g><path fill="#FFE5E5" d="M41.888 32.417l.083-.012.034.065-.117-.052zM27.651 37.594l-.034-.033.026.002zM41.411 33c.01.014.025.032.025.041 0 .007-.017.004-.027.004-.01-.014-.025-.035-.025-.042 0-.007.018-.003.027-.003M34.152 39.689l-.002-.005.002.005zM37.091 37.68l.003.004-.003-.005zM37.135 37.643l-.006-.003.006.003zM38.494 36.293l-.04.042.003.001.039-.038z"/><path fill="#FFE5E5" d="M37.13 37.64l-.04.04.004.004.041-.04zM38.454 36.335h.003-.003zM39.388 35.413l.005.002-.005-.002zM44.168 31.065l-.002-.005.002.005zM43.321 32.075h.002-.002zM35.287 38.036l-.005-.001.005.001zM38.283 35.138c.01-.01.013-.018.02-.018l.03.028c-.014-.001-.028-.005-.05-.01M39.075 34.475l.002.003-.002-.003zM36.742 36.625l.034.004c.007.021.019.046.02.064 0 .006-.02-.002-.033-.004l-.021-.064z"/><g transform="translate(1 3.024)"><mask id="j" fill="#fff"><use xlink:href="#i"/></mask><path d="M22.846 7.181l.102.028c.04.012.058.034.049.078-.004.015.012.034.018.051.054-.024.078-.003.083.052.004.043.01.073-.047.098-.047.02.004.074.002.113-.002.018-.017.052-.023.05-.024-.001-.058-.008-.068-.026-.027-.045-.044-.097-.07-.16-.065.164-.065.164-.147.247-.057-.08-.059-.211-.187-.23-.034.04.007.062.023.089.054.088.037.176-.004.261-.024.054-.087.057-.116.008-.034-.058-.044-.139-.141-.148l.013.056c.006.07-.02.107-.077.091a1.194 1.194 0 0 1-.273-.102c-.068-.038-.12-.098-.209-.06-.012.007-.046-.007-.054-.022-.058-.109-.189-.115-.27-.194-.059-.056-.142-.086-.183-.168-.014-.026-.055-.039-.083-.058-.029-.02-.064-.035-.082-.062a1.48 1.48 0 0 0-.443-.413c-.012-.008-.027-.014-.034-.027-.088-.15-.243-.231-.36-.351a6.627 6.627 0 0 0-.601-.534 1.076 1.076 0 0 1-.227-.237.784.784 0 0 0-.323-.288 1.446 1.446 0 0 1-.387-.277 6.305 6.305 0 0 0-.592-.448.53.53 0 0 0-.132-.065c-.115-.038-.212-.105-.321-.166a9.04 9.04 0 0 0-1.24-.592 12.031 12.031 0 0 0-.702-.235 13.124 13.124 0 0 0-1.511-.37c-.342-.07-.685-.075-1.03-.107-.331-.033-.668-.016-1-.017-.299-.005-.594.004-.881.078-.068.018-.147.016-.22.026-.22.03-.436.078-.655.118-.312.067-.623.144-.928.236-.48.154-.947.338-1.402.552-.076.038-.16.058-.234.098-.194.1-.403.18-.57.328-.05.044-.122.083-.184.119-.45.232-.855.542-1.226.886a.983.983 0 0 1-.228.185c-.162.074-.265.204-.37.335-.071.087-.156.147-.228.225-.063.067-.095.164-.154.239-.06.074-.133.147-.206.208-.135.109-.255.23-.338.383-.141.234-.298.455-.46.67-.142.23-.286.465-.425.694-.224.383-.386.8-.565 1.203-.36.908-.576 1.866-.694 2.837l-.012.408-.006.37c-.013.839.049 1.685.242 2.505.066.249.12.504.206.748.056.162.099.328.15.493.035.117.057.249.111.351.177.274.292.57.424.864.1.184.22.356.324.536.16.294.355.563.553.829.176.268.366.526.589.76.228.265.477.54.78.816l.548.548 1.3 1.31 1.036 1.052 1.222 1.213c.568.573 1.12 1.166 1.7 1.723.967.93 1.876 1.914 2.838 2.848.283.274.55.568.824.852l.624.649c.072.077.146.161.198.245a.885.885 0 0 0 .276.282c.156.104.285.219.38.394.053.101.165.209.258.307.517.53 1.028 1.058 1.545 1.589l.387.42.266.295c.385.413.768.821 1.154 1.237.131.14.221.307.25.502.01.062.03.123.047.184.024.084.017.112-.066.152-.12.059-.239.119-.33.22-.05.054-.106 0-.166.012-.028.08-.03.18-.141.213-.019.005-.014.077-.028.114-.024.065-.082.08-.136.039-.033-.025-.06-.06-.095-.085a.464.464 0 0 0-.127-.07c-.075-.02-.15-.036-.208-.094a.09.09 0 0 0-.036-.022c-.242-.088-.241-.088-.38-.224-.04-.04-.08-.082-.126-.113-.215-.14-.382-.333-.579-.493-.016-.012-.037-.025-.046-.042-.066-.142-.2-.214-.312-.309a1.745 1.745 0 0 1-.379-.395c-.029-.046-.097-.09-.147-.134l-.214-.188-1.352-1.311-.936-.915-.088-.088c-.46-.485-.936-.953-1.417-1.417l-1.077-1.064-1.884-1.88-.057-.058c-.573-.508-1.082-1.081-1.63-1.615l-.705-.685-.343-.352-.354-.342c-.223-.22-.45-.44-.672-.658l-.342-.35-.32-.318-.95-.957-1.09-1.103a14.965 14.965 0 0 0-.488-.514c-.21-.21-.428-.413-.566-.683a1.154 1.154 0 0 0-.153-.217 4.565 4.565 0 0 1-.642-.912c-.184-.322-.402-.627-.547-.97l-.36-.769C.74 17.596.52 16.991.388 16.362a7.783 7.783 0 0 1-.213-1.006c-.047-.34-.127-.678-.135-1.022-.015-.36-.052-.718-.036-1.077l.032-.31.026-.396c.002-.089-.01-.18-.003-.267l.148-1.18c.07-.388.167-.774.275-1.157l.178-.556.192-.547c.032-.1.065-.198.113-.291l.218-.438c.073-.146.137-.31.223-.431.185-.249.306-.49.404-.766.036-.102.1-.22.166-.313.17-.234.268-.367.396-.541.245-.338.513-.66.82-.934.178-.168.313-.357.472-.533.117-.121.215-.29.382-.33a.178.178 0 0 0 .059-.054c.174-.246.414-.436.672-.602a.244.244 0 0 0 .061-.057c.11-.194.3-.293.5-.391.242-.13.477-.256.689-.459.186-.17.426-.32.684-.381.19-.04.357-.126.503-.243a1.39 1.39 0 0 1 .55-.256c.041-.009.087-.017.125-.033.293-.141.619-.224.907-.349.283-.113.557-.192.853-.233.218-.034.445-.072.657-.12.181-.042.34-.102.545-.106.168-.005.346-.053.523-.032a.524.524 0 0 0 .2-.034.821.821 0 0 1 .54-.036c.133.032.278.03.435.014.644-.056 1.3.018 1.946.12.086.014.17.045.255.067.056.014.144.043.165.035.158-.059.336.045.5.067.188.024.376.097.562.15.172.048.342.112.51.174.327.117.634.282.977.363a.876.876 0 0 1 .233.112c.162.1.314.207.506.251.013.004.031.006.04.012.33.236.715.335 1.045.578.285.206.596.396.878.619.15.12.299.244.433.382.156.157.306.314.45.482.045.048.071.067.095.067.113.007.182.07.223.168.027.078.077.122.156.156.115.05.214.131.279.25.033.062.082.113.12.174a.176.176 0 0 0 .114.085c.086.016.13.076.16.153.035.085.075.169.175.198.152.174.322.334.448.531.015.027.016.069.012.102-.004.045-.007.085.044.103.042.016.065-.003.091-.032.008-.01.041-.012.052-.004.014.01.019.035.02.055 0 .01-.013.023-.022.035-.012.016-.04.035-.038.048.018.095-.018.16-.1.204.007.094-.057.094-.123.097-.012 0-.024.014-.048.03l.225.292c.055.068.058.082-.011.125l-.074.04c-.023.011-.048.021-.068.038-.006.004 0 .024 0 .036.011-.001.028.002.032-.005.014-.022.023-.048.035-.072" fill="#333" mask="url(#j)"/></g><g transform="translate(21.073 3.9)"><mask id="l" fill="#fff"><use xlink:href="#k"/></mask><path d="M1.535 39.119l-.027.102c-.012.04-.034.059-.079.05-.016-.003-.033.012-.05.018.023.054.002.078-.053.084-.043.004-.073.01-.098-.048-.019-.047-.074.004-.111.002-.02-.002-.053-.016-.052-.023.003-.024.01-.058.026-.069.047-.027.098-.043.161-.07-.165-.064-.165-.064-.247-.147.081-.057.211-.06.23-.188-.04-.034-.062.007-.089.024-.089.054-.175.037-.261-.004-.053-.024-.057-.088-.007-.117.058-.034.138-.043.146-.142-.019.005-.037.012-.055.013-.069.007-.106-.02-.09-.077.025-.093.054-.19.1-.273.038-.068.1-.12.06-.209-.005-.013.009-.047.023-.054.108-.06.115-.19.194-.272.055-.059.086-.142.167-.183.026-.013.04-.054.059-.083.02-.028.034-.064.062-.082.17-.117.301-.272.411-.445.008-.012.014-.027.026-.034.15-.088.231-.243.351-.361.2-.195.368-.4.558-.617.092-.098.176-.198.286-.26a1.07 1.07 0 0 0 .363-.354c.103-.158.233-.282.38-.41.218-.192.429-.397.64-.598a.742.742 0 0 0 .111-.133c.075-.121.18-.213.285-.317l1.137-1.162c.198-.21.409-.43.606-.636.431-.44.857-.888 1.304-1.308.299-.283.56-.594.858-.876l.837-.841c.257-.243.512-.477.73-.754.05-.065.125-.122.186-.184l.552-.567.804-.81 1.259-1.28c.071-.07.158-.13.226-.201.18-.19.39-.35.54-.565a1.23 1.23 0 0 1 .181-.19c.448-.403.87-.829 1.272-1.277.078-.085.17-.187.253-.24.177-.11.303-.256.425-.413.081-.105.185-.175.275-.263.078-.075.127-.182.203-.267.076-.085.167-.167.255-.237.16-.126.307-.263.44-.419.422-.49.902-.925 1.36-1.379.344-.373.662-.702.953-1.086.666-.811 1.15-1.752 1.534-2.725l.138-.414c.04-.126.081-.252.107-.382.242-.869.386-1.766.409-2.67.017-.279-.032-.557-.037-.834-.004-.185-.002-.37-.029-.553-.015-.132-.015-.273-.047-.393l-.233-1.006a3.869 3.869 0 0 0-.202-.643c-.117-.337-.228-.678-.389-.997-.137-.316-.267-.635-.452-.928l-.29-.5-.349-.459c-.154-.2-.292-.408-.47-.59a9.691 9.691 0 0 0-1.267-1.265 10.43 10.43 0 0 0-1.162-.84c-.476-.29-.977-.534-1.49-.749-.723-.295-1.477-.534-2.254-.642-1.285-.176-2.615-.191-3.885.11a12.78 12.78 0 0 0-1.114.29c-.277.09-.552.189-.821.303-.095.04-.198.075-.292.093a.864.864 0 0 0-.347.171c-.145.111-.28.213-.473.252-.11.02-.236.11-.35.178-.617.382-1.192.834-1.72 1.338l-.445.41-.306.278c-.41.386-.818.77-1.232 1.157a.923.923 0 0 1-.502.25c-.06.01-.122.03-.182.047-.086.024-.112.016-.153-.066a1.031 1.031 0 0 0-.219-.33c-.053-.05 0-.108-.011-.167-.08-.029-.18-.03-.213-.142-.005-.02-.076-.014-.115-.028C.684 6.417.67 6.36.71 6.305c.025-.034.06-.06.084-.094a.411.411 0 0 0 .07-.129c.021-.075.036-.151.095-.208a.091.091 0 0 0 .02-.037c.089-.242.09-.242.225-.38.04-.041.082-.08.112-.127.14-.214.332-.383.491-.58.014-.016.025-.038.043-.047.141-.066.214-.2.309-.312.032-.046.228-.284.415-.402.05-.034.098-.105.145-.159.069-.077.144-.163.22-.24.518-.511 1.081-.98 1.683-1.395.422-.281.855-.55 1.31-.778l.128-.065A15.248 15.248 0 0 1 8.243.533C8.808.373 9.387.255 9.971.188a12.17 12.17 0 0 1 3.089.004l.094.011c.891.072 1.759.327 2.598.628.362.127.716.27 1.066.428l.511.264.504.277c.315.187.627.382.924.598.16.106.301.234.453.352a10.17 10.17 0 0 1 1.52 1.45c.423.433.754.943 1.114 1.43l.408.644c.182.265.351.535.442.846.028.087.069.183.115.262.218.338.333.726.462 1.103.147.373.25.758.343 1.147.076.294.153.588.184.89.119.68.138 1.37.16 2.057-.012.366-.026.734-.04 1.105-.033.368-.086.734-.134 1.1-.056.382-.168.753-.256 1.129a2.062 2.062 0 0 1-.108.315l-.145.4c-.03.09-.047.187-.08.276-.298.795-.627 1.588-1.107 2.296-.106.177-.214.36-.342.525l-.368.503c-.066.089-.126.184-.196.27-.116.12-.24.253-.362.38-.12.126-.24.273-.364.373-.26.214-.42.397-.583.64a1.465 1.465 0 0 1-.233.257c-.166.145-.316.303-.472.455-.291.286-.596.561-.902.825-.183.156-.325.336-.489.502-.116.118-.204.289-.37.331-.013.003-.046.036-.058.055-.155.255-.382.45-.611.645a.214.214 0 0 0-.054.065c-.083.2-.254.321-.429.452a2.335 2.335 0 0 0-.572.577c-.137.208-.322.41-.548.54a1.135 1.135 0 0 0-.393.384 1.43 1.43 0 0 1-.41.432c-.035.023-.075.049-.1.078-.212.24-.463.454-.658.692-.19.234-.388.427-.61.619a4.859 4.859 0 0 0-.475.453c-.12.138-.215.272-.369.402-.126.106-.239.247-.383.346a.507.507 0 0 0-.127.154.894.894 0 0 1-.37.383c-.117.066-.221.166-.319.284-.407.491-.874.933-1.328 1.386-.06.061-.132.111-.198.167-.043.036-.117.09-.122.113-.038.16-.214.254-.32.378-.12.141-.266.269-.403.402l-.382.362c-.25.232-.515.446-.715.73a.847.847 0 0 1-.184.173c-.152.11-.295.223-.394.389-.007.012-.015.027-.024.034-.32.238-.511.578-.808.843-.258.23-.491.498-.74.746-.134.133-.276.26-.417.383l-.497.417c-.048.042-.067.067-.067.089-.004.107-.06.17-.156.204-.077.027-.12.076-.155.155a.569.569 0 0 1-.248.28c-.062.033-.114.082-.174.12-.043.029-.074.062-.084.114-.017.087-.076.131-.153.16-.087.035-.169.076-.2.176-.173.153-.332.324-.529.449-.026.016-.067.016-.1.013-.047-.004-.085-.008-.104.045-.016.04.004.063.033.09.01.008.011.042.004.051-.011.014-.036.02-.055.02-.012.001-.024-.013-.035-.021-.016-.013-.034-.04-.048-.038-.095.017-.16-.018-.204-.1-.094.006-.094-.058-.096-.124 0-.011-.014-.024-.03-.047l-.29.225c-.069.055-.083.058-.126-.012l-.039-.074c-.013-.023-.023-.047-.038-.068-.006-.006-.025 0-.038 0 .002.012 0 .028.005.032.023.015.048.024.073.035" fill="#333" mask="url(#l)"/></g></g></svg>
