<svg width="48" height="48" xmlns="http://www.w3.org/2000/svg" xmlns:xlink="http://www.w3.org/1999/xlink"><defs><path id="a" d="M.04.48h30.708v43.382H.041z"/><path id="c" d="M.687.19h.759v.827h-.76z"/><path id="e" d="M.731.378h.837v.45H.731z"/><path id="g" d="M.119.527h.49v.828h-.49z"/><path id="i" d="M0 .725h28.604v42.421H0z"/></defs><g fill="none" fill-rule="evenodd"><path d="M35.714 19.741c0-5.496-4.507-9.95-10.066-9.95-5.56 0-10.067 4.454-10.067 9.95 0 7.542 10.067 19.901 10.067 19.901s9.161-11.249 10.004-18.832" fill="#C3F4C9"/><g transform="translate(10.186 2.586)"><mask id="b" fill="#fff"><use xlink:href="#a"/></mask><path d="M10.684 20.167l-.02.02-.017-.013.037-.007zm-.793-1.64l-.003-.017.033.003-.03.014zm4.821 8.245l.01-.013-.027.064.017-.05zm7.431-.472l.031.021-.032.006.001-.027zM10.41 19.465c.007-.01.028-.022.044-.034.004.007.014.013.011.02-.002.008-.016.017-.025.026-.012-.004-.033-.007-.03-.012zm-.297-.402c-.017.006-.04.005-.06.007l.043-.037.045.006c-.008.008-.015.02-.028.024zm13.732 4.187c-.018.004-.046.002-.07.003.002-.011 0-.025.008-.032.007-.005.029-.004.044-.007.007.013.025.034.018.036zm1.83-3.06l-.046-.006.063-.048c-.009.031-.009.044-.017.054zm-.295-7.928l-.038.035-.001-.039.039.004zm-2.434 15.445l.053-.012-.016.029-.037-.017zm2.951-14.697c.003.01-.011.026-.018.04-.01-.01-.025-.016-.027-.027-.001-.01.011-.025.018-.038.009.009.026.014.027.025zM28.4 23.996c-.003-.014-.011-.03-.005-.042.006-.01.027-.012.042-.019l.005.042-.042.02zM14.38 26.18c.01-.013.027-.034.04-.053 0 0 .01-.004.007 0l-.022.033c-.009.007-.027.024-.024.02zm13.485-1.261c-.001-.013-.009-.03-.001-.04.015-.017.038-.032.058-.047l-.001.039-.056.048zM16.579 40.715c-.014.045-.028.118-.043.125-.013.007-.028-.056-.042-.088l.047-.132.038.095zm7.924-15.257c0 .006-.05-.005-.077-.007 0-.025-.003-.052.002-.074.002-.005.033.002.051.003.01.026.026.055.024.078zm-6.872 14.514c.01-.013.021-.005.033-.007-.01.042-.017.104-.03.119-.027.034-.06.042-.133.09.072-.11.102-.159.13-.202zm-7.538-21.295c.033-.017.064-.04.098-.048.03-.006.063.006.095.01l-.102.05-.09-.012zm5.956 23.42c-.012-.034-.036-.06-.035-.103a.7.7 0 0 1 .032-.187c.012-.027.032.008.06.021-.02.1-.038.184-.057.269zm-5.237-21.618c-.05-.001-.132.008-.145-.01-.015-.02.028-.066.046-.1l.152.001c-.02.045-.037.077-.053.11zm15.095-.855l.053.01-.037.21-.052-.011.036-.209zm-7.7 19.643c-.015.04-.057-.004-.087-.01.006-.064.005-.146.018-.181.022-.054.054-.075.107-.145-.016.17-.016.288-.038.336zm-7.31-18.564c.06.022.116.046.17.07 0 0-.034.026-.051.03-.153.043-.174-.005-.2-.047-.004-.008.011-.023.017-.034.022-.007.057-.02.065-.019zm13.252 1.971l.089.042c-.056.08-.124.154-.186.23l-.13-.053c.075-.073.158-.143.227-.219zm-.055 3.63c-.047.078-.013.207-.221.179a.142.142 0 0 1-.054-.041c-.082-.106-.057-.13.252-.225.017.062.028.08.023.088zm-1.26 6.41c.01-.004.08.073.083.101.028.25-.1.319-.306.348-.017-.292.076-.392.224-.45zm-9.674-8.25c.048.046.066.11.103.175-.285-.036-.296-.037-.344-.358.08.061.167.116.24.184zm-1.547-2.703c0 .016-.045.049-.076.075a.152.152 0 0 1-.063.017c-.19-.022-.31-.089-.184-.283.215.019.326.076.323.191zm-.445-.415c-.037-.125-.083-.243-.293-.288-.012-.003.03-.058.051-.066.064-.022.174-.054.189-.044.088.067.17.139.225.22.03.047.007.117.008.21-.099-.017-.174-.012-.18-.032zm8.707-12.001l.425.07c.112.02.236.03.242.203-.287.043-.478-.032-.667-.273zM14.427 26.5c-.024-.004-.074.03-.103.03-.026.001-.035-.024.151-.278.011.092.154-.044-.005.309-.014-.022-.018-.057-.043-.061zm-4.88-5.979c-.053-.065-.108-.131-.133-.207-.1-.304-.19-.611-.24-.927l.592 1.12-.111.055c-.037-.013-.092-.02-.108-.04zm12.66-10.29a.18.18 0 0 1 .028.023c.03.037.055.086-.046.173-.044.04-.13.078-.154.067a.537.537 0 0 1-.233-.145c-.178-.227-.447-.341-.695-.475-.039-.021-.061-.064-.09-.098l.044-.08c.397.14.766.335 1.147.536zM12.2 23.143c-.02-.047.003-.114.013-.172.002-.008.034-.032.05-.037a.618.618 0 0 1 .118-.03c.018-.002.03.008.033.017.111.249.214.503.335.748.042.084.141.137.185.22.013.026-.07.102-.11.156-.048 0-.128.015-.139-.004-.092-.156-.17-.318-.253-.479l-.016.008c-.074-.142-.153-.281-.216-.427zM19.104 9.2c-.112-.084-.238-.154-.388-.138-.307.03-.561-.028-.802-.179-.09-.058-.201-.056-.35-.093.618-.153 1.826.283 2.11.604a1.052 1.052 0 0 1-.57-.194zm.698 23.619c-.038.032-.08.057-.107.109-.396.754-.96 1.091-1.413 1.623-.167.2-.342.364-.52.547-.041-.307.018-.295.048-.33.217-.25.44-.497.67-.735l.872-.917c.339-.365.664-.768 1.006-1.164.041-.048.11-.058.168-.086l-.003-.007c-.158.446-.45.71-.721.96zm-5.784-7.07c.018.01.014.047-.005.07-.028.01-.09-.079-.115-.096-.066 0-.167.021-.192-.004-.2-.212-.242-.508-.37-.793.111-.018.19-.044.202-.03.215.225.454.435.358.83.042.007.09.01.122.022zm-.188.268c-.01 0 .02-.028.048-.05.028-.02.09-.06.114-.072.174-.087.17-.056.191-.04.008.006-.086.086-.132.135l.164-.04c-.296.2-.3.195-.16.038a1.503 1.503 0 0 1-.225.03zm6.626 9.653c.163.278.261.445.37.628-.047.033-.07.073-.088.058-.077-.07-.151-.155-.227-.235-.041-.002-.083-.002-.126-.008-.013-.003-.028-.029-.043-.044.014-.025.027-.08.04-.07.043.031.087.085.13.132l-.056-.461zm.832.383c-.11-.206-.085-.39-.133-.556l-.11-.047c.009-.01.018-.036.025-.03.028.024.058.058.086.087.18.242.182.24.132.546zm-7.015-9.933c-.086.06-.064.015 0-.065l-.004.004.004.061zm-2.6-4.034l.048.113.027.06c.026.008.054.013.075.023.005.001-.013.019-.022.03l-.048-.058-.026-.055-.052-.115-.002.002zm8.525 14.47v-.003.003zm9.863-24.244c.015-.057.057-.12.044-.168-.131-.562-.55-1.003-.573-1.61-.314-.702-.731-1.344-1.124-2.001a2.069 2.069 0 0 1-.279-.612c-.042-.149-.027-.32-.22-.368-.024-.005-.043-.08-.028-.093.353-.368.023-.503-.12-.673-.353-.435-.769-.813-1.103-1.276-.118-.17-.319-.287-.505-.39-.215-.113-.396-.213-.419-.522-.01-.153-.152-.278-.265-.384-.16-.148-.35-.26-.523-.393-.403-.322-.873-.554-1.272-.885a2.863 2.863 0 0 0-1.28-.627 1.573 1.573 0 0 1-.835-.447c-.167-.172-.394-.29-.618-.377-.394-.166-.815-.25-1.23-.348-.116-.03-.252-.043-.34-.122-.314-.289-.71-.328-1.093-.372-.6-.081-1.2-.153-1.799-.152a13.23 13.23 0 0 0-1.793.042c-.343.03-.685.058-1.025.099-.862.13-1.73.243-2.555.531-.661.193-1.252.572-1.862.864-.458.231-.97.38-1.343.762-.026.027-.07.04-.11.043-.322.034-.515.286-.742.475-.134.115-.28.213-.423.316-.61.456-1.198.943-1.728 1.478-.243.249-.468.515-.7.77-.13.14-.278.27-.382.43l-1.034 1.64c-.412.586-.708 1.242-1.042 1.866-.134.307-.4.582-.413.911-.022.401-.195.71-.302 1.062-.072.23-.123.466-.175.699-.027.106-.012.227-.058.323-.202.381-.252.806-.302 1.225-.029.329-.039.655-.352.916-.072.062-.095.17-.097.259-.003.063.064.131.101.196l.3-.088c.01.069.03.122.027.175-.02.503.023 1.004.004 1.5-.015.262-.062.522-.107.785-.008.05-.075.093-.113.14-.181.359-.164.718.088 1.045.088.114.098.267.13.4.029.092.015.193.048.284.197.555.43 1.09.61 1.633.127.34.45.602.27 1.016-.017.044.015.089.03.13.182.453.34.93.565 1.33.342.631.712 1.274.935 1.92.037.115.134.205.204.308.222.328.502.62.595 1.013.073.269.24.5.392.732.102.153.268.273.38.42.146.187.348.355.377.59.034.218.134.395.229.578.176.34.383.664.614.97l.468.583c.183.217.37.427.56.63.222.238.43.442.423.859-.002.203.093.356.34.286.233-.067.333.075.43.268-.116.02-.189.03-.294.047.05.564.295.892.762.836l.06.091.007-.001-.065-.097c-.099.129-.217.284-.118.402.267.319.453.776.798.954.163.08.3.19.353.472.12.639.44 1.02.792 1.218.214.125.407.171.429.7.003.074.045.13.078.174.35.482.699.974 1.058 1.437.215.27.441.489.662.726l.792.843c.135.14.278.212.404.41.131.21.261.364.403.38.08.01.161.093.239.172.113.118.077.339.044.543l-.002-.013a4.78 4.78 0 0 0 .294-.195c.01.193.014.391.038.57.018.134.064.332.094.345.13.059.278.223.34-.237-.014-.136-.031-.27-.047-.41-.002-.02.01-.049.017-.075.012.05.032.102.032.144l-.001.34c.115-.046.23.07.35.21a4.08 4.08 0 0 0 .192-.25l-.001-.002c-.025.189-.041.4-.078.564-.027.12-.076.188-.113.285l-.011.003c-.014.007-.028.1-.025.165a.92.92 0 0 0 .036.205h.005c.114-.14.226-.298.338-.45l-.003.014c.022-.05.05-.148.064-.14.217.118.424-.648.643-.596.024.005.06-.142.089-.222.146-.398.28-.814.42-1.163.05-.123.132-.099.2-.143l-.006-.005c.08-.068.161-.126.24-.21.16-.166.313-.4.477-.51.291-.194.5-.582.47-1.527-.011-.356.032-.625.21-.57.09.026.176-.15.258-.254.06-.075.05-.216.022-.41-.043-.297-.01-.367.1-.212.226.323.475.169.726.611.078.14.21-.118.25-.432l-.216-.06c.096-.228.203-.362.324-.45.071-.052.172-.079.252-.009.073.066.132.282.188.407.443-.262.65-1.002 1.06-1.299.039-.028.059-.105.082-.168.063-.17.023-.341-.118-.518-.031-.038-.075-.05-.1-.092-.055-.088-.1-.19-.148-.285.042-.042.08-.095.129-.123.052-.03.153-.024.083-.17-.151-.312-.036-.365.073-.347.122.02.24.051.324-.05.064-.077.106-.165-.06-.265-.118-.074-.11-.18-.071-.237.036-.051.106-.097.165-.068.153.081.248.082.256-.139a.777.777 0 0 1 .074-.296c.052-.116.137-.171.27.029.116.177.218.208.296.097.155-.235.307-.475.445-.726a.445.445 0 0 0 .044-.308c-.065-.24-.028-.353.103-.489.13-.134.276-.147.47-.124l-.005-.001c.337-.14.34-.144-.018-.413-.016-.012-.023-.04-.047-.083.112-.082.224-.174.349-.255.156-.104.118.15.264.156.058-.113.194-.236.181-.384-.032-.3.148-.478.272-.66h-.003c.043.057.066.148.131.306.13-.182.143-.232.231-.285.094-.051.232-.07.366-.105-.053-.118-.305-.278-.215-.414l.522.26c.559-.22.555-.232.498-.612-.353-.048-.485.088-.542.273-.222-.085-.155-.147-.177-.213l-.021-.062c.006.01.017.022.02.031.001.011-.004.02-.006.031.056-.053.14-.091.163-.16.04-.12.043-.26.06-.384.221.05.194.138.25.209.078.094.17.188.255.28l.076-.143-.03-.047.023.046c.082.028.217.09.238.073.052-.04.06-.115.073-.181.022-.094-.023-.176-.22-.24a.491.491 0 0 1-.179-.11c-.113-.147-.235-.299-.296-.438-.035-.078.043-.14.07-.21l.306.174c.039.02.087.027.15.046l.266-.142c-.175-.116-.38-.157-.348-.33.043-.226.082-.455.203-.644.09-.142.175-.293.428-.344l.357.282.045.003c.134-.05.314-.078.221-.253-.02-.04-.088-.081-.134-.121l-.121.055c-.013.007-.013.023-.02.033h.003c-.273-.153-.331-.296-.25-.427.31-.464.587-.983.875-1.48.398-.665.742-1.426 1.078-2.168.087-.18.255-.379-.038-.657-.056-.055-.005-.15.012-.222.037-.16.099-.315.12-.478.012-.1-.026-.213-.065-.32-.012-.035-.095-.091-.15-.103-.05-.009-.14.018-.156.047-.115.209-.249.413-.316.634-.107.364-.512.606-.432 1.007.01.054-.03.11-.08.145-.127.083-.2.17-.141.327.036.1-.018.197-.065.282-.169.306-.356.6-.548.876-.092.135-.1.337-.275.397-.27.089-.085.322-.187.454-.028.039-.095.088-.157.073-.306-.07-.36.05-.431.163-.414.593-.876 1.152-1.233 1.757-.185.296-.457.516-.807.69h.007l-.128-.307c-.06.04-.091.05-.1.07-.07.136.01.342-.242.396-.12.025-.217.164.012.373l.03-.02-.033.015c-.317.027-.587.1-.647.314-.056.185-.084.354-.33.438-.025.011-.025.053-.025.085-.003.314 0 .328-.193.36-.109.017-.133.062-.097.173.056.173-.013.273-.203.251-.141-.015-.193.034-.188.156.002.068.007.154-.035.183-.173.11-.375.172-.42.405-.216-.014-.273.148-.338.3-.104.245-.318.333-.548.38a.953.953 0 0 1 .168-.347l.805-.998c.284-.334.39-.79.803-1.046.066-.042.08-.119.118-.164l.262-.317c.133-.179.278-.352.382-.55.033-.057-.022-.164-.037-.25l.001.003.478-.397c-.42-.287-.42-.285-.212-.514.412.176.472.187.612.071.092-.076.161-.166.237-.254.105-.132.209-.265.308-.392.24-.324.476-.646.708-.962a.531.531 0 0 0 .093-.25c.008-.06.017-.139-.202-.204-.152.153-.331.308-.838.093-.03-.157.111-.202.327-.21.362-.013.45-.192.426-.427-.006-.055-.047-.12-.041-.171.02-.167.043-.327.255-.414a.424.424 0 0 0 .22-.224c.024-.05-.067-.065-.121-.044-.015.005-.027.016-.046.016-.01.001-.033-.016-.071-.036l.43-.558c.037-.043.17-.04.26-.057h-.008c-.054-.142-.129-.276-.025-.392.192-.211.352-.444.469-.691.25-.64.481-1.287.67-1.97.015-.069.045-.135.034-.206-.056-.333.087-.627.17-.938.017-.066.05-.132.064-.2.011-.051.028-.113-.172-.117l-.393.658c-.2.314-.397.62-.609.907-.082.1-.138.2-.013.336l-.004-.003c-.042.136-.18.235-.28.344-.091.1-.022.272-.092.4-.156.297-.3.593-.475.872-.21.348-.417.692-.634 1.029l-.797 1.048c-.307.447-.634.879-.959 1.306-.19.241-.372.484-.58.712-.008.01-.066-.007-.11-.011.04-.206.08-.413.12-.607.006-.034.042-.061.085-.074.272-.08.3-.292.357-.489.046-.16.126-.308.205-.454.065-.115.144-.222.211-.335l-.032-.045.029.045c.215-.017.354-.086.438-.199.102-.137.217-.27.331-.405.292-.33.578-.668.837-1.027.039-.05.09-.1.083-.164-.037-.277.203-.445.334-.66a2.06 2.06 0 0 0 .217-.513c.014-.04-.037-.1-.096-.23l-.394.375c-.115.44-.417.808-.733 1.158.183-.408.363-.813.74-1.154.087-.203.162-.41.27-.61.037-.066.037-.178.295-.126.044.008.11-.027.128-.056.22-.3.416-.618.33-1.006-.022-.116-.005-.229-.006-.322.118.002.241.015.249 0 .105-.22-.022-.46-.092-.69-.24.28-.435.553-.628.82-.086.118-.183.231-.25.35-.202.335-.386.673-.648.972-.31.36-.581.718-.779 1.11-.046.096-.117.183-.186.269-.238.307-.505.594-.752.894-.359.44-.654.897-1.015 1.33-.399.492-.775.982-1.183 1.463-.411.503-.801 1.012-1.23 1.503-.007.008-.018.015-.026.024-.34.287-.576.43-.755.708a.304.304 0 0 1-.105.09c-.432.25-.72.575-1.018.875-.04.041-.077.09-.12.125l-.741.568c-.21.173-.403.39-.6.545-.234.183-.46.266-.668.439l-.128.109c-.21-.338-.413-.637-.599-.982a8.793 8.793 0 0 0-.851-1.311c-.079-.103-.123-.273-.188-.395-.11-.206-.204-.416-.323-.594-.179-.264-.379-.514-.556-.796-.036-.05-.2-.356-.163-.658-.062-.025-.147-.037-.182-.079-.198-.247-.401-.492-.571-.756-.24-.389-.413-.804-.658-1.188a44.039 44.039 0 0 1-1.146-1.871c-.19-.386-.334-.793-.498-1.191-.001-.005.029-.02.085-.06.055.034.126.055.148.095.067.12.109.25.172.37.086.158.195.303.27.462.131.299.301.61.451.917.186.356.33.718.544 1.07.434.753.887 1.497 1.38 2.236.09.089.196.168.266.267l.092.133.047.053.087.106.159.218c.102.147.206.29.324.41.268.274.49.476.626 1.06.015.06.044.079.071.105.006.005.03-.045.05-.08l.043-.271.116.066.046-.224c.003-.216-.001-.362-.047-.394-.028-.022-.017-.15-.01-.256.001-.017.067-.197.105-.294l.083-.182c.083-.192.129-.326.128-.36 0-.026-.007-.032-.012-.045-.022-.06-.106-.016-.026-.26.018-.053-.015-.018-.028-.018-.046.002-.112.02-.147-.015-.048-.048-.055-.14-.102-.187-.04-.042-.092-.077-.145-.119-.036-.039-.03 0-.1-.107l-.263-.427c-.352-.586-.798-1.115-1.033-1.736-.316-.252-.408-.629-.588-.932-.293-.476-.671-.95-.898-1.424l-.419-.864a7.258 7.258 0 0 0-.355-.814c-.191-.336-.185-.643-.296-.938-.056-.156-.147-.324-.213-.468-.047-.129-.098-.26-.139-.394-.055-.184-.126-.374-.126-.563-.021-.19-.053-.384-.042-.574 0-.112-.034-.23-.05-.35.003-.193-.07-.418.006-.602.125-.222.063-.513.193-.74.128-.31.263-.622.423-.929a.288.288 0 0 0 .038-.156c-.007-.245.06-.454.209-.595.053-.054.068-.142.107-.21.062-.11.152-.191.227-.292.069-.083.14-.166.202-.26.197-.229.371-.513.61-.725.224-.251.499-.429.764-.648a50.9 50.9 0 0 1 .385-.254c.14-.109.285-.207.442-.285l.237-.117a3.96 3.96 0 0 1 .875-.366c.34-.025.675-.215 1.03-.26.272-.05.532.047.821-.109.055-.031.108.043.157.078.12.087.246.087.4-.013.069-.043.132-.005.199-.004.057 0 .11.01.169 0 .112-.018.24-.083.345-.066.163.033.28.207.453.195.177-.004.365-.03.515.05.108.05.219.093.34.116.233.033.458.09.677.172.218.077.444.154.63.295.16.111.348.186.53.275.187.113.436.173.568.35.135.165.328.261.483.405.155.153.49.119.711.218.015.007.092-.026.11-.047.043-.046.097-.115.092-.143-.007-.048-.05-.073-.084-.104-.19-.167-.406-.305-.591-.467-.018-.015.045-.127.093-.19.023-.03.127-.078.153-.069.214.073.364.218.698.18.085-.01.11.094.13.167.03.098.028.215.054.311.012.047.048.114.092.097.35-.127.194.07.098.218v.003l.02.03.024.026h-.003c.379-.23.462-.317.383-.465-.067-.12-.19-.202-.278-.307-.033-.042-.145-.044.001-.202.206.197.422.384.61.594.067.075.041.195-.158.363-.222.188-.2.19.04.227a.193.193 0 0 1 .145.11c.074.187.087.407.207.555.23.268.211.657.606.851.053.478.585.76.797 1.202.025.048.146.1.233.09.146-.015.177-.111.17-.177-.027-.228-.047-.46-.099-.684l-.053-.193c.22.152.34.344.437.543.182.36.496.7.525 1.118.023.209.11.41.192.614.072.163.164.377.247.568.033.08.013.179.265.205l.198-.468-.093-.113c-.01-.012-.004-.029-.005-.043.023.01.06.015.065.03.017.04.02.085.03.128.059.08.122.158.174.242.044.07.067.147.116.214.049.068-.053.178.165.226.021-.095.045-.171.05-.248l.018-.613c.012-.205-.009-.4.307-.58.114-.066.156-.215.172-.328.05-.35.099-.71.054-1.061a8.94 8.94 0 0 0-.308-1.625c.177.246.301.514.363.8.068.287.481.467.368.823-.008.024.036.073.069.076.247.025.257.156.259.308.012.298.054.594.101.887.016.109.015.255.285.245.024-.05.054-.1.07-.151.114-.4.02-.795-.03-1.188-.03-.162-.098-.322.062-.52.126.363.135.36.38.547a5.41 5.41 0 0 0-.128-.543c-.06-.194-.107-.386-.428-.436-.137-.022-.018-.157.07-.238l-.005.004c-.052-.219-.277-.38-.196-.638l-.001.004z" fill="#C3F4C9" mask="url(#b)"/></g><path d="M24.448 13.434c.042-.255.119-.396.234-.442.18-.082.369-.142.562-.195.193-.053.39-.136.59-.156.205-.033.417-.092.628-.119.211-.013.426-.022.638-.009.206.026.42.003.64-.008.204-.018.387.055.575.106.027.007.04.096.024.165a.399.399 0 0 1-.16.253.237.237 0 0 1-.148.039c-.543-.037-1.08.046-1.58.087-.339.047-.672.106-.988.215-.16.053-.314.098-.472.118a1.077 1.077 0 0 1-.472.038c-.013-.002-.032-.041-.07-.092M31.527 14.002c-.05-.014-.114-.011-.158-.03-.26-.11-.497-.234-.746-.332L30 13.416l-.627-.16c-.202-.065-.43-.071-.633-.111-.01-.002-.02 0-.026-.006-.087-.072-.131-.257-.295-.157-.014.006-.013-.093.005-.149a.505.505 0 0 1 .095-.166.123.123 0 0 1 .1-.044c.438.053.917.09 1.32.3.35.14.683.317 1.038.483.035.021.092.019.108.058.067.168.225.22.387.283.067.029.11.086.155.138l-.101.117zM24.621 26.306c.162.307.262.654.501.914.07.077.133.157.193.238l.087.124c.026.04.064.1.057.083.013.001.017.006.03.006.015-.002.013.008.015.018-.009.008-.024.023-.044.045l-.094.088a1.153 1.153 0 0 1-.061.053c.105-.123-.08.01-.14.002-.014 0-.013-.012-.007-.024.047.039-.088-.222-.172-.35a2.139 2.139 0 0 0-.355-.421c-.032-.03-.072-.062-.065-.11.038-.261-.133-.407-.304-.555-.064-.059-.089-.14-.12-.217-.006-.011.04-.058.074-.077a.3.3 0 0 1 .12-.041c.06.01.124.02.15.05.048.055.068.125.104.19l.031-.016zM25.181 29.716c.012-.244.017-.386-.04-.328-.05.05-.043-.115-.054-.188-.001-.006.025-.091.042-.139l.05-.132a.1.1 0 0 1 .062.03c.01.01.005.069.018.065.046-.014.078.005.1.092.023.091.071.047.103.071 0 0-.003.09-.01.172a1.986 1.986 0 0 1-.044.321c-.01.04-.019.058-.026.058-.013-.003-.023-.038-.037-.037-.051.008-.107.018-.165.02l.001-.005zM25.609 27.62c.078-.127.017-.037-.087.176l-.09.16c-.08.121-.136.151-.065.011.046-.085-.03.005-.071.03-.024.016-.045.022.048-.094l.113-.133.096-.105c.005.003.006.01 0 .032-.003.008-.028.055.058-.082l-.002.005zM25.62 28.43c-.018.246-.035.2-.044.124a3.306 3.306 0 0 1-.015-.471v.005l.034-.221v.005c.012.004.025.018.036.001l-.011.57v-.014zM25.887 28.671l-.072-.245-.03-.184c.01-.028.013-.07.033-.053.027.022.073.085.121.125l.05.107c.095.306.086.301.044.236-.028-.04-.042-.043-.059-.055-.034-.025-.063-.039-.094-.08-.014-.018-.023-.028.009.158l-.002-.009zM26.477 28.423c-.016-.022-.048-.063-.041-.063.072-.004-.072-.181.182-.042.05.025.01-.026.014-.037.019-.034.013-.072.294.028.096.117.21.256.021.177-.134-.058-.172-.054-.159-.005.024.106-.167.019-.254-.002l-.057-.056M25.73 28.627c-.01-.116-.018-.233-.033-.395a11.664 11.664 0 0 0-.005-.09c.007-.062-.005-.194.033.009.02.1.025.09.04.135l.03.131c.033.247.039.396.012.309-.04-.125-.069-.302-.057.028 0 .044-.013-.088-.02-.139l-.004-.066.005.078zM34.681 34.546c.135.23.079.386-.034.454-.351.215-.508.572-.667.96a.158.158 0 0 1-.129.095c-.05 0-.12-.046-.172-.091-.024-.021-.046-.102-.037-.131.122-.38.34-.652.607-.894l.432-.393M22.743 23.39c.247.305.42.662.604.978.01.017-.047.068-.07.1-.044.01-.072.023-.084.02-.028-.004-.061-.011-.07-.027-.165-.32-.372-.653-.502-.963-.001-.007.028-.026.122-.108M29.169 41.393c.068-.314.101-.524.15-.707.052-.2.19-.199.283.023.105.256.196.548.284.838.015.048-.016.158-.027.239-.036-.039-.092-.065-.104-.122-.066-.332-.157-.393-.279-.326-.081.043-.172.036-.307.055M33.376 23.377c-.017-.06-.087-.14-.055-.175.196-.213.416-.423.642-.638.017-.016.12-.002.183.008.019.003.069.053.06.067-.184.295-.315.609-.837.738h.007zM23.544 25.06c.06-.017.1-.033.103-.029l.577.769c.007.007.012.019.005.031-.017.026-.037.062-.067.078-.033.018-.105.035-.115.027-.074-.066-.157-.126-.198-.207-.112-.216-.203-.442-.305-.669M25.558 28.08c-.046.234-.098.363-.03-.002l.045-.208.039-.166c.006-.02.01-.03.005-.004l-.023.166-.036.22v-.006zM21.36 20.914c-.058-.11-.122-.22-.176-.333-.007-.017.036-.058.078-.067.127-.028.166 0 .18.028.082.172.16.342.224.514.01.025-.026.063-.046.095-.004.007-.034.023-.048.025a.573.573 0 0 1-.122.015c-.052-.086-.097-.176-.144-.264l.055-.013zM26.277 28.665l-.067-.104a2.065 2.065 0 0 1-.126-.225c.018-.018.054-.007.097.006.009.002.065.077.157.174.011.078-.01.099-.044.087-.024-.01-.014.035-.02.057l.003.005zM39.032 27.345c-.058.227-.114.46-.183.683-.01.034-.078.058-.137.056a.478.478 0 0 1-.178-.071c-.014-.254-.01-.498.261-.634.056-.028.16-.02.242-.03l-.005-.004zM21.642 15.818l.254-.417a.33.33 0 0 1 .149.165c.013.06.038.134.015.154-.085.07-.186.12-.29.174-.008.003-.054-.032-.128-.076M33.796 14.145c-.024.169.145.208.203.323.01.017-.016.076-.027.081a1.234 1.234 0 0 1-.17.06.046.046 0 0 1-.042-.01c-.144-.162-.324-.3-.483-.445-.012-.011.013-.061.039-.088.028-.027.098-.07.114-.068.111.023.216.057.324.088l-.001.003.045.055h-.002zM20.97 18.569c.162.135.26.238.206.322a.375.375 0 0 1-.143.004.55.55 0 0 1-.163-.057c-.117-.12-.007-.2.1-.27M25.628 28.362c.003-.115.008-.31.01-.331l.007-.029a3.921 3.921 0 0 1 0 .571c-.005.008-.011-.022-.019-.072l.002-.14zM26.364 29.774c-.085-.43.002-.268.088-.174l.029.063c.018.05.048.136.047.14-.021.071-.076.07-.164-.029M21.87 22.286c.017-.044.031-.09.059-.141a.433.433 0 0 1 .115-.037c.185.04.203.133.113.266a.16.16 0 0 1-.056.028c-.04.007-.104.02-.113.011-.046-.036-.077-.08-.119-.127M27.523 29.036c.047-.076.075-.128.11-.177a.43.43 0 0 1 .18.115c.053.118-.012.172-.29.062M25.526 29.654c.021.032.043.056.065.11v.267c0 .018-.008.124-.01.142-.032.106-.06-.06-.054-.528v.009zM26.522 29.632c-.057-.236-.074-.317.04-.14.013.02.047.084.065.124.018.04.041.1.042.113.01.09-.029.085-.147-.097" fill="#C3F4C9"/><path d="M39.175 27.402l-.143-.057.005.005-.076-.093c-.116-.148-.17-.288.005-.363.109-.046.295.142.38.399.01.03.002.058.002.088h.006l-.185.022h.006zM33.381 36.71c-.066.006-.143.037-.165.007-.051-.071-.111-.19-.106-.256a.537.537 0 0 1 .105-.265c.023-.032.107-.026.15.008.037.029.078.133.076.187-.006.11-.037.214-.06.32M25.571 27.83c-.046.173-.096.356-.094.332.003-.03.022-.117.038-.177.082-.269.083-.273.082-.265l-.028.118.002-.007zM21.1 20.044c.255.035.265.08.254.125-.006.024-.066.057-.138.083-.062.023-.188-.006-.179-.056.008-.045.037-.09.064-.152M30.75 40.578c-.059.176-.08.25-.106.31-.044.097-.082.26-.175.107-.082-.135-.104-.537-.026-.574.066-.032.164.081.308.157M33.236 23.76c-.119-.185-.103-.319.14-.384h-.007c.196.099.265.19.138.256-.086.045-.184.082-.276.123l.005.005zM21.622 21.36c.197.101.263.224.137.405-.055-.11-.113-.219-.167-.324-.011-.022.018-.054.03-.082M25.672 28.29c0-.168-.012-.382.018.077l.005.106c.013.352-.011.055-.023-.183M37.121 24.561c-.041.119-.077.24-.133.352-.01.022-.112.01-.17.01-.019-.038-.065-.09-.048-.114.07-.095.16-.183.243-.273l.108.025zM27.396 43.743c.04.13.083.25.117.394.016.074.029.251.016.288-.033.093-.085.19-.123.177-.033-.01-.076-.152-.08-.262-.013-.222.008-.449.075-.592l-.005-.005zM25.958 28.268l.12.222.062.134c.017.042.037.101.024.078l-.129-.245-.077-.19M23.413 14.218c-.024-.01-.05-.017-.078-.032a.237.237 0 0 1-.033-.056.24.24 0 0 1-.02-.066c0-.127.062-.113.136-.054.01.006.023.033.032.054.01.019.02.057.017.062-.015.034-.035.06-.054.092M35.02 34.316c-.042.023-.083.064-.106.052-.056-.03-.127-.079-.148-.128a.235.235 0 0 1 .005-.179c.022-.043.084-.065.129-.097.037.057.089.111.107.17.02.061.01.126.013.182M21.028 19.013c.104.072.112.125.035.181-.175-.086-.174-.091-.035-.18M11.69 12.317c.024-.125.055-.25.097-.37.008-.023.084-.035.115-.021.035.016.084.08.077.102-.042.118-.101.228-.148.343l-.141-.054zM32.105 38.059c-.004-.33.08-.437.166-.544.016-.02.062.009.095.014.008.068.04.172.02.201-.07.106-.156.188-.281.329M27.55 27.401c.085-.11.243-.17.383-.243.05.203-.035.316-.378.247l-.004-.004zM21.24 17.259a.755.755 0 0 0-.1.18c-.149-.153-.073-.2-.029-.258l.13.078zM21.086 18.346c.008.035.021.072.018.102 0 .007-.07-.001-.105-.011a.332.332 0 0 1-.105-.046c.009-.031.035-.058.054-.085l.138.04zM28.803 41.967c-.024-.085-.067-.178-.067-.249.001-.072.042-.162.072-.168.045-.008.125.018.14.086.041.187-.003.312-.073.35-.022.013-.052-.014-.077-.024l.005.005zM25.701 29.732c.016.081.029.163.045.25.016.413-.002.313-.011.314-.01.002-.02-.08-.029-.125l-.005-.449v.01zM21.077 19.918c-.04-.02-.107-.038-.111-.06-.004-.02.037-.046.094-.061.068-.018.168.008.172.053.002.02-.023.042-.034.063l-.12.005zM25.644 29.938c-.006.135-.01.286-.013.263a38.862 38.862 0 0 0-.011-.292l.008-.232c.003.04.01.144.016.261M26.338 28.37s-.005-.012.004-.004l.127.125.044.074c.003.007-.002.006-.013-.005a5.52 5.52 0 0 1-.112-.12l-.05-.07zM26.95 29.373c.024.047.052.092.055.106.01.042.01.077-.08-.035a4.969 4.969 0 0 1-.044-.066c-.01-.035-.03-.084-.022-.091.006-.005.055.053.09.086M26.83 29.63c-.011.016-.015.036-.03.036l-.067-.108c-.004-.034-.01-.07-.009-.094l.106.166M25.877 30.033c-.01-.267-.014-.373.055-.005l-.055.005M27.638 29.22c-.036-.014-.07-.023-.118-.049a.715.715 0 0 1-.097-.079c-.022-.023-.035-.046-.03-.048.013-.005.033-.003.065.011a.584.584 0 0 1 .097.07c.029.024.045.05.083.095M25.978 29.839l.007.162-.038-.239a.775.775 0 0 1-.009-.113l.04.19M21.057 19.623a.197.197 0 0 1-.085-.058c-.005-.008.039-.017.068-.024a.67.67 0 0 1 .067.005c.017.025.03.05.041.074 0 0-.085.006-.091.003M22.237 22.585c.047.024.09.035.105.056.03.049.044.1.08.196-.193-.089-.194-.09-.185-.252M36.456 25.583c.025-.084.048-.17.082-.252.007-.018.054-.023.086-.034.148.068.122.135.107.192-.022.082-.138.1-.28.088l.005.006zM34.733 29.76c.056-.105.12-.204.193-.353.13.305.128.305-.197.348l.004.005zM23.421 24.846c-.04-.032-.087-.055-.103-.093-.005-.01.08-.062.123-.096.036.03.077.06.103.095.004.005-.055.043-.123.094M26.194 29.921c-.058-.284-.036-.239-.03-.255l.034.108c0 .004.012.061.012.067l-.016.08M32.662 24.72c-.065 0-.113.008-.135-.003-.035-.02-.069-.057-.07-.077 0-.015.048-.017.073-.025.042.034.083.068.132.106M38.619 19.675c.09-.032.162-.064.241-.084.021-.004.068.029.104.044-.065.037-.127.077-.199.105-.013.006-.068-.03-.146-.065M36.306 25.528l.15.055-.006-.005-.16.374-.09-.036.114-.388zM38.447 28.739l.056.113c-.04-.005-.101-.002-.116-.015-.039-.036-.057-.077-.084-.116l.144.018M36.414 26.249c.046-.017.075-.026.104-.036.037.04.083.08.104.119.007.011-.053.019-.084.029l-.124-.112zM27.52 27.46c.08.19.078.19-.172.244l.175-.244h-.002zM21.18 16.952c-.007-.024-.022-.052-.014-.067.003-.005.061.025.093.04.014.027.036.057.038.077 0 .004-.063-.026-.117-.05M21.035 17.67l.086.04.01.075-.094-.041c-.006-.026-.003-.05-.002-.073" fill="#C3F4C9"/><g transform="translate(39.488 19.137)"><mask id="d" fill="#fff"><use xlink:href="#c"/></mask><path d="M.954.262L.782.357C.748.32.703.289.687.252.68.237.746.186.764.189.82.2.87.228.954.262" fill="#C3F4C9" mask="url(#d)"/></g><path d="M27.187 29.32c.039.057.076.108.071.108-.017.001-.046-.014-.07-.023l-.052-.08c.008-.01.03-.003.051-.005M20.966 19.382c-.01-.018-.023-.034-.02-.048h.092c.008.01.028.023.02.03-.005.007-.047.01-.092.018M25.804 30.27l-.023-.221.002-.16c.001-.015.008.058.013.09l.008.29M26.099 29.758l.032.12c.005.038.017.12.014.109l-.042-.16-.004-.069zM21.582 16.07l.108.164c.005.007-.037-.011-.06-.021 0 0-.034-.036-.035-.042-.005-.034-.005-.066-.007-.099l-.006-.002zM21.425 16.762c-.034-.004-.055-.006-.077-.01-.018-.033-.046-.072-.05-.098-.002-.008.05.017.077.026.018.03.035.06.05.082M26.99 29.304l.069.068c.016.028.052.083.046.08-.009 0-.044-.04-.067-.064l-.049-.084zM23.737 13.737c.01-.016.019-.036.034-.034.005.001.027.065.041.1-.01.013-.02.034-.033.033-.005-.001-.027-.064-.042-.1M31.23 40.096c-.003.046 0 .109-.016.129-.01.015-.046-.028-.071-.047.003-.046 0-.11.015-.131.01-.013.048.031.073.05M38.247 29.432c-.062-.02-.124-.033-.177-.058-.019-.01-.02-.05-.03-.076l.185.038.022.096M39.348 27.38c.01.015.03.033.03.044-.003.037-.012.071-.018.107l-.185-.13-.006.002.186-.023h-.007zM35.678 34.547c-.035.023-.067.05-.105.067-.016.006-.043-.005-.064-.01.011-.028.016-.079.036-.08.041-.004.09.018.135.03l-.002-.007zM21.258 20.38l-.064-.012.05-.013.066.01-.052.014zM37.674 23.792c-.017.034-.024.073-.053.101-.012.012-.068.004-.103.005-.001-.023-.02-.057 0-.066.044-.02.107-.023.162-.035l-.006-.005zM35.275 28.911l.043.034-.065.026a1.575 1.575 0 0 1-.04-.033l.062-.027M35.712 27.268l.054.012c.003.011.014.03.005.033-.007.003-.034-.007-.051-.012l-.008-.033zM22.756 14.504c-.005.014-.01.028-.017.036l-.029-.037c.005-.013.01-.027.018-.035l.028.036M23.115 14.176c.003-.019.006-.04.012-.055l.032.05c-.003.022-.006.042-.012.057l-.032-.052M27.878 28.88c.01.001.017-.001.028.005l.045.032c-.01-.002-.018 0-.03-.006l-.043-.031M27.351 29.326l-.003.01-.064-.072c.01.005.016.006.028.017l.04.045M24.529 44.786c-.02.019-.038.043-.059.054-.009.005-.02-.012-.03-.02.009-.028.018-.082.028-.08.02.004.042.038.063.059l-.002-.013zM25.672 30.097l.002-.084.001.096zM26.368 28.485l-.032-.035-.042-.064.071.088.003.011" fill="#C3F4C9"/><path d="M37.68 23.797c.01-.024.012-.05.03-.07.01-.01.052-.005.08-.006-.008.011-.009.025-.022.032-.028.016-.062.027-.094.039l.006.005zM21.012 17.996c-.018-.01-.052-.024-.052-.024.01-.007.026-.01.04-.014l.052.024a.284.284 0 0 1-.04.014M34.73 29.755c-.015.02-.02.046-.044.06-.011.006-.054-.01-.082-.016.008-.009.01-.023.026-.027.03-.006.068-.008.103-.012l-.004-.005zM37.764 29.849c.018.029.048.063.05.088.002.023-.027.037-.041.056-.025-.024-.06-.05-.067-.07-.008-.029.008-.052.013-.078l.045.004zM30.11 27.46l-.037-.002-.002-.022zM37.483 30.494l.05.006a.55.55 0 0 1 .037.068l-.05-.007c-.015-.021-.025-.045-.037-.067M22.923 14.419l-.007.024-.022-.047zM35.59 34.016c.014.018.038.039.037.054 0 .013-.028.02-.046.032-.012-.02-.038-.04-.036-.056 0-.013.028-.02.045-.03M28.322 28.481l-.009.022-.036-.03zM27.42 29.236l.038.037c.004.007-.007.007-.007.007l-.037-.037c-.004-.008.006-.007.006-.007M28.523 43.173c.008.023.023.047.022.067 0 .024-.013.044-.021.067-.009-.024-.022-.048-.022-.07 0-.022.013-.042.02-.064M22.444 14.938c.045.115.082.213-.068.045l.002.006c.021-.02.048-.032.072-.047l-.006-.004zM25.62 28.442l.008-.08-.002.138c-.005.151-.008.095-.005-.07l-.001.012zM25.832 30.005l-.006-.082.006.035zM26.331 29.824l.003.028-.018-.063zM22.27 15.262l-.04-.06.035.054zM22.232 15.282l-.056-.026c.004-.002.006-.01.015-.006.012.007.029.023.043.035l-.002-.003zM22.45 14.942l-.007-.054c.004.01.009.024.009.03 0 .01-.005.013-.008.02l.006.004zM28.072 28.775l-.005-.027.039.026zM10.439 20.496l-.058-.063c.013.007.033.012.04.02.011.013.012.028.018.043M27.523 27.46l.028-.058.004.003-.015.029-.02.026zM25.18 29.72l.001-.004-.001.005z" fill="#C3F4C9"/><path fill="#C3F4C9" d="M22.265 15.256l-.033.026.002.003.037-.023zM21.588 16.072l-.006-.002.006.002zM25.56 28.083l-.002-.003v.005l.002.004zM22.376 14.983l-.094-.131.017.014.079.123z"/><path fill="#C3F4C9" d="M22.281 14.852l-.003-.027.021.042zM33.231 23.755l.005.005-.005-.005zM25.889 28.68l-.002-.01.002.01zM25.527 29.645v.01-.01zM25.701 29.723v.01-.01zM26.275 28.66l.002.005-.002-.004z"/><g transform="translate(25.256 45.62)"><mask id="f" fill="#fff"><use xlink:href="#e"/></mask><path d="M.731.39L.733.379.731.39z" fill="#C3F4C9" mask="url(#f)"/></g><g transform="translate(40.326 15)"><mask id="h" fill="#fff"><use xlink:href="#g"/></mask><path d="M.119.532L.123.527.119.532z" fill="#C3F4C9" mask="url(#h)"/></g><path d="M35.68 34.554l-.002-.008.002.008z" fill="#C3F4C9"/><g transform="translate(6 .103)"><mask id="j" fill="#fff"><use xlink:href="#i"/></mask><path d="M27.421 16.802l-.036-.09c-.013-.036-.005-.062.034-.08.015-.006.02-.029.03-.044-.049-.025-.046-.054-.006-.09.03-.027.053-.049.102-.021.043.024.057-.046.089-.067.015-.009.05-.017.053-.012.011.019.025.047.017.065-.02.046-.052.088-.086.145.165-.049.165-.05.275-.035-.032.09-.132.166-.075.274.05.003.044-.042.056-.07.04-.091.118-.13.209-.15.054-.013.092.033.07.085-.027.06-.086.114-.037.193.013-.015.023-.03.037-.042.05-.045.094-.046.114.005.032.088.062.18.072.273.006.075-.012.152.068.199.01.007.018.043.011.057-.053.11.014.218-.003.33-.012.08.008.164-.033.244-.012.027 0 .067 0 .101 0 .035.007.073-.004.103-.07.193-.085.395-.102.592 0 .014 0 .03-.006.04-.085.15-.08.321-.126.48-.077.267-.118.512-.181.808-.056.214-.102.426-.19.606-.135.247-.225.51-.287.782a5.598 5.598 0 0 1-.292.868c-.168.444-.371.876-.563 1.31a1.968 1.968 0 0 0-.098.261c-.06.22-.158.427-.254.648-.349.81-.753 1.588-1.124 2.386-.207.426-.43.842-.649 1.262a43.682 43.682 0 0 1-1.467 2.599c-.339.574-.666 1.135-1.02 1.694-.338.539-.667 1.09-1.027 1.614-.321.468-.632.933-.92 1.416-.067.114-.16.23-.24.348l-.713 1.055-1.063 1.5-1.221 1.668-.496.66-.158.188-.27.338c-.248.325-.506.636-.758.946l-.378.475-.19.245-.095.129c-.015.015-.031.053-.047.053l-.048-.053a11.513 11.513 0 0 1-.513-.63l-2.331-3.017a3.328 3.328 0 0 1-.324-.457 4.269 4.269 0 0 0-.556-.778c-.138-.16-.235-.335-.348-.503-.099-.145-.232-.267-.342-.413a5.284 5.284 0 0 1-.312-.466c-.168-.281-.35-.548-.544-.816-.621-.833-1.177-1.714-1.728-2.597-.465-.713-.911-1.44-1.348-2.17a70.35 70.35 0 0 1-2.698-4.94c-.122-.23-.233-.468-.345-.705l-.308-.645-.501-1.11-.445-1.143-.438-1.144-.364-1.18c-.133-.492-.337-.955-.425-1.468-.06-.328-.124-.672-.188-1.007-.043-.24-.075-.496-.136-.716-.12-.633-.132-1.29-.184-1.938-.045-.424.013-.85.02-1.277.006-.34.05-.675.108-1.01.058-.335.09-.674.173-1.003.17-.631.326-1.267.58-1.87.233-.694.581-1.34.9-1.995.248-.412.485-.825.761-1.215.677-.908 1.4-1.797 2.275-2.528.33-.317.697-.586 1.067-.851a9.82 9.82 0 0 1 1.145-.75c.905-.558 1.891-.983 2.9-1.326a16.13 16.13 0 0 1 4.426-.7c2.494-.022 4.98.646 7.152 1.84l.938.568c.3.212.586.44.879.658.448.326.83.731 1.244 1.098.136.137.267.3.371.44.147.205.302.372.488.538.25.232.438.49.61.8.091.179.275.397.393.613.749 1.128 1.283 2.381 1.687 3.663l.242 1.013c.017.084.045.167.052.254l.021.16.014.15c.072.563.154 1.124.14 1.69a.939.939 0 0 1-.145.538c-.033.05-.057.106-.084.16-.038.076-.06.089-.145.06a.988.988 0 0 0-.376-.074c-.07.004-.076-.07-.126-.1-.071.034-.138.099-.237.049-.017-.008-.06.042-.094.056-.06.027-.109 0-.122-.061-.008-.037-.004-.077-.013-.115a.388.388 0 0 0-.046-.125c-.04-.06-.084-.117-.087-.19a.081.081 0 0 0-.012-.037c-.114-.203-.113-.202-.124-.376-.004-.05-.005-.1-.017-.148l-.147-.66c-.005-.017-.016-.036-.012-.055.03-.135-.03-.256-.062-.382-.014-.057-.02-.047-.058-.27a3.457 3.457 0 0 1-.106-.508c-.011-.085-.058-.204-.088-.305-.047-.144-.084-.29-.14-.432-.347-.936-.733-1.867-1.296-2.7l-.276-.441-.318-.414c-.214-.275-.414-.56-.663-.806l-.134-.144c-.692-.814-1.544-1.478-2.438-2.061a13.627 13.627 0 0 0-2.154-1.097c-1.315-.539-2.732-.815-4.152-.861l-.13-.007c-1.221.025-2.461.085-3.636.442-.514.107-.987.342-1.483.506-.24.102-.475.219-.713.329-.235.112-.473.22-.69.368-.428.26-.858.513-1.247.83-.203.16-.434.287-.619.471l-.532.482c-.512.496-1.004 1.019-1.42 1.599-.262.317-.473.668-.687 1.018-.232.34-.4.714-.58 1.081a5.49 5.49 0 0 0-.38.956l-.204.61c-.051.208-.11.413-.182.617-.04.115-.08.251-.102.37-.055.533-.178 1.06-.211 1.598-.023.536-.07 1.072.007 1.607l.1 1.22c.208.927.316 1.867.646 2.784.162.492.29.99.485 1.474l.583 1.452c.186.51.44 1.002.659 1.505.057.134.124.298.181.437l.247.555c.056.124.135.237.195.359.544 1.09 1.145 2.143 1.732 3.216.138.262.295.52.443.781l.462.764.253.409.376.652c.123.22.28.441.382.646.214.425.466.767.747 1.111.104.128.218.299.308.451.18.295.378.577.568.864l1.046 1.621c.205.321.43.601.643.9.156.213.37.414.44.65.005.02.048.08.072.104.324.333.584.727.853 1.119a.57.57 0 0 0 .083.1c.255.208.42.49.606.776.044.073.145.216.145.226.001.012.005.022.011.03.011.018.031.026.045 0 .027-.049.003-.072.049-.017.017.016.034.013.044.004.021-.032.041-.062.07-.1l.111-.183a3.82 3.82 0 0 1 .557-.759c.044-.047.095-.098.132-.151.287-.412.612-.82.875-1.227.257-.397.508-.755.795-1.12.208-.27.43-.552.607-.84.153-.243.277-.472.468-.722.158-.207.301-.45.48-.66.057-.065.126-.193.158-.27a2.28 2.28 0 0 1 .453-.71c.14-.151.267-.34.388-.55.489-.875 1.042-1.725 1.558-2.59.068-.117.15-.226.224-.34.047-.075.13-.191.135-.223.04-.232.24-.463.357-.689l.439-.78.403-.72c.262-.465.557-.914.731-1.421.04-.109.116-.246.18-.351.153-.248.297-.494.384-.776.007-.02.014-.045.024-.06.332-.526.44-1.114.714-1.67.237-.481.424-.998.597-1.509.099-.273.207-.544.317-.813.134-.307.259-.611.353-.926.033-.104.034-.121.023-.14-.05-.086-.031-.16.031-.23.051-.055.062-.115.053-.192a.49.49 0 0 1 .07-.332c.034-.054.054-.116.085-.173.023-.042.032-.083.015-.128-.028-.074 0-.135.048-.195.059-.067.103-.137.067-.228.05-.2.076-.408.16-.599.011-.026.043-.048.07-.062.039-.019.07-.037.056-.085-.01-.038-.04-.046-.077-.05-.012-.001-.032-.024-.031-.037 0-.014.017-.031.03-.041.009-.007.027-.004.04-.002.02 0 .05.01.059.002.064-.062.134-.07.216-.033.07-.057.104-.008.143.04.006.008.024.008.05.018l.101-.325c.022-.078.032-.088.105-.061l.072.032c.023.01.045.023.069.03.006 0 .018-.014.028-.022-.007-.007-.014-.021-.02-.021-.027.002-.053.01-.078.015" fill="#333" mask="url(#j)"/></g><path d="M16.488 11.857l.023-.101c.01-.04.032-.06.077-.054.015.002.032-.015.05-.022-.025-.05-.004-.077.05-.086.04-.006.07-.014.094.04.02.046.071-.007.107-.005.018 0 .05.014.05.02-.003.023-.009.057-.024.067-.043.028-.091.047-.152.076.161.051.16.053.242.13-.072.055-.196.062-.206.182.042.028.06-.01.083-.026.08-.053.164-.04.246-.003.05.022.058.08.016.107-.05.03-.125.04-.123.127.018-.005.035-.011.05-.013.063-.007.1.018.093.066-.016.08-.024.167-.047.244-.02.06-.064.109-.011.182.008.01.003.04-.008.047-.088.053-.05.168-.095.244-.032.056-.033.126-.091.17-.021.015-.015.051-.021.077-.005.026-.005.058-.021.077a.7.7 0 0 0-.158.437c-.001.011 0 .024-.006.033-.09.106-.066.248-.1.373a2.14 2.14 0 0 0-.052.623c.002.044.01.087-.024.126-.046.054-.051.112-.011.167.04.06.04.12.028.185a1.05 1.05 0 0 0-.001.29c.001.018.009.039.023.054.038.04.035.087.041.136.044.17.077.349.153.51.039.088.074.176.118.26.085.183.186.356.28.532.051.128.173.205.239.321.063.114.182.185.255.292.065.097.15.174.259.225.026.01.04.04.063.058.062.06.142.096.21.149.098.076.202.144.311.2.165.103.35.168.525.249.031.01.056.039.088.047.081.022.152.082.244.069a.143.143 0 0 1 .085.015c.18.08.377.115.574.108.038.001.082 0 .112.02.063.048.127.038.192.017.044-.014.084.011.125.016.036.001.071-.04.107-.048a.238.238 0 0 1 .113.007c.067.018.134.03.2.002.202-.07.41-.076.615-.129.164-.046.325-.105.481-.173.353-.133.668-.342.966-.572l.113-.11c.033-.034.062-.072.098-.102.226-.23.45-.468.611-.748a1.93 1.93 0 0 0 .134-.265c.028-.06.068-.113.103-.17.026-.04.062-.08.06-.127-.003-.133.07-.236.097-.358l.048-.235.06-.377a82.5 82.5 0 0 0 .043-.367c0-.137-.006-.276-.025-.412a2.192 2.192 0 0 1-.041-.267 3.22 3.22 0 0 0-.16-.618c-.047-.165-.126-.318-.195-.475-.103-.171-.203-.344-.329-.499a2.789 2.789 0 0 0-.566-.629c-.372-.284-.756-.566-1.21-.707-.132-.042-.26-.103-.396-.137a2.44 2.44 0 0 0-.31-.077.25.25 0 0 1-.105-.047c-.045-.036-.09-.044-.14-.022-.07.032-.13.04-.196-.019-.038-.033-.095-.034-.143-.039-.27-.01-.537.01-.805.047-.068.014-.138.02-.208.03-.065.011-.149.011-.221.038a3.965 3.965 0 0 0-1.214.555.93.93 0 0 1-.445.142c-.056.003-.11.014-.166.024-.077.015-.104.007-.143-.07-.057-.11-.112-.221-.207-.31-.05-.047.004-.098-.005-.156-.075-.03-.175-.033-.201-.139-.005-.02-.077-.015-.113-.028-.064-.023-.075-.077-.028-.133.03-.034.067-.06.095-.095a.54.54 0 0 0 .086-.127c.03-.078.058-.153.132-.204a.166.166 0 0 0 .03-.034c.144-.23.143-.24.323-.356.055-.032.11-.062.158-.103.21-.194.485-.29.733-.43.02-.011.043-.026.065-.028.175-.008.314-.098.468-.163.123-.04.222-.092.345-.074.03.005.067-.02.1-.032.047-.019.094-.041.143-.05a5.99 5.99 0 0 1 .988-.122c.231-.005.464 0 .694.018l.065.01c.35.055.698.125 1.043.216.257.076.511.163.753.283.435.19.83.454 1.204.74l.032.028c.34.23.6.547.862.857l.323.411.131.227.14.222c.08.145.152.295.225.447.041.076.064.161.092.244l.083.225c.086.223.124.46.183.692.037.271.086.543.09.816l.028.346c.01.144.017.29-.026.432a.386.386 0 0 0-.016.127c.014.183-.03.363-.06.54l-.121.53-.133.393a5.933 5.933 0 0 1-.418.842c-.16.296-.35.575-.556.843l-.356.39c-.037.036-.084.059-.124.091-.051.04-.102.08-.15.126-.031.029-.054.07-.087.098-.303.24-.595.51-.956.672-.085.043-.165.096-.254.136l-.26.118c-.047.023-.093.05-.14.068l-.233.067c-.078.021-.157.06-.233.06a.7.7 0 0 0-.405.136.385.385 0 0 1-.167.054l-.33.042c-.204.03-.412.027-.616.002-.12-.013-.232.023-.35.016-.082-.003-.177.047-.246-.038-.006-.007-.029-.008-.04-.004-.15.063-.299.018-.444-.026-.013-.002-.032-.004-.042 0-.112.062-.212.02-.31-.035a.63.63 0 0 0-.4-.092.424.424 0 0 1-.366-.123.313.313 0 0 0-.257-.098.378.378 0 0 1-.278-.11c-.016-.016-.033-.034-.052-.041-.156-.046-.288-.147-.435-.202a.995.995 0 0 1-.374-.226 1.358 1.358 0 0 0-.257-.206c-.08-.043-.163-.073-.227-.153-.052-.064-.132-.11-.176-.19-.013-.025-.054-.048-.085-.054a.225.225 0 0 1-.195-.181.328.328 0 0 0-.126-.173c-.262-.19-.436-.474-.612-.74-.023-.037-.032-.081-.049-.122-.01-.026-.023-.072-.037-.074-.109-.02-.108-.131-.16-.194-.054-.078-.083-.171-.122-.26l-.098-.244c-.053-.164-.072-.335-.183-.48a.196.196 0 0 1-.031-.122c.004-.097.003-.19-.063-.27-.004-.004-.012-.012-.01-.018 0-.2-.125-.368-.13-.57-.012-.173-.044-.347-.05-.524-.003-.095 0-.19.013-.284l.07-.318c.006-.025.004-.066-.01-.086-.068-.095-.059-.194-.002-.292a.34.34 0 0 0 .036-.251c-.028-.14 0-.29.07-.425.036-.07.06-.151.093-.222.022-.055.042-.104.03-.162-.017-.092.021-.17.08-.242.068-.08.124-.164.127-.277.123-.236.232-.484.416-.678a.178.178 0 0 1 .098-.05c.047-.008.085-.017.095-.078.008-.048-.012-.066-.044-.084-.012-.007-.017-.039-.009-.053.01-.017.035-.03.055-.034.011-.004.026.006.037.012.02.009.04.031.054.026.096-.042.165-.02.216.052.095-.028.1.038.11.102.001.012.016.019.034.04.09-.093.19-.198.264-.278.067-.06.08-.064.126-.002l.043.068c.013.02.024.043.042.06.005.005.023-.001.036-.003-.002-.01 0-.027-.006-.03-.023-.01-.05-.018-.074-.026" fill="#333"/></g></svg>
